<?xml version="1.0" encoding="utf-8"?>
<!-- Generated by IcoMoon.io -->
<!DOCTYPE svg PUBLIC "-//W3C//DTD SVG 1.1//EN" "http://www.w3.org/Graphics/SVG/1.1/DTD/svg11.dtd">
<svg version="1.1" xmlns="http://www.w3.org/2000/svg" xmlns:xlink="http://www.w3.org/1999/xlink" width="16" height="16" viewBox="0 0 16 16">
<path d="M15.5 13h-15c-0.276 0-0.5-0.224-0.5-0.5s0.224-0.5 0.5-0.5c1.436 0 1.604-0.979 1.663-3.38 0.070-2.794 0.165-6.62 5.837-6.62 5.646 0 5.726 3.801 5.783 6.576 0.051 2.433 0.22 3.424 1.717 3.424 0.276 0 0.5 0.224 0.5 0.5s-0.224 0.5-0.5 0.5zM2.562 12h10.832c-0.557-0.873-0.584-2.186-0.61-3.403-0.060-2.878-0.117-5.597-4.784-5.597-4.697 0-4.765 2.742-4.837 5.645-0.030 1.199-0.062 2.492-0.601 3.355z" fill="#444444"></path>
<path d="M9.5 3c-0.276 0-0.5-0.224-0.5-0.5v-1.5h-2v1.5c0 0.276-0.224 0.5-0.5 0.5s-0.5-0.224-0.5-0.5v-2c0-0.276 0.224-0.5 0.5-0.5h3c0.276 0 0.5 0.224 0.5 0.5v2c0 0.276-0.224 0.5-0.5 0.5z" fill="#444444"></path>
<path d="M8 16c-1.654 0-3-1.346-3-3 0-0.206 0.021-0.405 0.060-0.599 0.047-0.234 0.253-0.401 0.49-0.401h4.899c0.238 0 0.443 0.167 0.49 0.401 0.040 0.194 0.061 0.393 0.061 0.599 0 1.654-1.346 3-3 3zM6 13c0 1.103 0.897 2 2 2s2-0.897 2-2h-4z" fill="#444444"></path>
</svg>
