<?xml version="1.0" encoding="utf-8"?>
<!-- Generated by IcoMoon.io -->
<!DOCTYPE svg PUBLIC "-//W3C//DTD SVG 1.1//EN" "http://www.w3.org/Graphics/SVG/1.1/DTD/svg11.dtd">
<svg version="1.1" xmlns="http://www.w3.org/2000/svg" xmlns:xlink="http://www.w3.org/1999/xlink" width="16" height="16" viewBox="0 0 16 16">
<path d="M8.5 14c-0.087 0-0.174-0.022-0.252-0.068-0.021-0.012-2.111-1.212-4.644-1.212-0.685 0-1.348 0.088-1.97 0.261-0.15 0.042-0.313 0.011-0.437-0.083s-0.197-0.242-0.197-0.398v-10c0-0.224 0.148-0.42 0.363-0.481 0.035-0.010 0.878-0.246 2.163-0.246 1.225 0 3.060 0.222 4.971 1.252 1.888-1.048 3.703-1.275 4.914-1.275 1.324 0 2.197 0.26 2.234 0.271 0.211 0.064 0.355 0.259 0.355 0.479v10c0 0.158-0.075 0.308-0.203 0.402s-0.293 0.121-0.443 0.077c-0.597-0.182-1.245-0.274-1.926-0.274-2.481 0-4.659 1.218-4.681 1.23-0.077 0.043-0.162 0.065-0.247 0.065zM3.604 11.72c2.307 0 4.229 0.87 4.898 1.213 0.682-0.344 2.658-1.229 4.925-1.229 0.543 0 1.069 0.052 1.572 0.154v-8.961c-0.336-0.065-0.892-0.146-1.589-0.146-1.14 0-2.873 0.222-4.656 1.28-0.154 0.092-0.347 0.094-0.504 0.002-1.809-1.041-3.568-1.26-4.725-1.26-0.665 0-1.198 0.071-1.526 0.13v8.966c0.52-0.099 1.057-0.149 1.605-0.149z" fill="#444444"></path>
<path d="M8.5 14c-0.276 0-0.5-0.224-0.5-0.5v-10c0-0.276 0.224-0.5 0.5-0.5s0.5 0.224 0.5 0.5v10c0 0.276-0.224 0.5-0.5 0.5z" fill="#444444"></path>
</svg>
