<?xml version="1.0" encoding="utf-8"?>
<!-- Generated by IcoMoon.io -->
<!DOCTYPE svg PUBLIC "-//W3C//DTD SVG 1.1//EN" "http://www.w3.org/Graphics/SVG/1.1/DTD/svg11.dtd">
<svg version="1.1" xmlns="http://www.w3.org/2000/svg" xmlns:xlink="http://www.w3.org/1999/xlink" width="16" height="16" viewBox="0 0 16 16">
<path d="M8.539 12.476c0 0 0 0 0 0-0.511 0-0.979-0.209-1.392-0.622-0.537-0.537-0.765-1.194-0.677-1.954 0.416-3.601 8.425-8.613 8.766-8.825 0.182-0.111 0.416-0.098 0.581 0.038 0.166 0.135 0.227 0.361 0.151 0.562-0.412 1.105-4.13 10.801-7.429 10.801zM14.456 2.784c-2.624 1.802-6.741 5.056-6.992 7.23-0.052 0.454 0.072 0.813 0.39 1.132 0.222 0.222 0.446 0.329 0.685 0.329 1.736 0.001 4.325-4.853 5.917-8.691z" fill="#444444"></path>
<path d="M4.44 16c-1.954 0-3.92-0.794-4.417-2.348-0.059-0.186-0.005-0.389 0.139-0.521 0.145-0.132 0.351-0.167 0.532-0.092 1.598 0.676 1.853 0.168 2.359-0.841 0.499-0.994 1.184-2.349 3.481-2.197 0.275 0.020 0.483 0.258 0.464 0.534-0.020 0.275-0.263 0.474-0.534 0.464-1.628-0.114-2.044 0.703-2.518 1.647-0.397 0.792-0.88 1.723-2.139 1.693 1.009 0.643 2.679 0.829 4.016 0.498 0.909-0.225 2.389-0.857 2.086-2.558-0.048-0.272 0.133-0.532 0.404-0.58 0.279-0.047 0.532 0.133 0.58 0.404 0.316 1.774-0.769 3.194-2.831 3.704-0.516 0.129-1.068 0.193-1.622 0.193z" fill="#444444"></path>
</svg>
