<?xml version="1.0" encoding="utf-8"?>
<!-- Generated by IcoMoon.io -->
<!DOCTYPE svg PUBLIC "-//W3C//DTD SVG 1.1//EN" "http://www.w3.org/Graphics/SVG/1.1/DTD/svg11.dtd">
<svg version="1.1" xmlns="http://www.w3.org/2000/svg" xmlns:xlink="http://www.w3.org/1999/xlink" width="16" height="16" viewBox="0 0 16 16">
<path d="M11.5 6h-7c-0.276 0-0.5-0.224-0.5-0.5v-4c0-0.276 0.224-0.5 0.5-0.5h7c0.276 0 0.5 0.224 0.5 0.5v4c0 0.276-0.224 0.5-0.5 0.5zM5 5h6v-3h-6v3z" fill="#444444"></path>
<path d="M7 3.5c0 0.276-0.224 0.5-0.5 0.5s-0.5-0.224-0.5-0.5c0-0.276 0.224-0.5 0.5-0.5s0.5 0.224 0.5 0.5z" fill="#444444"></path>
<path d="M10 3.5c0 0.276-0.224 0.5-0.5 0.5s-0.5-0.224-0.5-0.5c0-0.276 0.224-0.5 0.5-0.5s0.5 0.224 0.5 0.5z" fill="#444444"></path>
<path d="M5.5 16c-0.032 0-0.065-0.003-0.098-0.010l-5-1c-0.141-0.028-0.263-0.115-0.335-0.239s-0.087-0.273-0.042-0.409l3-9c0.069-0.204 0.26-0.342 0.475-0.342h3c0.142 0 0.276 0.060 0.371 0.165 0.095 0.104 0.141 0.244 0.126 0.385l-1 10c-0.014 0.14-0.086 0.268-0.2 0.352-0.086 0.064-0.191 0.098-0.297 0.098zM1.153 14.121l3.904 0.781 0.89-8.902h-2.087l-2.707 8.121z" fill="#444444"></path>
<path d="M10.5 16c-0.106 0-0.211-0.034-0.297-0.098-0.114-0.084-0.187-0.212-0.2-0.352l-1-10c-0.015-0.141 0.031-0.281 0.126-0.385 0.095-0.105 0.229-0.165 0.371-0.165h3c0.215 0 0.406 0.138 0.475 0.342l3 9c0.045 0.136 0.030 0.285-0.042 0.409s-0.194 0.211-0.335 0.239l-5 1c-0.033 0.007-0.066 0.010-0.098 0.010zM10.053 6l0.89 8.901 3.904-0.781-2.707-8.12h-2.087z" fill="#444444"></path>
<path d="M9.5 9h-3c-0.276 0-0.5-0.224-0.5-0.5s0.224-0.5 0.5-0.5h3c0.276 0 0.5 0.224 0.5 0.5s-0.224 0.5-0.5 0.5z" fill="#444444"></path>
<path d="M9.5 12h-3c-0.276 0-0.5-0.224-0.5-0.5s0.224-0.5 0.5-0.5h3c0.276 0 0.5 0.224 0.5 0.5s-0.224 0.5-0.5 0.5z" fill="#444444"></path>
<path d="M8.5 15h-1c-0.133 0-0.26-0.053-0.354-0.146l-1.5-1.5c-0.195-0.195-0.195-0.512 0-0.707s0.512-0.195 0.707 0l1.354 1.353h0.586l1.354-1.354c0.195-0.195 0.512-0.195 0.707 0s0.195 0.512 0 0.707l-1.5 1.5c-0.094 0.094-0.221 0.147-0.354 0.147z" fill="#444444"></path>
<path d="M12.5 6c-0.128 0-0.256-0.049-0.354-0.146-0.195-0.195-0.195-0.512 0-0.707l2-2c0.195-0.195 0.512-0.195 0.707 0s0.195 0.512 0 0.707l-2 2c-0.097 0.097-0.225 0.146-0.353 0.146z" fill="#444444"></path>
<path d="M14.5 8h-1c-0.276 0-0.5-0.224-0.5-0.5s0.224-0.5 0.5-0.5h1c0.276 0 0.5 0.224 0.5 0.5s-0.224 0.5-0.5 0.5z" fill="#444444"></path>
<path d="M3.5 6c-0.128 0-0.256-0.049-0.354-0.146l-2-2c-0.195-0.195-0.195-0.512 0-0.707s0.512-0.195 0.707 0l2 2c0.195 0.195 0.195 0.512 0 0.707-0.097 0.097-0.225 0.146-0.353 0.146z" fill="#444444"></path>
<path d="M2.5 8h-1c-0.276 0-0.5-0.224-0.5-0.5s0.224-0.5 0.5-0.5h1c0.276 0 0.5 0.224 0.5 0.5s-0.224 0.5-0.5 0.5z" fill="#444444"></path>
</svg>
