<?xml version="1.0" encoding="utf-8"?>
<!-- Generated by IcoMoon.io -->
<!DOCTYPE svg PUBLIC "-//W3C//DTD SVG 1.1//EN" "http://www.w3.org/Graphics/SVG/1.1/DTD/svg11.dtd">
<svg version="1.1" xmlns="http://www.w3.org/2000/svg" xmlns:xlink="http://www.w3.org/1999/xlink" width="16" height="16" viewBox="0 0 16 16">
<path d="M10.5 9h-6c-0.276 0-0.5-0.224-0.5-0.5s0.224-0.5 0.5-0.5h6c0.276 0 0.5 0.224 0.5 0.5s-0.224 0.5-0.5 0.5z" fill="#444444"></path>
<path d="M7.5 15.974c-4.121 0-7.474-3.353-7.474-7.474s3.353-7.474 7.474-7.474 7.474 3.353 7.474 7.474-3.353 7.474-7.474 7.474zM7.5 1.974c-3.599 0-6.526 2.928-6.526 6.526s2.928 6.526 6.526 6.526 6.526-2.928 6.526-6.526-2.927-6.526-6.526-6.526z" fill="#444444"></path>
<path d="M7.5 12c-0.276 0-0.5-0.224-0.5-0.5v-6c0-0.276 0.224-0.5 0.5-0.5s0.5 0.224 0.5 0.5v6c0 0.276-0.224 0.5-0.5 0.5z" fill="#444444"></path>
</svg>
