<?xml version="1.0" encoding="utf-8"?>
<!-- Generated by IcoMoon.io -->
<!DOCTYPE svg PUBLIC "-//W3C//DTD SVG 1.1//EN" "http://www.w3.org/Graphics/SVG/1.1/DTD/svg11.dtd">
<svg version="1.1" xmlns="http://www.w3.org/2000/svg" xmlns:xlink="http://www.w3.org/1999/xlink" width="16" height="16" viewBox="0 0 16 16">
<path d="M8 16c-4.411 0-8-3.589-8-8s3.589-8 8-8 8 3.589 8 8-3.589 8-8 8zM8 1c-3.86 0-7 3.141-7 7s3.14 7 7 7 7-3.141 7-7-3.14-7-7-7z" fill="#444444"></path>
<path d="M6.5 11c-0.128 0-0.256-0.049-0.354-0.146l-3-3c-0.195-0.195-0.195-0.512 0-0.707s0.512-0.195 0.707 0l2.647 2.646 4.646-4.646c0.195-0.195 0.512-0.195 0.707 0s0.195 0.512 0 0.707l-5 5c-0.097 0.097-0.225 0.146-0.353 0.146z" fill="#444444"></path>
</svg>
