<?xml version="1.0" encoding="utf-8"?>
<!-- Generated by IcoMoon.io -->
<!DOCTYPE svg PUBLIC "-//W3C//DTD SVG 1.1//EN" "http://www.w3.org/Graphics/SVG/1.1/DTD/svg11.dtd">
<svg version="1.1" xmlns="http://www.w3.org/2000/svg" xmlns:xlink="http://www.w3.org/1999/xlink" width="16" height="16" viewBox="0 0 16 16">
<path d="M11.5 8h-7c-0.276 0-0.5-0.224-0.5-0.5s0.224-0.5 0.5-0.5h7c0.276 0 0.5 0.224 0.5 0.5s-0.224 0.5-0.5 0.5z" fill="#444444"></path>
<path d="M11.5 10h-7c-0.276 0-0.5-0.224-0.5-0.5s0.224-0.5 0.5-0.5h7c0.276 0 0.5 0.224 0.5 0.5s-0.224 0.5-0.5 0.5z" fill="#444444"></path>
<path d="M8.5 12h-4c-0.276 0-0.5-0.224-0.5-0.5s0.224-0.5 0.5-0.5h4c0.276 0 0.5 0.224 0.5 0.5s-0.224 0.5-0.5 0.5z" fill="#444444"></path>
<path d="M14.5 16h-13c-0.276 0-0.5-0.224-0.5-0.5v-12c0-0.276 0.224-0.5 0.5-0.5h1.5c0.276 0 0.5 0.224 0.5 0.5s-0.224 0.5-0.5 0.5h-1v11h12v-11h-1c-0.276 0-0.5-0.224-0.5-0.5s0.224-0.5 0.5-0.5h1.5c0.276 0 0.5 0.224 0.5 0.5v12c0 0.276-0.224 0.5-0.5 0.5z" fill="#444444"></path>
<path d="M12.5 5h-9c-0.276 0-0.5-0.224-0.5-0.5v-2c0-0.276 0.224-0.5 0.5-0.5h2.176c0.055-0.385 0.202-0.906 0.59-1.323 0.417-0.449 1.001-0.677 1.734-0.677s1.317 0.228 1.734 0.677c0.388 0.417 0.536 0.938 0.59 1.323h2.176c0.276 0 0.5 0.224 0.5 0.5v2c0 0.276-0.224 0.5-0.5 0.5zM4 4h8v-1h-2.147c-0.139 0-0.272-0.058-0.367-0.16s-0.142-0.238-0.132-0.377c0.001-0.004 0.038-0.69-0.356-1.11-0.224-0.237-0.55-0.353-0.998-0.353-0.45 0-0.778 0.117-1.001 0.357-0.392 0.421-0.353 1.1-0.353 1.106 0.010 0.139-0.038 0.275-0.133 0.377s-0.227 0.16-0.366 0.16h-2.147v1z" fill="#444444"></path>
</svg>
