<?xml version="1.0" encoding="utf-8"?>
<!-- Generated by IcoMoon.io -->
<!DOCTYPE svg PUBLIC "-//W3C//DTD SVG 1.1//EN" "http://www.w3.org/Graphics/SVG/1.1/DTD/svg11.dtd">
<svg version="1.1" xmlns="http://www.w3.org/2000/svg" xmlns:xlink="http://www.w3.org/1999/xlink" width="16" height="16" viewBox="0 0 16 16">
<path d="M5.5 13c-0.128 0-0.256-0.049-0.354-0.146l-5-5c-0.195-0.195-0.195-0.512 0-0.707l5-5c0.195-0.195 0.512-0.195 0.707 0s0.195 0.512 0 0.707l-4.646 4.646 4.646 4.646c0.195 0.195 0.195 0.512 0 0.707-0.097 0.098-0.225 0.147-0.353 0.147z" fill="#444444"></path>
<path d="M10.5 13c-0.128 0-0.256-0.049-0.354-0.146-0.195-0.195-0.195-0.512 0-0.707l4.647-4.647-4.646-4.646c-0.195-0.195-0.195-0.512 0-0.707s0.512-0.195 0.707 0l5 5c0.195 0.195 0.195 0.512 0 0.707l-5 5c-0.098 0.097-0.226 0.146-0.354 0.146z" fill="#444444"></path>
<path d="M7.501 13c-0.017 0-0.034-0.001-0.051-0.002-0.274-0.027-0.476-0.272-0.447-0.547l1-10c0.027-0.276 0.273-0.473 0.547-0.449 0.274 0.028 0.475 0.273 0.447 0.548l-1 10c-0.025 0.258-0.243 0.45-0.496 0.45z" fill="#444444"></path>
</svg>
