<?xml version="1.0" encoding="utf-8"?>
<!-- Generated by IcoMoon.io -->
<!DOCTYPE svg PUBLIC "-//W3C//DTD SVG 1.1//EN" "http://www.w3.org/Graphics/SVG/1.1/DTD/svg11.dtd">
<svg version="1.1" xmlns="http://www.w3.org/2000/svg" xmlns:xlink="http://www.w3.org/1999/xlink" width="16" height="16" viewBox="0 0 16 16">
<path d="M14.5 16h-10c-0.276 0-0.5-0.224-0.5-0.5v-1.5c0-0.276 0.224-0.5 0.5-0.5s0.5 0.224 0.5 0.5v1h9v-11h-1c-0.276 0-0.5-0.224-0.5-0.5s0.224-0.5 0.5-0.5h1.5c0.276 0 0.5 0.224 0.5 0.5v12c0 0.276-0.224 0.5-0.5 0.5z" fill="#444444"></path>
<path d="M9.5 4h-6c-0.276 0-0.5-0.224-0.5-0.5s0.224-0.5 0.5-0.5h6c0.276 0 0.5 0.224 0.5 0.5s-0.224 0.5-0.5 0.5z" fill="#444444"></path>
<path d="M9.5 6h-6c-0.276 0-0.5-0.224-0.5-0.5s0.224-0.5 0.5-0.5h6c0.276 0 0.5 0.224 0.5 0.5s-0.224 0.5-0.5 0.5z" fill="#444444"></path>
<path d="M6.5 8h-3c-0.276 0-0.5-0.224-0.5-0.5s0.224-0.5 0.5-0.5h3c0.276 0 0.5 0.224 0.5 0.5s-0.224 0.5-0.5 0.5z" fill="#444444"></path>
<path d="M11.5 13h-10c-0.276 0-0.5-0.224-0.5-0.5v-12c0-0.276 0.224-0.5 0.5-0.5h10c0.276 0 0.5 0.224 0.5 0.5v12c0 0.276-0.224 0.5-0.5 0.5zM2 12h9v-11h-9v11z" fill="#444444"></path>
</svg>
