<?xml version="1.0" encoding="utf-8"?>
<!-- Generated by IcoMoon.io -->
<!DOCTYPE svg PUBLIC "-//W3C//DTD SVG 1.1//EN" "http://www.w3.org/Graphics/SVG/1.1/DTD/svg11.dtd">
<svg version="1.1" xmlns="http://www.w3.org/2000/svg" xmlns:xlink="http://www.w3.org/1999/xlink" width="16" height="16" viewBox="0 0 16 16">
<path d="M15.5 11h-10c-0.276 0-0.5-0.224-0.5-0.5v-10c0-0.276 0.224-0.5 0.5-0.5h10c0.276 0 0.5 0.224 0.5 0.5v10c0 0.276-0.224 0.5-0.5 0.5zM6 10h9v-9h-9v9z" fill="#444444"></path>
<path d="M10.578 10.734c-0.128 0-0.256-0.049-0.354-0.146-0.195-0.195-0.195-0.512 0-0.707l4.802-4.802c0.195-0.195 0.512-0.195 0.707 0s0.195 0.512 0 0.707l-4.802 4.802c-0.097 0.098-0.225 0.146-0.353 0.146z" fill="#444444"></path>
<path d="M5.688 5.625c-0.128 0-0.256-0.049-0.354-0.146-0.195-0.195-0.195-0.512 0-0.707l4.547-4.547c0.195-0.195 0.512-0.195 0.707 0s0.195 0.512 0 0.707l-4.547 4.547c-0.098 0.097-0.226 0.146-0.353 0.146z" fill="#444444"></path>
<path d="M11.5 16h-11c-0.276 0-0.5-0.224-0.5-0.5v-11c0-0.276 0.224-0.5 0.5-0.5h11c0.276 0 0.5 0.224 0.5 0.5v11c0 0.276-0.224 0.5-0.5 0.5zM1 15h10v-10h-10v10z" fill="#444444"></path>
<path d="M5.727 10.773c-0.128 0-0.256-0.049-0.354-0.146-0.195-0.195-0.195-0.512 0-0.707l9.773-9.773c0.195-0.195 0.512-0.195 0.707 0s0.195 0.512 0 0.707l-9.773 9.773c-0.098 0.098-0.226 0.146-0.353 0.146z" fill="#444444"></path>
</svg>
