<?xml version="1.0" encoding="utf-8"?>
<!-- Generated by IcoMoon.io -->
<!DOCTYPE svg PUBLIC "-//W3C//DTD SVG 1.1//EN" "http://www.w3.org/Graphics/SVG/1.1/DTD/svg11.dtd">
<svg version="1.1" xmlns="http://www.w3.org/2000/svg" xmlns:xlink="http://www.w3.org/1999/xlink" width="16" height="16" viewBox="0 0 16 16">
<path d="M14.5 16h-9c-0.276 0-0.5-0.224-0.5-0.5v-8c0-0.276 0.224-0.5 0.5-0.5h9c0.276 0 0.5 0.224 0.5 0.5v8c0 0.276-0.224 0.5-0.5 0.5zM6 15h8v-7h-8v7z" fill="#444444"></path>
<path d="M3.843 14.556c-1.651 0-2.995-1.343-2.995-2.995s1.344-2.995 2.995-2.995c0.729 0 1.437 0.274 1.991 0.771 0.205 0.185 0.223 0.5 0.038 0.706s-0.5 0.223-0.706 0.039c-0.371-0.332-0.841-0.516-1.323-0.516-1.101 0-1.995 0.895-1.995 1.995s0.895 1.995 1.995 1.995c0.482 0 0.952-0.183 1.324-0.515 0.202-0.184 0.519-0.168 0.706 0.039 0.184 0.206 0.166 0.522-0.040 0.706-0.555 0.497-1.262 0.77-1.99 0.77z" fill="#444444"></path>
<path d="M9.125 6.5c-0.128 0-0.256-0.049-0.354-0.146-0.195-0.195-0.195-0.512 0-0.707l1.584-1.584-1.708-1.709c-0.195-0.195-0.195-0.512 0-0.707l1.25-1.25c0.195-0.195 0.512-0.195 0.707 0s0.195 0.512 0 0.707l-0.896 0.896 1.708 1.708c0.195 0.195 0.195 0.512 0 0.707l-1.937 1.939c-0.098 0.097-0.226 0.146-0.354 0.146z" fill="#444444"></path>
</svg>
