<?xml version="1.0" encoding="utf-8"?>
<!-- Generated by IcoMoon.io -->
<!DOCTYPE svg PUBLIC "-//W3C//DTD SVG 1.1//EN" "http://www.w3.org/Graphics/SVG/1.1/DTD/svg11.dtd">
<svg version="1.1" xmlns="http://www.w3.org/2000/svg" xmlns:xlink="http://www.w3.org/1999/xlink" width="16" height="16" viewBox="0 0 16 16">
<path d="M8.5 14c-0.276 0-0.5-0.224-0.5-0.5v-13c0-0.276 0.224-0.5 0.5-0.5s0.5 0.224 0.5 0.5v13c0 0.276-0.224 0.5-0.5 0.5z" fill="#444444"></path>
<path d="M8.5 14c-0.128 0-0.256-0.049-0.354-0.146l-3-3c-0.195-0.195-0.195-0.512 0-0.707s0.512-0.195 0.707 0l2.647 2.646 2.646-2.646c0.195-0.195 0.512-0.195 0.707 0s0.195 0.512 0 0.707l-3 3c-0.097 0.097-0.225 0.146-0.353 0.146z" fill="#444444"></path>
<path d="M8.5 16c-4.206 0-7.5-1.977-7.5-4.5 0-2.038 2.177-3.776 5.417-4.327 0.267-0.044 0.53 0.136 0.577 0.409s-0.137 0.53-0.409 0.577c-2.699 0.459-4.585 1.833-4.585 3.341 0 1.897 2.977 3.5 6.5 3.5s6.5-1.603 6.5-3.5c0-1.508-1.886-2.882-4.585-3.341-0.272-0.046-0.455-0.305-0.409-0.577 0.047-0.272 0.31-0.452 0.577-0.409 3.24 0.551 5.417 2.289 5.417 4.327 0 2.523-3.294 4.5-7.5 4.5z" fill="#444444"></path>
</svg>
