<?xml version="1.0" encoding="utf-8"?>
<!-- Generated by IcoMoon.io -->
<!DOCTYPE svg PUBLIC "-//W3C//DTD SVG 1.1//EN" "http://www.w3.org/Graphics/SVG/1.1/DTD/svg11.dtd">
<svg version="1.1" xmlns="http://www.w3.org/2000/svg" xmlns:xlink="http://www.w3.org/1999/xlink" width="16" height="16" viewBox="0 0 16 16">
<path d="M8.8 14h-8.3c-0.276 0-0.5-0.224-0.5-0.5v-5.1c0-0.146 0.064-0.286 0.176-0.38l6.938-5.9c0.090-0.078 0.205-0.12 0.324-0.12h8.062c0.276 0 0.5 0.224 0.5 0.5v4.55c0 0.136-0.055 0.266-0.153 0.36l-6.7 6.45c-0.094 0.090-0.218 0.14-0.347 0.14zM1 13h7.598l6.402-6.163v-3.837h-7.378l-6.622 5.632v4.368z" fill="#444444"></path>
<path d="M8.5 13.5c-0.276 0-0.5-0.224-0.5-0.5v-4h-7c-0.276 0-0.5-0.224-0.5-0.5s0.224-0.5 0.5-0.5h7.5c0.276 0 0.5 0.224 0.5 0.5v4.5c0 0.276-0.224 0.5-0.5 0.5z" fill="#444444"></path>
<path d="M8.5 9c-0.141 0-0.281-0.060-0.379-0.175-0.181-0.209-0.156-0.525 0.054-0.705l7-6c0.21-0.177 0.525-0.154 0.705 0.055s0.156 0.525-0.054 0.705l-7 6c-0.095 0.080-0.211 0.12-0.326 0.12z" fill="#444444"></path>
</svg>
