<?xml version="1.0" encoding="utf-8"?>
<!-- Generated by IcoMoon.io -->
<!DOCTYPE svg PUBLIC "-//W3C//DTD SVG 1.1//EN" "http://www.w3.org/Graphics/SVG/1.1/DTD/svg11.dtd">
<svg version="1.1" xmlns="http://www.w3.org/2000/svg" xmlns:xlink="http://www.w3.org/1999/xlink" width="16" height="16" viewBox="0 0 16 16">
<path d="M15.5 8h-15c-0.276 0-0.5-0.224-0.5-0.5s0.224-0.5 0.5-0.5h15c0.276 0 0.5 0.224 0.5 0.5s-0.224 0.5-0.5 0.5z" fill="#444444"></path>
<path d="M3.505 10.996c-0.128 0-0.256-0.049-0.353-0.146l-3.005-2.996c-0.094-0.094-0.147-0.221-0.147-0.354s0.053-0.26 0.146-0.354l3-3c0.195-0.195 0.512-0.195 0.707 0s0.195 0.512 0 0.707l-2.645 2.647 2.649 2.642c0.196 0.195 0.196 0.511 0.002 0.707-0.097 0.098-0.226 0.147-0.354 0.147z" fill="#444444"></path>
<path d="M12.5 11c-0.128 0-0.256-0.049-0.354-0.146-0.195-0.195-0.195-0.512 0-0.707l2.646-2.647-2.649-2.642c-0.196-0.195-0.196-0.511-0.002-0.707 0.195-0.196 0.514-0.195 0.707-0.001l3.005 2.996c0.094 0.094 0.147 0.221 0.147 0.354s-0.053 0.26-0.146 0.354l-3 3c-0.098 0.097-0.226 0.146-0.354 0.146z" fill="#444444"></path>
</svg>
