<?xml version="1.0" encoding="utf-8"?>
<!-- Generated by IcoMoon.io -->
<!DOCTYPE svg PUBLIC "-//W3C//DTD SVG 1.1//EN" "http://www.w3.org/Graphics/SVG/1.1/DTD/svg11.dtd">
<svg version="1.1" xmlns="http://www.w3.org/2000/svg" xmlns:xlink="http://www.w3.org/1999/xlink" width="16" height="16" viewBox="0 0 16 16">
<path d="M8.5 16c-0.276 0-0.5-0.224-0.5-0.5v-15c0-0.276 0.224-0.5 0.5-0.5s0.5 0.224 0.5 0.5v15c0 0.276-0.224 0.5-0.5 0.5z" fill="#444444"></path>
<path d="M5.505 4.004c-0.128 0-0.256-0.049-0.353-0.146-0.196-0.194-0.196-0.511-0.002-0.707l2.995-3.004c0.094-0.094 0.222-0.147 0.355-0.147v0c0.133 0 0.26 0.053 0.354 0.146l3 3c0.195 0.195 0.195 0.512 0 0.707s-0.512 0.195-0.707 0l-2.646-2.645-2.642 2.65c-0.097 0.098-0.226 0.146-0.354 0.146z" fill="#444444"></path>
<path d="M8.5 16c-0.133 0-0.26-0.053-0.354-0.146l-3-3c-0.195-0.195-0.195-0.512 0-0.707s0.512-0.195 0.707 0l2.646 2.646 2.642-2.65c0.195-0.196 0.514-0.195 0.707-0.001 0.196 0.195 0.196 0.511 0.002 0.707l-2.995 3.004c-0.094 0.094-0.222 0.147-0.355 0.147v0z" fill="#444444"></path>
</svg>
