<?xml version="1.0" encoding="utf-8"?>
<!-- Generated by IcoMoon.io -->
<!DOCTYPE svg PUBLIC "-//W3C//DTD SVG 1.1//EN" "http://www.w3.org/Graphics/SVG/1.1/DTD/svg11.dtd">
<svg version="1.1" xmlns="http://www.w3.org/2000/svg" xmlns:xlink="http://www.w3.org/1999/xlink" width="16" height="16" viewBox="0 0 16 16">
<path d="M8.5 6c-0.276 0-0.5-0.224-0.5-0.5v-5c0-0.276 0.224-0.5 0.5-0.5s0.5 0.224 0.5 0.5v5c0 0.276-0.224 0.5-0.5 0.5z" fill="#444444"></path>
<path d="M8.5 15c-0.276 0-0.5-0.224-0.5-0.5v-5c0-0.276 0.224-0.5 0.5-0.5s0.5 0.224 0.5 0.5v5c0 0.276-0.224 0.5-0.5 0.5z" fill="#444444"></path>
<path d="M6.5 8h-5c-0.276 0-0.5-0.224-0.5-0.5s0.224-0.5 0.5-0.5h5c0.276 0 0.5 0.224 0.5 0.5s-0.224 0.5-0.5 0.5z" fill="#444444"></path>
<path d="M15.5 8h-5c-0.276 0-0.5-0.224-0.5-0.5s0.224-0.5 0.5-0.5h5c0.276 0 0.5 0.224 0.5 0.5s-0.224 0.5-0.5 0.5z" fill="#444444"></path>
<path d="M8.5 15c-0.128 0-0.256-0.049-0.354-0.146l-2-2c-0.195-0.195-0.195-0.512 0-0.707s0.512-0.195 0.707 0l1.647 1.646 1.646-1.646c0.195-0.195 0.512-0.195 0.707 0s0.195 0.512 0 0.707l-2 2c-0.097 0.097-0.225 0.146-0.353 0.146z" fill="#444444"></path>
<path d="M10.5 3c-0.128 0-0.256-0.049-0.354-0.146l-1.646-1.647-1.646 1.647c-0.195 0.195-0.512 0.195-0.707 0s-0.195-0.512 0-0.707l2-2c0.195-0.195 0.512-0.195 0.707 0l2 2c0.195 0.195 0.195 0.512 0 0.707-0.098 0.097-0.226 0.146-0.354 0.146z" fill="#444444"></path>
<path d="M13.5 10c-0.128 0-0.256-0.049-0.354-0.146-0.195-0.195-0.195-0.512 0-0.707l1.647-1.647-1.646-1.646c-0.195-0.195-0.195-0.512 0-0.707s0.512-0.195 0.707 0l2 2c0.195 0.195 0.195 0.512 0 0.707l-2 2c-0.098 0.097-0.226 0.146-0.354 0.146z" fill="#444444"></path>
<path d="M3.5 10c-0.128 0-0.256-0.049-0.354-0.146l-2-2c-0.195-0.195-0.195-0.512 0-0.707l2-2c0.195-0.195 0.512-0.195 0.707 0s0.195 0.512 0 0.707l-1.646 1.646 1.646 1.646c0.195 0.195 0.195 0.512 0 0.707-0.097 0.098-0.225 0.147-0.353 0.147z" fill="#444444"></path>
</svg>
