<?xml version="1.0" encoding="utf-8"?>
<!-- Generated by IcoMoon.io -->
<!DOCTYPE svg PUBLIC "-//W3C//DTD SVG 1.1//EN" "http://www.w3.org/Graphics/SVG/1.1/DTD/svg11.dtd">
<svg version="1.1" xmlns="http://www.w3.org/2000/svg" xmlns:xlink="http://www.w3.org/1999/xlink" width="16" height="16" viewBox="0 0 16 16">
<path d="M0.5 16c-0.128 0-0.256-0.049-0.354-0.146-0.195-0.195-0.195-0.512 0-0.707l6-6c0.195-0.195 0.512-0.195 0.707 0s0.195 0.512 0 0.707l-6 6c-0.097 0.097-0.225 0.146-0.353 0.146z" fill="#444444"></path>
<path d="M4.5 16h-4c-0.276 0-0.5-0.224-0.5-0.5v-4c0-0.276 0.224-0.5 0.5-0.5s0.5 0.224 0.5 0.5v3.5h3.5c0.276 0 0.5 0.224 0.5 0.5s-0.224 0.5-0.5 0.5z" fill="#444444"></path>
<path d="M9.5 7c-0.128 0-0.256-0.049-0.354-0.146-0.195-0.195-0.195-0.512 0-0.707l6-6c0.195-0.195 0.512-0.195 0.707 0s0.195 0.512 0 0.707l-6 6c-0.097 0.097-0.225 0.146-0.353 0.146z" fill="#444444"></path>
<path d="M15.5 5c-0.276 0-0.5-0.224-0.5-0.5v-3.5h-3.5c-0.276 0-0.5-0.224-0.5-0.5s0.224-0.5 0.5-0.5h4c0.276 0 0.5 0.224 0.5 0.5v4c0 0.276-0.224 0.5-0.5 0.5z" fill="#444444"></path>
<path d="M6.5 7c-0.128 0-0.256-0.049-0.354-0.146l-6-6c-0.195-0.195-0.195-0.512 0-0.707s0.512-0.195 0.707 0l6 6c0.195 0.195 0.195 0.512 0 0.707-0.097 0.097-0.225 0.146-0.353 0.146z" fill="#444444"></path>
<path d="M0.5 5c-0.276 0-0.5-0.224-0.5-0.5v-4c0-0.276 0.224-0.5 0.5-0.5h4c0.276 0 0.5 0.224 0.5 0.5s-0.224 0.5-0.5 0.5h-3.5v3.5c0 0.276-0.224 0.5-0.5 0.5z" fill="#444444"></path>
<path d="M15.5 16c-0.128 0-0.256-0.049-0.354-0.146l-6-6c-0.195-0.195-0.195-0.512 0-0.707s0.512-0.195 0.707 0l6 6c0.195 0.195 0.195 0.512 0 0.707-0.097 0.097-0.225 0.146-0.353 0.146z" fill="#444444"></path>
<path d="M15.5 16h-4c-0.276 0-0.5-0.224-0.5-0.5s0.224-0.5 0.5-0.5h3.5v-3.5c0-0.276 0.224-0.5 0.5-0.5s0.5 0.224 0.5 0.5v4c0 0.276-0.224 0.5-0.5 0.5z" fill="#444444"></path>
</svg>
