<?xml version="1.0" encoding="utf-8"?>
<!-- Generated by IcoMoon.io -->
<!DOCTYPE svg PUBLIC "-//W3C//DTD SVG 1.1//EN" "http://www.w3.org/Graphics/SVG/1.1/DTD/svg11.dtd">
<svg version="1.1" xmlns="http://www.w3.org/2000/svg" xmlns:xlink="http://www.w3.org/1999/xlink" width="16" height="16" viewBox="0 0 16 16">
<path d="M8 12.933c-3.974 0-7.334-4.612-7.476-4.808-0.125-0.174-0.125-0.41 0-0.584 0.142-0.197 3.502-4.809 7.476-4.809s7.334 4.612 7.476 4.809c0.125 0.174 0.125 0.41 0 0.584-0.142 0.196-3.502 4.808-7.476 4.808zM1.562 7.833c0.785 0.982 3.51 4.1 6.438 4.1 2.936 0 5.655-3.118 6.438-4.1-0.785-0.982-3.508-4.101-6.438-4.101s-5.653 3.119-6.438 4.101z" fill="#444444"></path>
<path d="M8 10.833c-1.654 0-3-1.346-3-3s1.346-3 3-3 3 1.346 3 3-1.346 3-3 3zM8 5.833c-1.103 0-2 0.897-2 2s0.897 2 2 2 2-0.897 2-2-0.897-2-2-2z" fill="#444444"></path>
</svg>
