<?xml version="1.0" encoding="utf-8"?>
<!-- Generated by IcoMoon.io -->
<!DOCTYPE svg PUBLIC "-//W3C//DTD SVG 1.1//EN" "http://www.w3.org/Graphics/SVG/1.1/DTD/svg11.dtd">
<svg version="1.1" xmlns="http://www.w3.org/2000/svg" xmlns:xlink="http://www.w3.org/1999/xlink" width="16" height="16" viewBox="0 0 16 16">
<path d="M14.5 16h-13c-0.276 0-0.5-0.224-0.5-0.5v-15c0-0.276 0.224-0.5 0.5-0.5h13c0.276 0 0.5 0.224 0.5 0.5v15c0 0.276-0.224 0.5-0.5 0.5zM2 15h12v-14h-12v14z" fill="#444444"></path>
<path d="M5.5 10c-0.128 0-0.256-0.049-0.354-0.146l-2-2c-0.195-0.195-0.195-0.512 0-0.707l2-2c0.195-0.195 0.512-0.195 0.707 0s0.195 0.512 0 0.707l-1.646 1.646 1.646 1.646c0.195 0.195 0.195 0.512 0 0.707-0.097 0.098-0.225 0.147-0.353 0.147z" fill="#444444"></path>
<path d="M10.5 10c-0.128 0-0.256-0.049-0.354-0.146-0.195-0.195-0.195-0.512 0-0.707l1.647-1.647-1.646-1.646c-0.195-0.195-0.195-0.512 0-0.707s0.512-0.195 0.707 0l2 2c0.195 0.195 0.195 0.512 0 0.707l-2 2c-0.098 0.097-0.226 0.146-0.354 0.146z" fill="#444444"></path>
<path d="M7.5 10c-0.040 0-0.081-0.005-0.122-0.015-0.267-0.067-0.43-0.339-0.363-0.606l1-4c0.067-0.269 0.337-0.432 0.606-0.364 0.268 0.067 0.431 0.338 0.364 0.606l-1 4c-0.057 0.228-0.26 0.379-0.485 0.379z" fill="#444444"></path>
</svg>
