<?xml version="1.0" encoding="utf-8"?>
<!-- Generated by IcoMoon.io -->
<!DOCTYPE svg PUBLIC "-//W3C//DTD SVG 1.1//EN" "http://www.w3.org/Graphics/SVG/1.1/DTD/svg11.dtd">
<svg version="1.1" xmlns="http://www.w3.org/2000/svg" xmlns:xlink="http://www.w3.org/1999/xlink" width="16" height="16" viewBox="0 0 16 16">
<path d="M10.5 3h-5c-0.276 0-0.5-0.224-0.5-0.5v-2c0-0.276 0.224-0.5 0.5-0.5h5c0.276 0 0.5 0.224 0.5 0.5v2c0 0.276-0.224 0.5-0.5 0.5zM6 2h4v-1h-4v1z" fill="#444444"></path>
<path d="M11 11h-6c-0.276 0-0.5-0.224-0.5-0.5s0.224-0.5 0.5-0.5h6c0.276 0 0.5 0.224 0.5 0.5s-0.224 0.5-0.5 0.5z" fill="#444444"></path>
<path d="M14.5 16h-13c-0.182 0-0.349-0.099-0.438-0.258-0.088-0.159-0.083-0.353 0.014-0.507l4.924-7.879v-4.856c0-0.276 0.224-0.5 0.5-0.5s0.5 0.224 0.5 0.5v5c0 0.094-0.026 0.186-0.076 0.265l-4.522 7.235h11.195l-4.521-7.235c-0.050-0.079-0.076-0.171-0.076-0.265v-5c0-0.276 0.224-0.5 0.5-0.5s0.5 0.224 0.5 0.5v4.856l4.924 7.878c0.097 0.154 0.102 0.349 0.014 0.507-0.089 0.16-0.256 0.259-0.438 0.259z" fill="#444444"></path>
</svg>
