<?xml version="1.0" encoding="utf-8"?>
<!-- Generated by IcoMoon.io -->
<!DOCTYPE svg PUBLIC "-//W3C//DTD SVG 1.1//EN" "http://www.w3.org/Graphics/SVG/1.1/DTD/svg11.dtd">
<svg version="1.1" xmlns="http://www.w3.org/2000/svg" xmlns:xlink="http://www.w3.org/1999/xlink" width="16" height="16" viewBox="0 0 16 16">
<path d="M13.5 6h-11c-0.144 0-0.28-0.062-0.375-0.169s-0.139-0.251-0.121-0.393l0.5-4c0.031-0.25 0.244-0.438 0.496-0.438h4.5c0.185 0 0.355 0.102 0.441 0.266l0.921 1.734h4.138c0.229 0 0.429 0.156 0.485 0.379l0.5 2c0.038 0.149 0.004 0.308-0.091 0.429s-0.24 0.192-0.394 0.192zM3.066 5h9.793l-0.25-1h-4.047c-0.186 0-0.355-0.102-0.442-0.266l-0.921-1.734h-3.758l-0.375 3z" fill="#444444"></path>
<path d="M14.525 15h-12.589c-0.246 0-0.455-0.179-0.494-0.421l-1.436-9c-0.023-0.145 0.018-0.292 0.114-0.404s0.234-0.175 0.38-0.175h15c0.142 0 0.277 0.061 0.372 0.166s0.14 0.247 0.125 0.388l-0.975 9c-0.027 0.254-0.242 0.446-0.497 0.446zM2.363 14h11.713l0.867-8h-13.857l1.277 8z" fill="#444444"></path>
</svg>
