<?xml version="1.0" encoding="utf-8"?>
<!-- Generated by IcoMoon.io -->
<!DOCTYPE svg PUBLIC "-//W3C//DTD SVG 1.1//EN" "http://www.w3.org/Graphics/SVG/1.1/DTD/svg11.dtd">
<svg version="1.1" xmlns="http://www.w3.org/2000/svg" xmlns:xlink="http://www.w3.org/1999/xlink" width="16" height="16" viewBox="0 0 16 16">
<path d="M15.5 15h-15c-0.276 0-0.5-0.224-0.5-0.5v-10l0.507-3.082c0.040-0.241 0.248-0.418 0.493-0.418h6.5c0.215 0 0.406 0.138 0.474 0.342l0.886 2.658h6.64c0.276 0 0.5 0.224 0.5 0.5v10c0 0.276-0.224 0.5-0.5 0.5zM1 14h14v-9h-6.5c-0.215 0-0.406-0.138-0.474-0.342l-0.886-2.658h-5.717l-0.43 2.582 0.007 9.418z" fill="#444444"></path>
</svg>
