<?xml version="1.0" encoding="utf-8"?>
<!-- Generated by IcoMoon.io -->
<!DOCTYPE svg PUBLIC "-//W3C//DTD SVG 1.1//EN" "http://www.w3.org/Graphics/SVG/1.1/DTD/svg11.dtd">
<svg version="1.1" xmlns="http://www.w3.org/2000/svg" xmlns:xlink="http://www.w3.org/1999/xlink" width="16" height="16" viewBox="0 0 16 16">
<path d="M8 11c-1.654 0-3-1.346-3-3s1.346-3 3-3 3 1.346 3 3-1.346 3-3 3zM8 6c-1.103 0-2 0.897-2 2s0.897 2 2 2 2-0.897 2-2-0.897-2-2-2z" fill="#444444"></path>
<path d="M9.5 16h-3c-0.276 0-0.5-0.224-0.5-0.5v-1.847c-0.227-0.080-0.448-0.175-0.664-0.282l-1.482 1.482c-0.195 0.195-0.512 0.195-0.707 0l-2-2c-0.195-0.195-0.195-0.512 0-0.707l1.482-1.482c-0.108-0.216-0.202-0.437-0.282-0.664h-1.847c-0.276 0-0.5-0.224-0.5-0.5v-3c0-0.276 0.224-0.5 0.5-0.5h1.847c0.080-0.227 0.175-0.448 0.282-0.664l-1.483-1.482c-0.195-0.195-0.195-0.512 0-0.707l2-2c0.195-0.195 0.512-0.195 0.707 0l1.482 1.482c0.217-0.108 0.438-0.202 0.665-0.282v-1.847c0-0.276 0.224-0.5 0.5-0.5h3c0.276 0 0.5 0.224 0.5 0.5v1.847c0.227 0.080 0.448 0.175 0.664 0.282l1.482-1.482c0.195-0.195 0.512-0.195 0.707 0l2 2c0.195 0.195 0.195 0.512 0 0.707l-1.482 1.482c0.108 0.216 0.202 0.437 0.282 0.664h1.847c0.276 0 0.5 0.224 0.5 0.5v3c0 0.276-0.224 0.5-0.5 0.5h-1.847c-0.080 0.227-0.175 0.448-0.282 0.664l1.482 1.482c0.195 0.195 0.195 0.512 0 0.707l-2 2c-0.195 0.195-0.512 0.195-0.707 0l-1.482-1.482c-0.216 0.107-0.438 0.202-0.664 0.282v1.847c0 0.276-0.224 0.5-0.5 0.5zM7 15h2v-1.713c0-0.224 0.149-0.421 0.364-0.481 0.397-0.111 0.78-0.274 1.139-0.482 0.197-0.115 0.444-0.083 0.605 0.078l1.392 1.392 1.293-1.293-1.392-1.392c-0.16-0.16-0.192-0.409-0.078-0.605 0.208-0.358 0.371-0.741 0.482-1.139 0.061-0.216 0.258-0.365 0.482-0.365h1.713v-2h-1.713c-0.224 0-0.421-0.149-0.481-0.364-0.111-0.397-0.274-0.78-0.482-1.139-0.114-0.196-0.082-0.445 0.078-0.605l1.391-1.392-1.293-1.293-1.392 1.392c-0.161 0.161-0.407 0.192-0.605 0.078-0.358-0.208-0.741-0.371-1.139-0.482-0.215-0.061-0.364-0.258-0.364-0.482v-1.713h-2v1.713c0 0.224-0.149 0.421-0.364 0.481-0.397 0.111-0.78 0.274-1.139 0.482-0.198 0.114-0.445 0.083-0.605-0.077l-1.392-1.392-1.293 1.293 1.392 1.392c0.16 0.16 0.192 0.409 0.078 0.605-0.208 0.358-0.371 0.741-0.483 1.139-0.060 0.215-0.257 0.364-0.481 0.364h-1.713v2h1.713c0.224 0 0.421 0.149 0.481 0.364 0.111 0.397 0.274 0.78 0.482 1.139 0.114 0.196 0.082 0.445-0.078 0.605l-1.391 1.392 1.293 1.293 1.392-1.392c0.161-0.161 0.408-0.192 0.605-0.078 0.358 0.208 0.741 0.371 1.139 0.482 0.215 0.061 0.364 0.258 0.364 0.482v1.713z" fill="#444444"></path>
</svg>
