<?xml version="1.0" encoding="utf-8"?>
<!-- Generated by IcoMoon.io -->
<!DOCTYPE svg PUBLIC "-//W3C//DTD SVG 1.1//EN" "http://www.w3.org/Graphics/SVG/1.1/DTD/svg11.dtd">
<svg version="1.1" xmlns="http://www.w3.org/2000/svg" xmlns:xlink="http://www.w3.org/1999/xlink" width="16" height="16" viewBox="0 0 16 16">
<path d="M11.341 12c-0.167 0-0.331-0.084-0.426-0.237-0.145-0.235-0.071-0.543 0.163-0.688 1.095-0.675 1.521-1.589 1.521-3.261 0-2.146-1.336-3.765-3.107-3.765-1.792-0.001-3.092 1.568-3.092 3.729 0 1.682 0.437 2.637 1.506 3.296 0.234 0.145 0.308 0.453 0.163 0.688-0.146 0.235-0.454 0.307-0.688 0.163-1.388-0.856-1.981-2.096-1.981-4.147 0-2.696 1.759-4.729 4.092-4.729 2.342 0 4.107 2.048 4.107 4.765 0 2.020-0.597 3.249-1.996 4.112-0.082 0.050-0.172 0.074-0.262 0.074z" fill="#444444"></path>
<path d="M3.5 16c-0.276 0-0.5-0.224-0.5-0.5v-2c0-1.378 1.121-2.5 2.5-2.5h2.144c0.276 0 0.5 0.224 0.5 0.5s-0.224 0.5-0.5 0.5h-2.144c-0.827 0-1.5 0.673-1.5 1.5v2c0 0.276-0.224 0.5-0.5 0.5z" fill="#444444"></path>
<path d="M15.5 16c-0.276 0-0.5-0.224-0.5-0.5v-2c0-0.827-0.673-1.5-1.5-1.5h-2.159c-0.276 0-0.5-0.224-0.5-0.5s0.224-0.5 0.5-0.5h2.159c1.379 0 2.5 1.122 2.5 2.5v2c0 0.276-0.224 0.5-0.5 0.5z" fill="#444444"></path>
<path d="M4 8.952c-0.090 0-0.181-0.024-0.263-0.075-1.446-0.893-2.12-2.21-2.12-4.147 0-2.697 1.759-4.73 4.092-4.73 1.267 0 2.433 0.624 3.199 1.711 0.159 0.226 0.105 0.538-0.12 0.697s-0.538 0.106-0.696-0.121c-0.577-0.818-1.446-1.287-2.383-1.287-1.792 0-3.092 1.568-3.092 3.729 0 1.578 0.508 2.594 1.646 3.297 0.235 0.145 0.307 0.453 0.163 0.688-0.095 0.153-0.259 0.238-0.426 0.238z" fill="#444444"></path>
<path d="M0.5 12.952c-0.276 0-0.5-0.224-0.5-0.5v-2c0-1.346 1.1-2.5 2-2.5h2c0.276 0 0.5 0.224 0.5 0.5s-0.224 0.5-0.5 0.5h-2c-0.298 0-1 0.633-1 1.5v2c0 0.276-0.224 0.5-0.5 0.5z" fill="#444444"></path>
</svg>
