<?xml version="1.0" encoding="utf-8"?>
<!-- Generated by IcoMoon.io -->
<!DOCTYPE svg PUBLIC "-//W3C//DTD SVG 1.1//EN" "http://www.w3.org/Graphics/SVG/1.1/DTD/svg11.dtd">
<svg version="1.1" xmlns="http://www.w3.org/2000/svg" xmlns:xlink="http://www.w3.org/1999/xlink" width="16" height="16" viewBox="0 0 16 16">
<path d="M0.5 14c-0.047 0-0.096-0.007-0.144-0.021-0.265-0.080-0.415-0.358-0.335-0.623l3-10c0.058-0.191 0.224-0.331 0.422-0.353 0.204-0.025 0.392 0.076 0.491 0.249l3.51 6.143 3.599-8.098c0.082-0.184 0.278-0.294 0.466-0.297 0.201 0.004 0.38 0.127 0.455 0.314l4 10c0.103 0.256-0.022 0.547-0.279 0.65-0.253 0.103-0.547-0.022-0.65-0.279l-3.56-8.9-3.519 7.917c-0.076 0.173-0.243 0.288-0.431 0.298-0.191 0.013-0.366-0.088-0.459-0.251l-3.422-5.989-2.665 8.884c-0.065 0.216-0.264 0.356-0.479 0.356z" fill="#444444"></path>
</svg>
