<?xml version="1.0" encoding="utf-8"?>
<!-- Generated by IcoMoon.io -->
<!DOCTYPE svg PUBLIC "-//W3C//DTD SVG 1.1//EN" "http://www.w3.org/Graphics/SVG/1.1/DTD/svg11.dtd">
<svg version="1.1" xmlns="http://www.w3.org/2000/svg" xmlns:xlink="http://www.w3.org/1999/xlink" width="16" height="16" viewBox="0 0 16 16">
<path d="M5.5 16c-0.276 0-0.5-0.224-0.5-0.5v-15c0-0.276 0.224-0.5 0.5-0.5s0.5 0.224 0.5 0.5v15c0 0.276-0.224 0.5-0.5 0.5z" fill="#444444"></path>
<path d="M10.5 16c-0.276 0-0.5-0.224-0.5-0.5v-15c0-0.276 0.224-0.5 0.5-0.5s0.5 0.224 0.5 0.5v15c0 0.276-0.224 0.5-0.5 0.5z" fill="#444444"></path>
<path d="M15.5 6h-15c-0.276 0-0.5-0.224-0.5-0.5s0.224-0.5 0.5-0.5h15c0.276 0 0.5 0.224 0.5 0.5s-0.224 0.5-0.5 0.5z" fill="#444444"></path>
<path d="M15.5 11h-15c-0.276 0-0.5-0.224-0.5-0.5s0.224-0.5 0.5-0.5h15c0.276 0 0.5 0.224 0.5 0.5s-0.224 0.5-0.5 0.5z" fill="#444444"></path>
</svg>
