<?xml version="1.0" encoding="utf-8"?>
<!-- Generated by IcoMoon.io -->
<!DOCTYPE svg PUBLIC "-//W3C//DTD SVG 1.1//EN" "http://www.w3.org/Graphics/SVG/1.1/DTD/svg11.dtd">
<svg version="1.1" xmlns="http://www.w3.org/2000/svg" xmlns:xlink="http://www.w3.org/1999/xlink" width="16" height="16" viewBox="0 0 16 16">
<path d="M15.5 15h-15c-0.276 0-0.5-0.224-0.5-0.5v-13c0-0.276 0.224-0.5 0.5-0.5h15c0.276 0 0.5 0.224 0.5 0.5v13c0 0.276-0.224 0.5-0.5 0.5zM1 14h14v-12h-14v12z" fill="#444444"></path>
<path d="M4 7c-1.103 0-2-0.897-2-2s0.897-2 2-2 2 0.897 2 2-0.897 2-2 2zM4 4c-0.552 0-1 0.449-1 1s0.448 1 1 1 1-0.449 1-1-0.448-1-1-1z" fill="#444444"></path>
<path d="M0.5 15c-0.128 0-0.256-0.049-0.354-0.146-0.195-0.195-0.195-0.512 0-0.707l7-7c0.195-0.195 0.512-0.195 0.707 0l2.647 2.646 1.646-1.646c0.195-0.195 0.512-0.195 0.707 0l3 3c0.195 0.195 0.195 0.512 0 0.707s-0.512 0.195-0.707 0l-2.646-2.647-1.646 1.646c-0.195 0.195-0.512 0.195-0.707 0l-2.647-2.646-6.646 6.646c-0.098 0.098-0.226 0.147-0.354 0.147z" fill="#444444"></path>
</svg>
