<?xml version="1.0" encoding="utf-8"?>
<!-- Generated by IcoMoon.io -->
<!DOCTYPE svg PUBLIC "-//W3C//DTD SVG 1.1//EN" "http://www.w3.org/Graphics/SVG/1.1/DTD/svg11.dtd">
<svg version="1.1" xmlns="http://www.w3.org/2000/svg" xmlns:xlink="http://www.w3.org/1999/xlink" width="16" height="16" viewBox="0 0 16 16">
<path d="M6.501 15.5c-0.035 0-0.070-0.004-0.105-0.011-0.271-0.059-0.442-0.324-0.385-0.594l3-14c0.059-0.271 0.331-0.437 0.594-0.385 0.271 0.059 0.442 0.324 0.385 0.594l-3 14c-0.052 0.236-0.259 0.396-0.489 0.396z" fill="#444444"></path>
<path d="M13.5 1h-8c-0.276 0-0.5-0.224-0.5-0.5s0.224-0.5 0.5-0.5h8c0.276 0 0.5 0.224 0.5 0.5s-0.224 0.5-0.5 0.5z" fill="#444444"></path>
<path d="M10 16h-7.5c-0.276 0-0.5-0.224-0.5-0.5s0.224-0.5 0.5-0.5h7.5c0.276 0 0.5 0.224 0.5 0.5s-0.224 0.5-0.5 0.5z" fill="#444444"></path>
</svg>
