<?xml version="1.0" encoding="utf-8"?>
<!-- Generated by IcoMoon.io -->
<!DOCTYPE svg PUBLIC "-//W3C//DTD SVG 1.1//EN" "http://www.w3.org/Graphics/SVG/1.1/DTD/svg11.dtd">
<svg version="1.1" xmlns="http://www.w3.org/2000/svg" xmlns:xlink="http://www.w3.org/1999/xlink" width="16" height="16" viewBox="0 0 16 16">
<path d="M8 16h-7.5c-0.276 0-0.5-0.224-0.5-0.5v-10c0-0.22 0.144-0.413 0.353-0.478 0.211-0.066 0.437 0.015 0.56 0.197 0.012 0.016 1.099 1.607 2.438 2.925 1.254 1.233 1.972 0.918 3.164 0.392 0.397-0.176 0.849-0.374 1.349-0.517 0.269-0.074 0.542 0.079 0.618 0.345 0.075 0.266-0.079 0.542-0.345 0.618-0.434 0.122-0.833 0.298-1.219 0.468-1.244 0.548-2.53 1.117-4.269-0.594-0.634-0.624-1.207-1.294-1.649-1.85v7.994h7c0.276 0 0.5 0.224 0.5 0.5s-0.224 0.5-0.5 0.5z" fill="#444444"></path>
<path d="M9.5 12h-3c-0.276 0-0.5-0.224-0.5-0.5s0.224-0.5 0.5-0.5h3c0.276 0 0.5 0.224 0.5 0.5s-0.224 0.5-0.5 0.5z" fill="#444444"></path>
<path d="M5 5.5c0 0.276-0.224 0.5-0.5 0.5s-0.5-0.224-0.5-0.5c0-0.276 0.224-0.5 0.5-0.5s0.5 0.224 0.5 0.5z" fill="#444444"></path>
<path d="M12 5.5c0 0.276-0.224 0.5-0.5 0.5s-0.5-0.224-0.5-0.5c0-0.276 0.224-0.5 0.5-0.5s0.5 0.224 0.5 0.5z" fill="#444444"></path>
<path d="M11.5 3c-0.128 0-0.256-0.049-0.354-0.146l-1.628-1.629c-0.639 0.638-2.053 1.775-4.018 1.775-2.247 0-3.261-1.55-3.482-2.369-0.073-0.267 0.085-0.541 0.351-0.613 0.269-0.069 0.539 0.084 0.612 0.349v0c0.020 0.066 0.492 1.633 2.519 1.633 2.172 0 3.591-1.788 3.604-1.807 0.089-0.112 0.221-0.183 0.364-0.192 0.145 0.002 0.283 0.044 0.385 0.146l1.647 1.646 1.646-1.646c0.195-0.195 0.512-0.195 0.707 0s0.195 0.512 0 0.707l-2 2c-0.097 0.097-0.225 0.146-0.353 0.146z" fill="#444444"></path>
<path d="M15.5 16h-7.5c-0.276 0-0.5-0.224-0.5-0.5s0.224-0.5 0.5-0.5h7v-7.994c-0.442 0.556-1.015 1.227-1.649 1.851-1.739 1.712-3.026 1.142-4.269 0.594-0.386-0.171-0.785-0.347-1.219-0.47-0.266-0.076-0.42-0.353-0.345-0.618s0.35-0.419 0.618-0.345c0.5 0.143 0.951 0.341 1.349 0.517 1.193 0.526 1.91 0.842 3.164-0.392 1.339-1.317 2.426-2.909 2.438-2.925 0.123-0.182 0.351-0.264 0.561-0.196 0.208 0.065 0.352 0.258 0.352 0.478v10c0 0.276-0.224 0.5-0.5 0.5z" fill="#444444"></path>
</svg>
