<?xml version="1.0" encoding="utf-8"?>
<!-- Generated by IcoMoon.io -->
<!DOCTYPE svg PUBLIC "-//W3C//DTD SVG 1.1//EN" "http://www.w3.org/Graphics/SVG/1.1/DTD/svg11.dtd">
<svg version="1.1" xmlns="http://www.w3.org/2000/svg" xmlns:xlink="http://www.w3.org/1999/xlink" width="16" height="16" viewBox="0 0 16 16">
<path d="M15.5 4h-11c-0.276 0-0.5-0.224-0.5-0.5s0.224-0.5 0.5-0.5h11c0.276 0 0.5 0.224 0.5 0.5s-0.224 0.5-0.5 0.5z" fill="#444444"></path>
<path d="M15.5 9h-11c-0.276 0-0.5-0.224-0.5-0.5s0.224-0.5 0.5-0.5h11c0.276 0 0.5 0.224 0.5 0.5s-0.224 0.5-0.5 0.5z" fill="#444444"></path>
<path d="M15.5 14h-11c-0.276 0-0.5-0.224-0.5-0.5s0.224-0.5 0.5-0.5h11c0.276 0 0.5 0.224 0.5 0.5s-0.224 0.5-0.5 0.5z" fill="#444444"></path>
<path d="M1.5 5c-0.827 0-1.5-0.673-1.5-1.5s0.673-1.5 1.5-1.5 1.5 0.673 1.5 1.5-0.673 1.5-1.5 1.5zM1.5 3c-0.276 0-0.5 0.225-0.5 0.5s0.224 0.5 0.5 0.5 0.5-0.225 0.5-0.5-0.224-0.5-0.5-0.5z" fill="#444444"></path>
<path d="M1.5 10c-0.827 0-1.5-0.673-1.5-1.5s0.673-1.5 1.5-1.5 1.5 0.673 1.5 1.5-0.673 1.5-1.5 1.5zM1.5 8c-0.276 0-0.5 0.225-0.5 0.5s0.224 0.5 0.5 0.5 0.5-0.225 0.5-0.5-0.224-0.5-0.5-0.5z" fill="#444444"></path>
<path d="M1.5 15c-0.827 0-1.5-0.673-1.5-1.5s0.673-1.5 1.5-1.5 1.5 0.673 1.5 1.5-0.673 1.5-1.5 1.5zM1.5 13c-0.276 0-0.5 0.225-0.5 0.5s0.224 0.5 0.5 0.5 0.5-0.225 0.5-0.5-0.224-0.5-0.5-0.5z" fill="#444444"></path>
</svg>
