<?xml version="1.0" encoding="utf-8"?>
<!-- Generated by IcoMoon.io -->
<!DOCTYPE svg PUBLIC "-//W3C//DTD SVG 1.1//EN" "http://www.w3.org/Graphics/SVG/1.1/DTD/svg11.dtd">
<svg version="1.1" xmlns="http://www.w3.org/2000/svg" xmlns:xlink="http://www.w3.org/1999/xlink" width="16" height="16" viewBox="0 0 16 16">
<path d="M4.5 12c-0.128 0-0.256-0.049-0.354-0.146-0.195-0.195-0.195-0.512 0-0.707l7-7c0.195-0.195 0.512-0.195 0.707 0s0.195 0.512 0 0.707l-7 7c-0.097 0.097-0.225 0.146-0.353 0.146z" fill="#444444"></path>
<path d="M4.5 16c-2.481 0-4.5-2.019-4.5-4.5s2.019-4.5 4.5-4.5c0.381 0 0.76 0.048 1.126 0.142 0.267 0.069 0.428 0.342 0.359 0.609-0.069 0.269-0.339 0.428-0.609 0.36-0.284-0.074-0.579-0.111-0.876-0.111-1.93 0-3.5 1.57-3.5 3.5s1.57 3.5 3.5 3.5 3.5-1.57 3.5-3.5c0-0.297-0.037-0.593-0.111-0.878-0.069-0.267 0.092-0.54 0.36-0.609 0.266-0.065 0.541 0.092 0.609 0.36 0.094 0.366 0.142 0.746 0.142 1.127 0 2.481-2.019 4.5-4.5 4.5z" fill="#444444"></path>
<path d="M11.5 9c-0.381 0-0.76-0.048-1.126-0.142-0.267-0.069-0.428-0.342-0.359-0.609s0.342-0.427 0.609-0.359c0.284 0.073 0.579 0.11 0.876 0.11 1.93 0 3.5-1.57 3.5-3.5s-1.57-3.5-3.5-3.5-3.5 1.57-3.5 3.5c0 0.297 0.037 0.593 0.111 0.878 0.069 0.267-0.092 0.54-0.36 0.609-0.262 0.070-0.54-0.092-0.609-0.36-0.094-0.366-0.142-0.746-0.142-1.127 0-2.481 2.019-4.5 4.5-4.5s4.5 2.019 4.5 4.5-2.019 4.5-4.5 4.5z" fill="#444444"></path>
</svg>
