<?xml version="1.0" encoding="utf-8"?>
<!-- Generated by IcoMoon.io -->
<!DOCTYPE svg PUBLIC "-//W3C//DTD SVG 1.1//EN" "http://www.w3.org/Graphics/SVG/1.1/DTD/svg11.dtd">
<svg version="1.1" xmlns="http://www.w3.org/2000/svg" xmlns:xlink="http://www.w3.org/1999/xlink" width="16" height="16" viewBox="0 0 16 16">
<path d="M15.5 4h-8c-0.276 0-0.5-0.224-0.5-0.5s0.224-0.5 0.5-0.5h8c0.276 0 0.5 0.224 0.5 0.5s-0.224 0.5-0.5 0.5z" fill="#444444"></path>
<path d="M15.5 10h-7c-0.276 0-0.5-0.224-0.5-0.5s0.224-0.5 0.5-0.5h7c0.276 0 0.5 0.224 0.5 0.5s-0.224 0.5-0.5 0.5z" fill="#444444"></path>
<path d="M15.5 16h-7c-0.276 0-0.5-0.224-0.5-0.5s0.224-0.5 0.5-0.5h7c0.276 0 0.5 0.224 0.5 0.5s-0.224 0.5-0.5 0.5z" fill="#444444"></path>
<path d="M1.5 3.5c-0.276 0-0.5-0.224-0.5-0.5v-1c0-0.276 0.224-0.5 0.5-0.5s0.5 0.224 0.5 0.5v1c0 0.276-0.224 0.5-0.5 0.5z" fill="#444444"></path>
<path d="M1.5 9.5c-0.276 0-0.5-0.224-0.5-0.5v-1c0-0.276 0.224-0.5 0.5-0.5s0.5 0.224 0.5 0.5v1c0 0.276-0.224 0.5-0.5 0.5z" fill="#444444"></path>
<path d="M3.5 9.5c-0.276 0-0.5-0.224-0.5-0.5v-1c0-0.276 0.224-0.5 0.5-0.5s0.5 0.224 0.5 0.5v1c0 0.276-0.224 0.5-0.5 0.5z" fill="#444444"></path>
<path d="M1.5 15.5c-0.276 0-0.5-0.224-0.5-0.5v-1c0-0.276 0.224-0.5 0.5-0.5s0.5 0.224 0.5 0.5v1c0 0.276-0.224 0.5-0.5 0.5z" fill="#444444"></path>
<path d="M3.5 15.5c-0.276 0-0.5-0.224-0.5-0.5v-1c0-0.276 0.224-0.5 0.5-0.5s0.5 0.224 0.5 0.5v1c0 0.276-0.224 0.5-0.5 0.5z" fill="#444444"></path>
<path d="M5.5 15.5c-0.276 0-0.5-0.224-0.5-0.5v-1c0-0.276 0.224-0.5 0.5-0.5s0.5 0.224 0.5 0.5v1c0 0.276-0.224 0.5-0.5 0.5z" fill="#444444"></path>
<path d="M2.5 2h-2c-0.276 0-0.5-0.224-0.5-0.5s0.224-0.5 0.5-0.5h2c0.276 0 0.5 0.224 0.5 0.5s-0.224 0.5-0.5 0.5z" fill="#444444"></path>
<path d="M2.5 4h-2c-0.276 0-0.5-0.224-0.5-0.5s0.224-0.5 0.5-0.5h2c0.276 0 0.5 0.224 0.5 0.5s-0.224 0.5-0.5 0.5z" fill="#444444"></path>
<path d="M4.5 8h-4c-0.276 0-0.5-0.224-0.5-0.5s0.224-0.5 0.5-0.5h4c0.276 0 0.5 0.224 0.5 0.5s-0.224 0.5-0.5 0.5z" fill="#444444"></path>
<path d="M4.5 10h-4c-0.276 0-0.5-0.224-0.5-0.5s0.224-0.5 0.5-0.5h4c0.276 0 0.5 0.224 0.5 0.5s-0.224 0.5-0.5 0.5z" fill="#444444"></path>
<path d="M6.5 14h-6c-0.276 0-0.5-0.224-0.5-0.5s0.224-0.5 0.5-0.5h6c0.276 0 0.5 0.224 0.5 0.5s-0.224 0.5-0.5 0.5z" fill="#444444"></path>
<path d="M6.5 16h-6c-0.276 0-0.5-0.224-0.5-0.5s0.224-0.5 0.5-0.5h6c0.276 0 0.5 0.224 0.5 0.5s-0.224 0.5-0.5 0.5z" fill="#444444"></path>
<path d="M5 3.5c0 0.276-0.224 0.5-0.5 0.5s-0.5-0.224-0.5-0.5c0-0.276 0.224-0.5 0.5-0.5s0.5 0.224 0.5 0.5z" fill="#444444"></path>
<path d="M7 9.5c0 0.276-0.224 0.5-0.5 0.5s-0.5-0.224-0.5-0.5c0-0.276 0.224-0.5 0.5-0.5s0.5 0.224 0.5 0.5z" fill="#444444"></path>
</svg>
