<?xml version="1.0" encoding="utf-8"?>
<!-- Generated by IcoMoon.io -->
<!DOCTYPE svg PUBLIC "-//W3C//DTD SVG 1.1//EN" "http://www.w3.org/Graphics/SVG/1.1/DTD/svg11.dtd">
<svg version="1.1" xmlns="http://www.w3.org/2000/svg" xmlns:xlink="http://www.w3.org/1999/xlink" width="16" height="16" viewBox="0 0 16 16">
<path d="M3.5 8c-0.233 0-0.442-0.164-0.49-0.4-0.031-0.154-0.735-3.758 1.072-5.967 0.886-1.083 2.204-1.633 3.918-1.633s3.032 0.55 3.918 1.633c1.806 2.209 1.103 5.813 1.072 5.967-0.055 0.27-0.322 0.445-0.589 0.391-0.271-0.055-0.446-0.318-0.392-0.589 0.007-0.033 0.639-3.299-0.868-5.138-0.686-0.839-1.743-1.264-3.141-1.264-1.399 0-2.457 0.426-3.145 1.267-1.509 1.844-0.872 5.101-0.865 5.133 0.055 0.272-0.12 0.536-0.391 0.59-0.033 0.007-0.067 0.010-0.099 0.010z" fill="#444444"></path>
<path d="M13.911 16h-11.822c-0.257 0-0.472-0.195-0.498-0.451l-0.788-8c-0.013-0.141 0.032-0.28 0.127-0.385s0.23-0.164 0.371-0.164h13.398c0.141 0 0.276 0.060 0.371 0.164s0.141 0.244 0.127 0.385l-0.788 8c-0.026 0.256-0.241 0.451-0.498 0.451zM2.542 15h10.916l0.689-7h-12.294l0.689 7z" fill="#444444"></path>
<path d="M8 13c-1.103 0-2-0.897-2-2s0.897-2 2-2 2 0.897 2 2-0.897 2-2 2zM8 10c-0.551 0-1 0.448-1 1s0.449 1 1 1 1-0.448 1-1-0.449-1-1-1z" fill="#444444"></path>
</svg>
