<?xml version="1.0" encoding="utf-8"?>
<!-- Generated by IcoMoon.io -->
<!DOCTYPE svg PUBLIC "-//W3C//DTD SVG 1.1//EN" "http://www.w3.org/Graphics/SVG/1.1/DTD/svg11.dtd">
<svg version="1.1" xmlns="http://www.w3.org/2000/svg" xmlns:xlink="http://www.w3.org/1999/xlink" width="16" height="16" viewBox="0 0 16 16">
<path d="M7.5 16c-2.956 0-5.66-1.622-7.057-4.232-0.094-0.176-0.075-0.391 0.049-0.547s0.327-0.221 0.521-0.173c3.786 1.009 7.237-1.893 7.237-5.548 0-1.768-0.8-3.412-2.194-4.513-0.157-0.123-0.225-0.328-0.174-0.52s0.211-0.336 0.408-0.366c0.443-0.068 0.838-0.101 1.21-0.101 4.411 0 8 3.589 8 8s-3.589 8-8 8zM1.918 12.224c1.312 1.734 3.367 2.776 5.582 2.776 3.86 0 7-3.141 7-7 0-3.851-3.125-6.985-6.973-7 1.106 1.229 1.723 2.817 1.723 4.5 0 3.914-3.352 7.084-7.332 6.724z" fill="#444444"></path>
</svg>
