<?xml version="1.0" encoding="utf-8"?>
<!-- Generated by IcoMoon.io -->
<!DOCTYPE svg PUBLIC "-//W3C//DTD SVG 1.1//EN" "http://www.w3.org/Graphics/SVG/1.1/DTD/svg11.dtd">
<svg version="1.1" xmlns="http://www.w3.org/2000/svg" xmlns:xlink="http://www.w3.org/1999/xlink" width="16" height="16" viewBox="0 0 16 16">
<path d="M13.5 16h-13c-0.276 0-0.5-0.224-0.5-0.5v-13c0-0.276 0.224-0.5 0.5-0.5h10c0.276 0 0.5 0.224 0.5 0.5s-0.224 0.5-0.5 0.5h-9.5v12h12v-9.5c0-0.276 0.224-0.5 0.5-0.5s0.5 0.224 0.5 0.5v10c0 0.276-0.224 0.5-0.5 0.5z" fill="#444444"></path>
<path d="M15.5 6c-0.276 0-0.5-0.224-0.5-0.5v-4.5h-4.5c-0.276 0-0.5-0.224-0.5-0.5s0.224-0.5 0.5-0.5h5c0.276 0 0.5 0.224 0.5 0.5v5c0 0.276-0.224 0.5-0.5 0.5z" fill="#444444"></path>
<path d="M6.5 10c-0.128 0-0.256-0.049-0.354-0.146-0.195-0.195-0.195-0.512 0-0.707l9-9c0.195-0.195 0.512-0.195 0.707 0s0.195 0.512 0 0.707l-9 9c-0.097 0.097-0.225 0.146-0.353 0.146z" fill="#444444"></path>
</svg>
