<?xml version="1.0" encoding="utf-8"?>
<!-- Generated by IcoMoon.io -->
<!DOCTYPE svg PUBLIC "-//W3C//DTD SVG 1.1//EN" "http://www.w3.org/Graphics/SVG/1.1/DTD/svg11.dtd">
<svg version="1.1" xmlns="http://www.w3.org/2000/svg" xmlns:xlink="http://www.w3.org/1999/xlink" width="16" height="16" viewBox="0 0 16 16">
<path d="M15.5 16h-10.792c-0.14 0-0.273-0.059-0.368-0.161-0.094-0.103-0.142-0.241-0.13-0.38 0.124-1.519-0.076-3.337-0.53-3.497-0.221-0.078-0.48 0.117-0.762 0.308-0.328 0.224-0.701 0.478-1.155 0.481-0.962 0-1.706-0.885-1.706-2.015 0-1.124 0.725-2.003 1.649-2.003 0.415 0.003 0.769 0.166 1.081 0.31 0.34 0.155 0.646 0.29 0.921 0.199 0.256-0.086 0.46-0.299 0.606-0.634 0.246-0.56 0.242-1.309 0.083-1.659-0.328-0.729-0.762-1.426-0.766-1.432-0.095-0.151-0.102-0.342-0.018-0.5s0.245-0.259 0.424-0.265l0.143-0.002 0.361 0.001c2.888 0 3.23-0.578 3.27-0.694 0.092-0.27-0.009-0.523-0.179-0.915-0.134-0.306-0.286-0.654-0.289-1.050-0.003-0.422 0.166-0.826 0.474-1.137 0.76-0.763 2.291-0.751 3.035-0.001 0.295 0.297 0.455 0.682 0.452 1.082-0.004 0.405-0.163 0.761-0.304 1.075-0.18 0.402-0.285 0.664-0.195 0.945 0.242 0.747 1.504 0.944 2.137 0.944h2.26c0.252 0 0.465 0.188 0.496 0.438 0.022 0.174 0.512 4.28-1.859 4.861-0.588 0.141-1.21-0.098-1.707-0.318-0.284-0.126-0.553-0.246-0.751-0.248-0.363 0-0.557 0.517-0.557 1.003 0 0.255 0.108 0.518 0.298 0.72 0.174 0.185 0.395 0.295 0.591 0.295 0.198-0.001 0.497-0.107 0.786-0.21 0.574-0.203 1.3-0.41 1.865-0.211 1.633 0.575 1.641 3.765 1.636 4.126-0.004 0.274-0.227 0.544-0.5 0.544zM5.239 15h9.752c-0.055-1.13-0.353-2.513-0.959-2.727-0.285-0.1-0.758 0.054-1.199 0.211-0.367 0.13-0.746 0.264-1.108 0.267-0.486 0-0.967-0.223-1.332-0.612-0.361-0.385-0.568-0.897-0.568-1.403 0-1.161 0.653-2.003 1.553-2.003 0.419 0.004 0.796 0.171 1.161 0.333 0.394 0.174 0.769 0.336 1.063 0.261 1.082-0.265 1.201-2.233 1.142-3.327h-1.802c-0.428 0-2.586-0.079-3.088-1.638-0.213-0.66 0.035-1.214 0.233-1.659 0.11-0.247 0.215-0.48 0.217-0.676 0.001-0.134-0.054-0.259-0.162-0.369-0.365-0.367-1.24-0.377-1.615 0.002-0.124 0.124-0.185 0.267-0.184 0.424 0.002 0.191 0.101 0.418 0.205 0.658 0.191 0.439 0.431 0.986 0.21 1.636-0.386 1.137-2.284 1.345-3.841 1.37 0.127 0.237 0.266 0.509 0.393 0.79 0.295 0.654 0.262 1.693-0.079 2.47-0.261 0.597-0.678 1.005-1.206 1.181-0.581 0.195-1.193-0.027-1.654-0.238-0.244-0.111-0.474-0.217-0.661-0.218-0.356 0-0.653 0.459-0.653 1.003 0 0.56 0.312 1.015 0.693 1.015 0.155-0.001 0.384-0.157 0.605-0.308 0.447-0.305 1.049-0.64 1.656-0.425 1.205 0.425 1.28 2.731 1.228 3.982z" fill="#444444"></path>
</svg>
