<?xml version="1.0" encoding="utf-8"?>
<!-- Generated by IcoMoon.io -->
<!DOCTYPE svg PUBLIC "-//W3C//DTD SVG 1.1//EN" "http://www.w3.org/Graphics/SVG/1.1/DTD/svg11.dtd">
<svg version="1.1" xmlns="http://www.w3.org/2000/svg" xmlns:xlink="http://www.w3.org/1999/xlink" width="16" height="16" viewBox="0 0 16 16">
<path d="M10.5 11h-4c-0.276 0-0.5-0.224-0.5-0.5v-3c0-0.276 0.224-0.5 0.5-0.5h1.691l1.5-3h-2.691v1.5c0 0.276-0.224 0.5-0.5 0.5h-3c-0.276 0-0.5-0.224-0.5-0.5v-5c0-0.276 0.224-0.5 0.5-0.5h10c0.244 0 0.453 0.177 0.493 0.418l0.5 3c0.018 0.104 0.001 0.211-0.046 0.306l-3.5 7c-0.085 0.169-0.258 0.276-0.447 0.276zM7 10h3.191l3.289-6.578-0.404-2.422h-9.076v4h2v-1.5c0-0.276 0.224-0.5 0.5-0.5h4c0.173 0 0.334 0.090 0.426 0.237 0.091 0.147 0.099 0.332 0.021 0.486l-2 4c-0.085 0.17-0.258 0.277-0.447 0.277h-1.5v2z" fill="#444444"></path>
<path d="M10.5 16h-4c-0.276 0-0.5-0.224-0.5-0.5v-3c0-0.276 0.224-0.5 0.5-0.5h4c0.276 0 0.5 0.224 0.5 0.5v3c0 0.276-0.224 0.5-0.5 0.5zM7 15h3v-2h-3v2z" fill="#444444"></path>
</svg>
