<?xml version="1.0" encoding="utf-8"?>
<!-- Generated by IcoMoon.io -->
<!DOCTYPE svg PUBLIC "-//W3C//DTD SVG 1.1//EN" "http://www.w3.org/Graphics/SVG/1.1/DTD/svg11.dtd">
<svg version="1.1" xmlns="http://www.w3.org/2000/svg" xmlns:xlink="http://www.w3.org/1999/xlink" width="16" height="16" viewBox="0 0 16 16">
<path d="M14.5 5h-4c-0.276 0-0.5-0.224-0.5-0.5s0.224-0.5 0.5-0.5h3.5v-3.5c0-0.276 0.224-0.5 0.5-0.5s0.5 0.224 0.5 0.5v4c0 0.276-0.224 0.5-0.5 0.5z" fill="#444444"></path>
<path d="M8 16c-4.411 0-8-3.589-8-8s3.589-8 8-8c2.659 0 4.88 1.289 6.422 3.729 0.148 0.233 0.078 0.543-0.155 0.69-0.233 0.146-0.542 0.078-0.689-0.155-0.942-1.49-2.674-3.264-5.578-3.264-3.86 0-7 3.141-7 7s3.14 7 7 7 7-3.141 7-7c0-0.276 0.224-0.5 0.5-0.5s0.5 0.224 0.5 0.5c0 4.411-3.589 8-8 8z" fill="#444444"></path>
</svg>
