<?xml version="1.0" encoding="utf-8"?>
<!-- Generated by IcoMoon.io -->
<!DOCTYPE svg PUBLIC "-//W3C//DTD SVG 1.1//EN" "http://www.w3.org/Graphics/SVG/1.1/DTD/svg11.dtd">
<svg version="1.1" xmlns="http://www.w3.org/2000/svg" xmlns:xlink="http://www.w3.org/1999/xlink" width="16" height="16" viewBox="0 0 16 16">
<path d="M4.5 14c-0.128 0-0.256-0.049-0.354-0.146-0.195-0.195-0.195-0.512 0-0.707l3.992-3.992c0.005-0.005 0.011-0.011 0.016-0.016l6.992-6.992c0.137-0.136 0.339-0.181 0.52-0.118 0.182 0.064 0.31 0.226 0.331 0.417 0.018 0.157 0.393 3.872-2.144 6.408-2.091 2.093-4.377 1.554-5.237 1.237l-3.763 3.763c-0.097 0.097-0.225 0.146-0.353 0.146zM9.409 9.298c0.836 0.204 2.317 0.269 3.737-1.151 1.39-1.39 1.765-3.252 1.853-4.438l-5.59 5.589z" fill="#444444"></path>
<path d="M2.5 16c-1.379 0-2.5-1.122-2.5-2.5s1.121-2.5 2.5-2.5 2.5 1.122 2.5 2.5-1.121 2.5-2.5 2.5zM2.5 12c-0.827 0-1.5 0.673-1.5 1.5s0.673 1.5 1.5 1.5 1.5-0.673 1.5-1.5-0.673-1.5-1.5-1.5z" fill="#444444"></path>
<path d="M11.524 14c-0.128 0-0.256-0.049-0.354-0.146l-3.762-3.764c-0.859 0.317-3.145 0.856-5.237-1.237-2.536-2.536-2.161-6.25-2.144-6.408 0.021-0.191 0.149-0.353 0.331-0.417 0.183-0.063 0.383-0.018 0.52 0.118l6.992 6.992c0.005 0.005 0.011 0.011 0.016 0.016l3.992 3.992c0.195 0.195 0.195 0.512 0 0.707-0.098 0.098-0.226 0.147-0.354 0.147zM1.025 3.708c0.088 1.186 0.463 3.048 1.853 4.438 1.411 1.411 2.897 1.347 3.734 1.148l-5.587-5.586z" fill="#444444"></path>
<path d="M13.524 16c-1.379 0-2.5-1.122-2.5-2.5s1.121-2.5 2.5-2.5 2.5 1.122 2.5 2.5-1.121 2.5-2.5 2.5zM13.524 12c-0.827 0-1.5 0.673-1.5 1.5s0.673 1.5 1.5 1.5 1.5-0.673 1.5-1.5-0.672-1.5-1.5-1.5z" fill="#444444"></path>
</svg>
