<?xml version="1.0" encoding="utf-8"?>
<!-- Generated by IcoMoon.io -->
<!DOCTYPE svg PUBLIC "-//W3C//DTD SVG 1.1//EN" "http://www.w3.org/Graphics/SVG/1.1/DTD/svg11.dtd">
<svg version="1.1" xmlns="http://www.w3.org/2000/svg" xmlns:xlink="http://www.w3.org/1999/xlink" width="16" height="16" viewBox="0 0 16 16">
<path d="M6.539 8c-0.005 0-0.013 0-0.019 0h-2.988c-0.276 0-0.5-0.224-0.5-0.5 0-0.357 0.056-3.487 1.994-3.487 1.771 0 1.97 2.619 1.991 3.339 0.014 0.046 0.022 0.096 0.022 0.148 0 0.276-0.224 0.5-0.5 0.5zM4.059 7h1.936c-0.080-0.854-0.354-1.987-0.969-1.987-0.608 0-0.886 1.144-0.967 1.987z" fill="#444444"></path>
<path d="M12.513 8c-0.005 0-0.013 0-0.020 0h-2.986c-0.276 0-0.5-0.224-0.5-0.5 0-0.357 0.056-3.487 1.993-3.487 1.771 0 1.97 2.619 1.991 3.339 0.014 0.047 0.021 0.097 0.021 0.148 0.001 0.276-0.223 0.5-0.499 0.5zM10.032 7h1.936c-0.079-0.854-0.354-1.987-0.968-1.987s-0.889 1.133-0.968 1.987z" fill="#444444"></path>
<path d="M12.5 16h-9c-0.276 0-0.5-0.224-0.5-0.5v-3.5h-2.5c-0.276 0-0.5-0.224-0.5-0.5v-11c0-0.276 0.224-0.5 0.5-0.5h15c0.276 0 0.5 0.224 0.5 0.5v11c0 0.276-0.224 0.5-0.5 0.5h-2.5v3.5c0 0.276-0.224 0.5-0.5 0.5zM4 15h8v-3.5c0-0.276 0.224-0.5 0.5-0.5h2.5v-10h-14v10h2.5c0.276 0 0.5 0.224 0.5 0.5v3.5z" fill="#444444"></path>
<path d="M10.5 12h-5c-0.276 0-0.5-0.224-0.5-0.5s0.224-0.5 0.5-0.5h5c0.276 0 0.5 0.224 0.5 0.5s-0.224 0.5-0.5 0.5z" fill="#444444"></path>
</svg>
