<?xml version="1.0" encoding="utf-8"?>
<!-- Generated by IcoMoon.io -->
<!DOCTYPE svg PUBLIC "-//W3C//DTD SVG 1.1//EN" "http://www.w3.org/Graphics/SVG/1.1/DTD/svg11.dtd">
<svg version="1.1" xmlns="http://www.w3.org/2000/svg" xmlns:xlink="http://www.w3.org/1999/xlink" width="16" height="16" viewBox="0 0 16 16">
<path d="M10.5 11c-0.128 0-0.256-0.049-0.354-0.146l-5-5c-0.195-0.195-0.195-0.512 0-0.707s0.512-0.195 0.707 0l5 5c0.195 0.195 0.195 0.512 0 0.707-0.097 0.097-0.225 0.146-0.353 0.146z" fill="#444444"></path>
<path d="M5.5 11c-0.128 0-0.256-0.049-0.354-0.146-0.195-0.195-0.195-0.512 0-0.707l5-5c0.195-0.195 0.512-0.195 0.707 0s0.195 0.512 0 0.707l-5 5c-0.097 0.097-0.225 0.146-0.353 0.146z" fill="#444444"></path>
<path d="M15.5 16h-15c-0.276 0-0.5-0.224-0.5-0.5v-15c0-0.276 0.224-0.5 0.5-0.5h15c0.276 0 0.5 0.224 0.5 0.5v15c0 0.276-0.224 0.5-0.5 0.5zM1 15h14v-14h-14v14z" fill="#444444"></path>
</svg>
