<?xml version="1.0" encoding="utf-8"?>
<!-- Generated by IcoMoon.io -->
<!DOCTYPE svg PUBLIC "-//W3C//DTD SVG 1.1//EN" "http://www.w3.org/Graphics/SVG/1.1/DTD/svg11.dtd">
<svg version="1.1" xmlns="http://www.w3.org/2000/svg" xmlns:xlink="http://www.w3.org/1999/xlink" width="16" height="16" viewBox="0 0 16 16">
<path d="M7.914 15.965c-0.342 0-0.687-0.024-1.029-0.073-2.116-0.304-3.762-1.532-4.515-3.369-0.104-0.256 0.018-0.548 0.273-0.652 0.253-0.102 0.548 0.018 0.652 0.273 0.842 2.055 2.699 2.61 3.731 2.758 1.962 0.287 4.052-0.423 5.082-1.713 0.594-0.744 0.614-1.787 0.047-2.325-0.2-0.19-0.209-0.507-0.020-0.707s0.507-0.208 0.707-0.020c0.952 0.902 0.973 2.517 0.047 3.675-1.074 1.346-2.988 2.153-4.975 2.153z" fill="#444444"></path>
<path d="M5.5 7c-0.082 0-0.165-0.021-0.242-0.062-1.595-0.882-2.342-2.385-1.949-3.923 0.464-1.821 2.305-3.004 4.689-3.015 0.013 0 0.026 0 0.039 0 1.604 0 2.858 0.472 3.727 1.401 1.377 1.475 1.241 3.548 1.235 3.636-0.021 0.275-0.288 0.482-0.534 0.461-0.275-0.020-0.482-0.259-0.464-0.533 0.001-0.018 0.105-1.737-0.974-2.887-0.677-0.723-1.735-1.066-3.025-1.078-2.325 0.011-3.46 1.226-3.725 2.263-0.279 1.092 0.269 2.139 1.465 2.8 0.241 0.133 0.329 0.437 0.196 0.679-0.091 0.165-0.262 0.258-0.438 0.258z" fill="#444444"></path>
<path d="M14.5 9h-13c-0.276 0-0.5-0.224-0.5-0.5s0.224-0.5 0.5-0.5h13c0.276 0 0.5 0.224 0.5 0.5s-0.224 0.5-0.5 0.5z" fill="#444444"></path>
</svg>
