<?xml version="1.0" encoding="utf-8"?>
<!-- Generated by IcoMoon.io -->
<!DOCTYPE svg PUBLIC "-//W3C//DTD SVG 1.1//EN" "http://www.w3.org/Graphics/SVG/1.1/DTD/svg11.dtd">
<svg version="1.1" xmlns="http://www.w3.org/2000/svg" xmlns:xlink="http://www.w3.org/1999/xlink" width="16" height="16" viewBox="0 0 16 16">
<path d="M9.5 10c-0.128 0-0.256-0.049-0.354-0.146l-9-9c-0.195-0.195-0.195-0.512 0-0.707s0.512-0.195 0.707 0l9 9c0.195 0.195 0.195 0.512 0 0.707-0.097 0.097-0.225 0.146-0.353 0.146z" fill="#444444"></path>
<path d="M0.5 10c-0.128 0-0.256-0.049-0.354-0.146-0.195-0.195-0.195-0.512 0-0.707l9-9c0.195-0.195 0.512-0.195 0.707 0s0.195 0.512 0 0.707l-9 9c-0.097 0.097-0.225 0.146-0.353 0.146z" fill="#444444"></path>
<path d="M15.5 16h-4c-0.241 0-0.447-0.171-0.491-0.408s0.085-0.471 0.31-0.558c2.438-0.949 3.317-2.148 3.328-2.954 0.005-0.426-0.229-0.778-0.625-0.944-0.497-0.211-1.328-0.129-2.166 0.716-0.195 0.195-0.511 0.199-0.707 0.004s-0.198-0.511-0.004-0.707c1.188-1.2 2.463-1.271 3.263-0.936 0.775 0.324 1.25 1.045 1.239 1.88-0.007 0.548-0.253 1.749-2.032 2.907h1.885c0.276 0 0.5 0.224 0.5 0.5s-0.224 0.5-0.5 0.5z" fill="#444444"></path>
</svg>
