<?xml version="1.0" encoding="utf-8"?>
<!-- Generated by IcoMoon.io -->
<!DOCTYPE svg PUBLIC "-//W3C//DTD SVG 1.1//EN" "http://www.w3.org/Graphics/SVG/1.1/DTD/svg11.dtd">
<svg version="1.1" xmlns="http://www.w3.org/2000/svg" xmlns:xlink="http://www.w3.org/1999/xlink" width="16" height="16" viewBox="0 0 16 16">
<path d="M8.5 10c-1.378 0-2.5-1.121-2.5-2.5s1.122-2.5 2.5-2.5 2.5 1.121 2.5 2.5-1.122 2.5-2.5 2.5zM8.5 6c-0.827 0-1.5 0.673-1.5 1.5s0.673 1.5 1.5 1.5 1.5-0.673 1.5-1.5-0.673-1.5-1.5-1.5z" fill="#444444"></path>
<path d="M8.5 3c-0.276 0-0.5-0.224-0.5-0.5v-2c0-0.276 0.224-0.5 0.5-0.5s0.5 0.224 0.5 0.5v2c0 0.276-0.224 0.5-0.5 0.5z" fill="#444444"></path>
<path d="M8.5 15c-0.276 0-0.5-0.224-0.5-0.5v-2c0-0.276 0.224-0.5 0.5-0.5s0.5 0.224 0.5 0.5v2c0 0.276-0.224 0.5-0.5 0.5z" fill="#444444"></path>
<path d="M15.5 8h-2c-0.276 0-0.5-0.224-0.5-0.5s0.224-0.5 0.5-0.5h2c0.276 0 0.5 0.224 0.5 0.5s-0.224 0.5-0.5 0.5z" fill="#444444"></path>
<path d="M3.5 8h-2c-0.276 0-0.5-0.224-0.5-0.5s0.224-0.5 0.5-0.5h2c0.276 0 0.5 0.224 0.5 0.5s-0.224 0.5-0.5 0.5z" fill="#444444"></path>
<path d="M4.964 4.465c-0.128 0-0.256-0.049-0.354-0.146l-1.413-1.416c-0.195-0.195-0.195-0.512 0-0.707s0.512-0.195 0.707 0l1.414 1.415c0.195 0.195 0.195 0.512 0 0.707-0.098 0.098-0.226 0.147-0.354 0.147z" fill="#444444"></path>
<path d="M13.45 12.95c-0.128 0-0.256-0.049-0.354-0.146l-1.414-1.415c-0.195-0.195-0.195-0.512 0-0.707s0.512-0.195 0.707 0l1.414 1.415c0.195 0.195 0.195 0.512 0 0.707-0.097 0.097-0.225 0.146-0.353 0.146z" fill="#444444"></path>
<path d="M12.036 4.465c-0.128 0-0.256-0.049-0.354-0.146-0.195-0.195-0.195-0.512 0-0.707l1.414-1.415c0.195-0.195 0.512-0.195 0.707 0s0.195 0.512 0 0.707l-1.414 1.415c-0.097 0.097-0.225 0.146-0.353 0.146z" fill="#444444"></path>
<path d="M3.55 12.95c-0.128 0-0.256-0.049-0.354-0.146-0.195-0.195-0.195-0.512 0-0.707l1.414-1.415c0.195-0.195 0.512-0.195 0.707 0s0.195 0.512 0 0.707l-1.414 1.415c-0.097 0.097-0.225 0.146-0.353 0.146z" fill="#444444"></path>
</svg>
