<?xml version="1.0" encoding="utf-8"?>
<!-- Generated by IcoMoon.io -->
<!DOCTYPE svg PUBLIC "-//W3C//DTD SVG 1.1//EN" "http://www.w3.org/Graphics/SVG/1.1/DTD/svg11.dtd">
<svg version="1.1" xmlns="http://www.w3.org/2000/svg" xmlns:xlink="http://www.w3.org/1999/xlink" width="16" height="16" viewBox="0 0 16 16">
<path d="M14.5 16h-13c-0.276 0-0.5-0.224-0.5-0.5s0.224-0.5 0.5-0.5h13c0.276 0 0.5 0.224 0.5 0.5s-0.224 0.5-0.5 0.5z" fill="#444444"></path>
<path d="M8 13c-3.309 0-6-2.65-6-5.907v-6.093c0-0.276 0.224-0.5 0.5-0.5s0.5 0.224 0.5 0.5v6.093c0 2.706 2.243 4.907 5 4.907s5-2.201 5-4.907v-6.093c0-0.276 0.224-0.5 0.5-0.5s0.5 0.224 0.5 0.5v6.093c0 3.257-2.691 5.907-6 5.907z" fill="#444444"></path>
<path d="M4.5 1h-4c-0.276 0-0.5-0.224-0.5-0.5s0.224-0.5 0.5-0.5h4c0.276 0 0.5 0.224 0.5 0.5s-0.224 0.5-0.5 0.5z" fill="#444444"></path>
<path d="M15.5 1h-4c-0.276 0-0.5-0.224-0.5-0.5s0.224-0.5 0.5-0.5h4c0.276 0 0.5 0.224 0.5 0.5s-0.224 0.5-0.5 0.5z" fill="#444444"></path>
</svg>
