<?xml version="1.0" encoding="utf-8"?>
<!-- Generated by IcoMoon.io -->
<!DOCTYPE svg PUBLIC "-//W3C//DTD SVG 1.1//EN" "http://www.w3.org/Graphics/SVG/1.1/DTD/svg11.dtd">
<svg version="1.1" xmlns="http://www.w3.org/2000/svg" xmlns:xlink="http://www.w3.org/1999/xlink" width="16" height="16" viewBox="0 0 16 16">
<path d="M10.301 11c-0.168 0-0.332-0.084-0.426-0.237-0.145-0.235-0.072-0.543 0.163-0.688 1.394-0.86 1.962-2.072 1.962-4.183 0-2.754-1.724-4.832-4.010-4.832-2.312 0.001-3.99 2.014-3.99 4.788 0 2.151 0.563 3.376 1.942 4.227 0.235 0.145 0.308 0.453 0.163 0.688-0.146 0.234-0.454 0.307-0.688 0.163-1.694-1.045-2.417-2.564-2.417-5.078 0-3.299 2.146-5.787 4.99-5.787 2.856 0 5.010 2.507 5.010 5.832 0 2.475-0.729 3.98-2.437 5.034-0.082 0.049-0.172 0.073-0.262 0.073z" fill="#444444"></path>
<path d="M0.5 16c-0.276 0-0.5-0.224-0.5-0.5v-2.5c0-1.654 1.346-3 3-3h2.68c0.276 0 0.5 0.224 0.5 0.5s-0.224 0.5-0.5 0.5h-2.68c-1.103 0-2 0.897-2 2v2.5c0 0.276-0.224 0.5-0.5 0.5z" fill="#444444"></path>
<path d="M15.5 16c-0.276 0-0.5-0.224-0.5-0.5v-2.5c0-1.103-0.897-2-2-2h-2.699c-0.276 0-0.5-0.224-0.5-0.5s0.224-0.5 0.5-0.5h2.699c1.654 0 3 1.346 3 3v2.5c0 0.276-0.224 0.5-0.5 0.5z" fill="#444444"></path>
</svg>
