<?xml version="1.0" encoding="utf-8"?>
<!-- Generated by IcoMoon.io -->
<!DOCTYPE svg PUBLIC "-//W3C//DTD SVG 1.1//EN" "http://www.w3.org/Graphics/SVG/1.1/DTD/svg11.dtd">
<svg version="1.1" xmlns="http://www.w3.org/2000/svg" xmlns:xlink="http://www.w3.org/1999/xlink" width="16" height="16" viewBox="0 0 16 16">
<path d="M10.5 11h-4c-0.257 0-0.472-0.194-0.497-0.45l-1-10c-0.015-0.141 0.031-0.28 0.126-0.386 0.095-0.104 0.229-0.164 0.371-0.164h6c0.142 0 0.276 0.060 0.371 0.164 0.095 0.105 0.141 0.245 0.126 0.386l-1 10c-0.025 0.256-0.24 0.45-0.497 0.45zM6.952 10h3.096l0.899-9h-4.894l0.899 9z" fill="#444444"></path>
<path d="M10.5 16h-4c-0.276 0-0.5-0.224-0.5-0.5v-3c0-0.276 0.224-0.5 0.5-0.5h4c0.276 0 0.5 0.224 0.5 0.5v3c0 0.276-0.224 0.5-0.5 0.5zM7 15h3v-2h-3v2z" fill="#444444"></path>
</svg>
