<svg display="none" width="0" height="0" version="1.1" xmlns="http://www.w3.org/2000/svg" xmlns:xlink="http://www.w3.org/1999/xlink">
<defs>
<symbol id="icon-s_align-center" viewBox="0 0 1024 1024">
	<title>s_align-center</title>
	<path class="path1" d="M992 192h-960c-17.664 0-32-14.336-32-32s14.336-32 32-32h960c17.664 0 32 14.336 32 32s-14.336 32-32 32z"></path>
	<path class="path2" d="M992 960h-960c-17.664 0-32-14.336-32-32s14.336-32 32-32h960c17.664 0 32 14.336 32 32s-14.336 32-32 32z"></path>
	<path class="path3" d="M864 384h-704c-17.664 0-32-14.336-32-32s14.336-32 32-32h704c17.664 0 32 14.336 32 32s-14.336 32-32 32z"></path>
	<path class="path4" d="M992 576h-960c-17.664 0-32-14.336-32-32s14.336-32 32-32h960c17.664 0 32 14.336 32 32s-14.336 32-32 32z"></path>
	<path class="path5" d="M864 768h-704c-17.664 0-32-14.336-32-32s14.336-32 32-32h704c17.664 0 32 14.336 32 32s-14.336 32-32 32z"></path>
</symbol>
<symbol id="icon-s_align-justify" viewBox="0 0 1024 1024">
	<title>s_align-justify</title>
	<path class="path1" d="M992 192h-960c-17.664 0-32-14.336-32-32s14.336-32 32-32h960c17.664 0 32 14.336 32 32s-14.336 32-32 32z"></path>
	<path class="path2" d="M992 960h-960c-17.664 0-32-14.336-32-32s14.336-32 32-32h960c17.664 0 32 14.336 32 32s-14.336 32-32 32z"></path>
	<path class="path3" d="M992 384h-960c-17.664 0-32-14.336-32-32s14.336-32 32-32h960c17.664 0 32 14.336 32 32s-14.336 32-32 32z"></path>
	<path class="path4" d="M992 576h-960c-17.664 0-32-14.336-32-32s14.336-32 32-32h960c17.664 0 32 14.336 32 32s-14.336 32-32 32z"></path>
	<path class="path5" d="M992 768h-960c-17.664 0-32-14.336-32-32s14.336-32 32-32h960c17.664 0 32 14.336 32 32s-14.336 32-32 32z"></path>
</symbol>
<symbol id="icon-s_align-left" viewBox="0 0 1024 1024">
	<title>s_align-left</title>
	<path class="path1" d="M992 192h-960c-17.664 0-32-14.336-32-32s14.336-32 32-32h960c17.664 0 32 14.336 32 32s-14.336 32-32 32z"></path>
	<path class="path2" d="M992 960h-960c-17.664 0-32-14.336-32-32s14.336-32 32-32h960c17.664 0 32 14.336 32 32s-14.336 32-32 32z"></path>
	<path class="path3" d="M672 384h-640c-17.664 0-32-14.336-32-32s14.336-32 32-32h640c17.664 0 32 14.336 32 32s-14.336 32-32 32z"></path>
	<path class="path4" d="M992 576h-960c-17.664 0-32-14.336-32-32s14.336-32 32-32h960c17.664 0 32 14.336 32 32s-14.336 32-32 32z"></path>
	<path class="path5" d="M672 768h-640c-17.664 0-32-14.336-32-32s14.336-32 32-32h640c17.664 0 32 14.336 32 32s-14.336 32-32 32z"></path>
</symbol>
<symbol id="icon-s_align-right" viewBox="0 0 1024 1024">
	<title>s_align-right</title>
	<path class="path1" d="M992 192h-960c-17.664 0-32-14.336-32-32s14.336-32 32-32h960c17.664 0 32 14.336 32 32s-14.336 32-32 32z"></path>
	<path class="path2" d="M992 960h-960c-17.664 0-32-14.336-32-32s14.336-32 32-32h960c17.664 0 32 14.336 32 32s-14.336 32-32 32z"></path>
	<path class="path3" d="M992 384h-640c-17.664 0-32-14.336-32-32s14.336-32 32-32h640c17.664 0 32 14.336 32 32s-14.336 32-32 32z"></path>
	<path class="path4" d="M992 576h-960c-17.664 0-32-14.336-32-32s14.336-32 32-32h960c17.664 0 32 14.336 32 32s-14.336 32-32 32z"></path>
	<path class="path5" d="M992 768h-640c-17.664 0-32-14.336-32-32s14.336-32 32-32h640c17.664 0 32 14.336 32 32s-14.336 32-32 32z"></path>
</symbol>
<symbol id="icon-s_arrow-down" viewBox="0 0 1024 1024">
	<title>s_arrow-down</title>
	<path class="path1" d="M480 1024c-17.664 0-32-14.336-32-32v-960c0-17.664 14.336-32 32-32s32 14.336 32 32v960c0 17.664-14.336 32-32 32z"></path>
	<path class="path2" d="M480 1024c-8.192 0-16.384-3.136-22.656-9.344l-256-256c-12.48-12.48-12.48-32.768 0-45.248s32.768-12.48 45.248 0l233.408 233.344 233.344-233.344c12.48-12.48 32.768-12.48 45.248 0s12.48 32.768 0 45.248l-256 256c-6.208 6.208-14.4 9.344-22.592 9.344z"></path>
</symbol>
<symbol id="icon-s_arrow-left" viewBox="0 0 1024 1024">
	<title>s_arrow-left</title>
	<path class="path1" d="M992 512h-960c-17.664 0-32-14.336-32-32s14.336-32 32-32h960c17.664 0 32 14.336 32 32s-14.336 32-32 32z"></path>
	<path class="path2" d="M288 768c-8.192 0-16.384-3.136-22.656-9.344l-256-256c-12.48-12.48-12.48-32.768 0-45.248l256-256c12.48-12.48 32.768-12.48 45.248 0s12.48 32.768 0 45.248l-233.344 233.344 233.344 233.344c12.48 12.48 12.48 32.768 0 45.248-6.208 6.272-14.4 9.408-22.592 9.408z"></path>
</symbol>
<symbol id="icon-s_arrow-right" viewBox="0 0 1024 1024">
	<title>s_arrow-right</title>
	<path class="path1" d="M992 512h-960c-17.664 0-32-14.336-32-32s14.336-32 32-32h960c17.664 0 32 14.336 32 32s-14.336 32-32 32z"></path>
	<path class="path2" d="M736 768c-8.192 0-16.384-3.136-22.656-9.344-12.48-12.48-12.48-32.768 0-45.248l233.408-233.408-233.344-233.344c-12.48-12.48-12.48-32.768 0-45.248s32.768-12.48 45.248 0l256 256c12.48 12.48 12.48 32.768 0 45.248l-256 256c-6.272 6.208-14.464 9.344-22.656 9.344z"></path>
</symbol>
<symbol id="icon-s_arrow-up" viewBox="0 0 1024 1024">
	<title>s_arrow-up</title>
	<path class="path1" d="M480 1024c-17.664 0-32-14.336-32-32v-960c0-17.664 14.336-32 32-32s32 14.336 32 32v960c0 17.664-14.336 32-32 32z"></path>
	<path class="path2" d="M736 320c-8.192 0-16.384-3.136-22.656-9.344l-233.344-233.408-233.344 233.408c-12.48 12.48-32.768 12.48-45.248 0s-12.48-32.768 0-45.248l256-256c12.48-12.48 32.768-12.48 45.248 0l256 256c12.48 12.48 12.48 32.768 0 45.248-6.272 6.208-14.464 9.344-22.656 9.344z"></path>
</symbol>
<symbol id="icon-s_bell" viewBox="0 0 1024 1024">
	<title>s_bell</title>
	<path class="path1" d="M992 832h-960c-17.664 0-32-14.336-32-32s14.336-32 32-32c91.904 0 102.656-62.656 106.432-216.32 4.48-178.816 10.56-423.68 373.568-423.68 361.344 0 366.464 243.264 370.112 420.864 3.264 155.712 14.080 219.136 109.888 219.136 17.664 0 32 14.336 32 32s-14.336 32-32 32zM163.968 768h693.248c-35.648-55.872-37.376-139.904-39.040-217.792-3.84-184.192-7.488-358.208-306.176-358.208-300.608 0-304.96 175.488-309.568 361.28-1.92 76.736-3.968 159.488-38.464 214.72z"></path>
	<path class="path2" d="M608 192c-17.664 0-32-14.336-32-32v-96h-128v96c0 17.664-14.336 32-32 32s-32-14.336-32-32v-128c0-17.664 14.336-32 32-32h192c17.664 0 32 14.336 32 32v128c0 17.664-14.336 32-32 32z"></path>
	<path class="path3" d="M512 1024c-105.856 0-192-86.144-192-192 0-13.184 1.344-25.92 3.84-38.336 3.008-14.976 16.192-25.664 31.36-25.664h313.536c15.232 0 28.352 10.688 31.36 25.664 2.56 12.416 3.904 25.152 3.904 38.336 0 105.856-86.144 192-192 192zM384 832c0 70.592 57.408 128 128 128s128-57.408 128-128h-256z"></path>
</symbol>
<symbol id="icon-s_bold" viewBox="0 0 1024 1024">
	<title>s_bold</title>
	<path class="path1" d="M506.688 1024h-282.688c-17.664 0-32-14.336-32-32v-960c0-17.664 14.336-32 32-32h256c113.152 0 201.28 27.52 261.888 81.664 51.968 46.528 80.576 111.68 80.576 183.68 0 82.688-39.168 169.344-103.68 214.656 81.6 41.728 166.528 125.632 166.528 271.936 0 180.544-127.36 272.064-378.624 272.064zM256 960h250.688c282.048 0 314.688-118.656 314.688-208 0-203.904-198.080-238.976-206.528-240.448-16.384-2.688-28.096-17.536-26.688-34.176 1.344-16.576 15.168-29.376 31.872-29.376 35.328 0 69.376-19.136 95.936-53.952 27.008-35.456 42.56-82.304 42.56-128.704 0-126.016-104.128-201.344-278.528-201.344h-224v896z"></path>
	<path class="path2" d="M640 512h-384c-17.664 0-32-14.336-32-32s14.336-32 32-32h384c17.664 0 32 14.336 32 32s-14.336 32-32 32z"></path>
</symbol>
<symbol id="icon-s_book" viewBox="0 0 1024 1024">
	<title>s_book</title>
	<path class="path1" d="M544 896c-5.568 0-11.136-1.408-16.128-4.352-1.344-0.768-135.104-77.568-297.216-77.568-43.84 0-86.272 5.632-126.080 16.704-9.6 2.688-20.032 0.704-27.968-5.312s-12.608-15.488-12.608-25.472v-640c0-14.336 9.472-26.88 23.232-30.784 2.24-0.64 56.192-15.744 138.432-15.744 78.4 0 195.84 14.208 318.144 80.128 120.832-67.072 236.992-81.6 314.496-81.6 84.736 0 140.608 16.64 142.976 17.344 13.504 4.096 22.72 16.576 22.72 30.656v640c0 10.112-4.8 19.712-12.992 25.728-8.128 6.016-18.752 7.744-28.352 4.928-38.208-11.648-79.68-17.536-123.264-17.536-158.784 0-298.176 77.952-299.584 78.72-4.928 2.752-10.368 4.16-15.808 4.16zM230.656 750.080c147.648 0 270.656 55.68 313.472 77.632 43.648-22.016 170.112-78.656 315.2-78.656 34.752 0 68.416 3.328 100.608 9.856v-573.504c-21.504-4.16-57.088-9.344-101.696-9.344-72.96 0-183.872 14.208-297.984 81.92-9.856 5.888-22.208 6.016-32.256 0.128-115.776-66.624-228.352-80.64-302.4-80.64-42.56 0-76.672 4.544-97.664 8.32v573.824c33.28-6.336 67.648-9.536 102.72-9.536z"></path>
	<path class="path2" d="M544 896c-17.664 0-32-14.336-32-32v-640c0-17.664 14.336-32 32-32s32 14.336 32 32v640c0 17.664-14.336 32-32 32z"></path>
</symbol>
<symbol id="icon-s_brush" viewBox="0 0 1024 1024">
	<title>s_brush</title>
	<path class="path1" d="M546.496 798.464c0 0 0 0 0 0-32.704 0-62.656-13.376-89.088-39.808-34.368-34.368-48.96-76.416-43.328-125.056 26.624-230.464 539.2-551.232 561.024-564.8 11.648-7.104 26.624-6.272 37.184 2.432 10.624 8.64 14.528 23.104 9.664 35.968-26.368 70.72-264.32 691.264-475.456 691.264zM925.184 178.176c-167.936 115.328-431.424 323.584-447.488 462.72-3.328 29.056 4.608 52.032 24.96 72.448 14.208 14.208 28.544 21.056 43.84 21.056 111.104 0.064 276.8-310.592 378.688-556.224z"></path>
	<path class="path2" d="M284.16 1024c-125.056 0-250.88-50.816-282.688-150.272-3.776-11.904-0.32-24.896 8.896-33.344 9.28-8.448 22.464-10.688 34.048-5.888 102.272 43.264 118.592 10.752 150.976-53.824 31.936-63.616 75.776-150.336 222.784-140.608 17.6 1.28 30.912 16.512 29.696 34.176-1.28 17.6-16.832 30.336-34.176 29.696-104.192-7.296-130.816 44.992-161.152 105.408-25.408 50.688-56.32 110.272-136.896 108.352 64.576 41.152 171.456 53.056 257.024 31.872 58.176-14.4 152.896-54.848 133.504-163.712-3.072-17.408 8.512-34.048 25.856-37.12 17.856-3.008 34.048 8.512 37.12 25.856 20.224 113.536-49.216 204.416-181.184 237.056-33.024 8.256-68.352 12.352-103.808 12.352z"></path>
</symbol>
<symbol id="icon-s_bug" viewBox="0 0 1024 1024">
	<title>s_bug</title>
	<path class="path1" d="M736 384h-448c-17.664 0-32-14.336-32-32v-256c0-17.664 14.336-32 32-32h448c17.664 0 32 14.336 32 32v256c0 17.664-14.336 32-32 32zM320 320h384v-192h-384v192z"></path>
	<path class="path2" d="M448 224c0 17.673-14.327 32-32 32s-32-14.327-32-32c0-17.673 14.327-32 32-32s32 14.327 32 32z"></path>
	<path class="path3" d="M640 224c0 17.673-14.327 32-32 32s-32-14.327-32-32c0-17.673 14.327-32 32-32s32 14.327 32 32z"></path>
	<path class="path4" d="M352 1024c-2.048 0-4.16-0.192-6.272-0.64l-320-64c-9.024-1.792-16.832-7.36-21.44-15.296s-5.568-17.472-2.688-26.176l192-576c4.416-13.056 16.64-21.888 30.4-21.888h192c9.088 0 17.664 3.84 23.744 10.56 6.080 6.656 9.024 15.616 8.064 24.64l-64 640c-0.896 8.96-5.504 17.152-12.8 22.528-5.504 4.096-12.224 6.272-19.008 6.272zM73.792 903.744l249.856 49.984 56.96-569.728h-133.568l-173.248 519.744z"></path>
	<path class="path5" d="M672 1024c-6.784 0-13.504-2.176-19.008-6.272-7.296-5.376-11.968-13.568-12.8-22.528l-64-640c-0.96-9.024 1.984-17.984 8.064-24.64 6.080-6.72 14.656-10.56 23.744-10.56h192c13.76 0 25.984 8.832 30.4 21.888l192 576c2.88 8.704 1.92 18.24-2.688 26.176s-12.416 13.504-21.44 15.296l-320 64c-2.112 0.448-4.224 0.64-6.272 0.64zM643.392 384l56.96 569.664 249.856-49.984-173.248-519.68h-133.568z"></path>
	<path class="path6" d="M608 576h-192c-17.664 0-32-14.336-32-32s14.336-32 32-32h192c17.664 0 32 14.336 32 32s-14.336 32-32 32z"></path>
	<path class="path7" d="M608 768h-192c-17.664 0-32-14.336-32-32s14.336-32 32-32h192c17.664 0 32 14.336 32 32s-14.336 32-32 32z"></path>
	<path class="path8" d="M544 960h-64c-8.512 0-16.64-3.392-22.656-9.344l-96-96c-12.48-12.48-12.48-32.768 0-45.248s32.768-12.48 45.248 0l86.656 86.592h37.504l86.656-86.656c12.48-12.48 32.768-12.48 45.248 0s12.48 32.768 0 45.248l-96 96c-6.016 6.016-14.144 9.408-22.656 9.408z"></path>
	<path class="path9" d="M800 384c-8.192 0-16.384-3.136-22.656-9.344-12.48-12.48-12.48-32.768 0-45.248l128-128c12.48-12.48 32.768-12.48 45.248 0s12.48 32.768 0 45.248l-128 128c-6.208 6.208-14.4 9.344-22.592 9.344z"></path>
	<path class="path10" d="M928 512h-64c-17.664 0-32-14.336-32-32s14.336-32 32-32h64c17.664 0 32 14.336 32 32s-14.336 32-32 32z"></path>
	<path class="path11" d="M224 384c-8.192 0-16.384-3.136-22.656-9.344l-128-128c-12.48-12.48-12.48-32.768 0-45.248s32.768-12.48 45.248 0l128 128c12.48 12.48 12.48 32.768 0 45.248-6.208 6.208-14.4 9.344-22.592 9.344z"></path>
	<path class="path12" d="M160 512h-64c-17.664 0-32-14.336-32-32s14.336-32 32-32h64c17.664 0 32 14.336 32 32s-14.336 32-32 32z"></path>
</symbol>
<symbol id="icon-s_check" viewBox="0 0 1024 1024">
	<title>s_check</title>
	<path class="path1" d="M352 832c-8.192 0-16.384-3.136-22.656-9.344l-256-256c-12.48-12.48-12.48-32.768 0-45.248s32.768-12.48 45.248 0l233.408 233.344 553.344-553.344c12.48-12.48 32.768-12.48 45.248 0s12.48 32.768 0 45.248l-576 576c-6.208 6.208-14.4 9.344-22.592 9.344z"></path>
</symbol>
<symbol id="icon-s_circle-check" viewBox="0 0 1024 1024">
	<title>s_circle-check</title>
	<path class="path1" d="M512 1024c-282.304 0-512-229.696-512-512s229.696-512 512-512 512 229.696 512 512-229.696 512-512 512zM512 64c-247.040 0-448 201.024-448 448s200.96 448 448 448 448-201.024 448-448-200.96-448-448-448z"></path>
	<path class="path2" d="M416 704c-8.192 0-16.384-3.136-22.656-9.344l-192-192c-12.48-12.48-12.48-32.768 0-45.248s32.768-12.48 45.248 0l169.408 169.344 297.344-297.344c12.48-12.48 32.768-12.48 45.248 0s12.48 32.768 0 45.248l-320 320c-6.208 6.208-14.4 9.344-22.592 9.344z"></path>
</symbol>
<symbol id="icon-s_circle-minus" viewBox="0 0 1024 1024">
	<title>s_circle-minus</title>
	<path class="path1" d="M672 576h-384c-17.664 0-32-14.336-32-32s14.336-32 32-32h384c17.664 0 32 14.336 32 32s-14.336 32-32 32z"></path>
	<path class="path2" d="M480 1022.336c-263.744 0-478.336-214.592-478.336-478.336s214.592-478.336 478.336-478.336 478.336 214.592 478.336 478.336-214.592 478.336-478.336 478.336zM480 126.336c-230.336 0-417.664 187.392-417.664 417.664s187.392 417.664 417.664 417.664 417.664-187.392 417.664-417.664-187.328-417.664-417.664-417.664z"></path>
</symbol>
<symbol id="icon-s_circle-plus" viewBox="0 0 1024 1024">
	<title>s_circle-plus</title>
	<path class="path1" d="M672 576h-384c-17.664 0-32-14.336-32-32s14.336-32 32-32h384c17.664 0 32 14.336 32 32s-14.336 32-32 32z"></path>
	<path class="path2" d="M480 1022.336c-263.744 0-478.336-214.592-478.336-478.336s214.592-478.336 478.336-478.336 478.336 214.592 478.336 478.336-214.592 478.336-478.336 478.336zM480 126.336c-230.336 0-417.664 187.392-417.664 417.664s187.392 417.664 417.664 417.664 417.664-187.392 417.664-417.664-187.328-417.664-417.664-417.664z"></path>
	<path class="path3" d="M480 768c-17.664 0-32-14.336-32-32v-384c0-17.664 14.336-32 32-32s32 14.336 32 32v384c0 17.664-14.336 32-32 32z"></path>
</symbol>
<symbol id="icon-s_circle-times" viewBox="0 0 1024 1024">
	<title>s_circle-times</title>
	<path class="path1" d="M672 704c-8.192 0-16.384-3.136-22.656-9.344l-320-320c-12.48-12.48-12.48-32.768 0-45.248s32.768-12.48 45.248 0l320 320c12.48 12.48 12.48 32.768 0 45.248-6.208 6.208-14.4 9.344-22.592 9.344z"></path>
	<path class="path2" d="M352 704c-8.192 0-16.384-3.136-22.656-9.344-12.48-12.48-12.48-32.768 0-45.248l320-320c12.48-12.48 32.768-12.48 45.248 0s12.48 32.768 0 45.248l-320 320c-6.208 6.208-14.4 9.344-22.592 9.344z"></path>
	<path class="path3" d="M512 1024c-282.304 0-512-229.696-512-512s229.696-512 512-512 512 229.696 512 512-229.696 512-512 512zM512 64c-247.040 0-448 201.024-448 448s200.96 448 448 448 448-201.024 448-448-200.96-448-448-448z"></path>
</symbol>
<symbol id="icon-s_clipboard" viewBox="0 0 1024 1024">
	<title>s_clipboard</title>
	<path class="path1" d="M736 512h-448c-17.664 0-32-14.336-32-32s14.336-32 32-32h448c17.664 0 32 14.336 32 32s-14.336 32-32 32z"></path>
	<path class="path2" d="M736 640h-448c-17.664 0-32-14.336-32-32s14.336-32 32-32h448c17.664 0 32 14.336 32 32s-14.336 32-32 32z"></path>
	<path class="path3" d="M544 768h-256c-17.664 0-32-14.336-32-32s14.336-32 32-32h256c17.664 0 32 14.336 32 32s-14.336 32-32 32z"></path>
	<path class="path4" d="M928 1024h-832c-17.664 0-32-14.336-32-32v-768c0-17.664 14.336-32 32-32h96c17.664 0 32 14.336 32 32s-14.336 32-32 32h-64v704h768v-704h-64c-17.664 0-32-14.336-32-32s14.336-32 32-32h96c17.664 0 32 14.336 32 32v768c0 17.664-14.336 32-32 32z"></path>
	<path class="path5" d="M800 320h-576c-17.664 0-32-14.336-32-32v-128c0-17.664 14.336-32 32-32h139.264c3.52-24.64 12.928-57.984 37.76-84.672 26.688-28.736 64.064-43.328 110.976-43.328s84.288 14.592 110.976 43.328c24.832 26.688 34.304 60.032 37.76 84.672h139.264c17.664 0 32 14.336 32 32v128c0 17.664-14.336 32-32 32zM256 256h512v-64h-137.408c-8.896 0-17.408-3.712-23.488-10.24s-9.088-15.232-8.448-24.128c0.064-0.256 2.432-44.16-22.784-71.040-14.336-15.168-35.2-22.592-63.872-22.592-28.8 0-49.792 7.488-64.064 22.848-25.088 26.944-22.592 70.4-22.592 70.784 0.64 8.896-2.432 17.6-8.512 24.128s-14.528 10.24-23.424 10.24h-137.408v64z"></path>
</symbol>
<symbol id="icon-s_clock" viewBox="0 0 1024 1024">
	<title>s_clock</title>
	<path class="path1" d="M512 1024c-246.976 0-448-201.024-448-448s201.024-448 448-448 448 201.024 448 448-201.024 448-448 448zM512 192c-211.776 0-384 172.224-384 384s172.224 384 384 384 384-172.224 384-384-172.224-384-384-384z"></path>
	<path class="path2" d="M32 320c-8.192 0-16.384-3.136-22.656-9.344-12.48-12.48-12.48-32.768 0-45.248l192-192c12.48-12.48 32.768-12.48 45.248 0s12.48 32.768 0 45.248l-192 192c-6.208 6.208-14.4 9.344-22.592 9.344z"></path>
	<path class="path3" d="M992 320c-8.192 0-16.384-3.136-22.656-9.344l-192-192c-12.48-12.48-12.48-32.768 0-45.248s32.768-12.48 45.248 0l192 192c12.48 12.48 12.48 32.768 0 45.248-6.208 6.208-14.4 9.344-22.592 9.344z"></path>
	<path class="path4" d="M544 640c-8.192 0-16.384-3.136-22.656-9.344l-192-192c-12.48-12.48-12.48-32.768 0-45.248s32.768-12.48 45.248 0l169.408 169.344 105.344-105.344c12.48-12.48 32.768-12.48 45.248 0s12.48 32.768 0 45.248l-128 128c-6.208 6.208-14.4 9.344-22.592 9.344z"></path>
</symbol>
<symbol id="icon-s_code" viewBox="0 0 1024 1024">
	<title>s_code</title>
	<path class="path1" d="M352 832c-8.192 0-16.384-3.136-22.656-9.344l-320-320c-12.48-12.48-12.48-32.768 0-45.248l320-320c12.48-12.48 32.768-12.48 45.248 0s12.48 32.768 0 45.248l-297.344 297.344 297.344 297.344c12.48 12.48 12.48 32.768 0 45.248-6.208 6.272-14.4 9.408-22.592 9.408z"></path>
	<path class="path2" d="M672 832c-8.192 0-16.384-3.136-22.656-9.344-12.48-12.48-12.48-32.768 0-45.248l297.408-297.408-297.344-297.344c-12.48-12.48-12.48-32.768 0-45.248s32.768-12.48 45.248 0l320 320c12.48 12.48 12.48 32.768 0 45.248l-320 320c-6.272 6.208-14.464 9.344-22.656 9.344z"></path>
	<path class="path3" d="M480.064 832c-1.088 0-2.176-0.064-3.264-0.128-17.536-1.728-30.464-17.408-28.608-35.008l64-640c1.728-17.664 17.472-30.272 35.008-28.736 17.536 1.792 30.4 17.472 28.608 35.072l-64 640c-1.6 16.512-15.552 28.8-31.744 28.8z"></path>
</symbol>
<symbol id="icon-s_coffee" viewBox="0 0 1024 1024">
	<title>s_coffee</title>
	<path class="path1" d="M928 1024h-576c-17.664 0-32-14.336-32-32v-512c0-17.664 14.336-32 32-32h576c17.664 0 32 14.336 32 32v512c0 17.664-14.336 32-32 32zM384 960h512v-448h-512v448z"></path>
	<path class="path2" d="M245.952 931.584c-105.664 0-191.68-85.952-191.68-191.68s86.016-191.68 191.68-191.68c46.656 0 91.968 17.536 127.424 49.344 13.12 11.84 14.272 32 2.432 45.184-11.776 13.184-32 14.272-45.184 2.496-23.744-21.248-53.824-33.024-84.672-33.024-70.464 0-127.68 57.28-127.68 127.68s57.28 127.68 127.68 127.68c30.848 0 60.928-11.712 84.736-32.96 12.928-11.776 33.216-10.752 45.184 2.496 11.776 13.184 10.624 33.408-2.56 45.184-35.52 31.808-80.768 49.28-127.36 49.28z"></path>
	<path class="path3" d="M584 416c-8.192 0-16.384-3.136-22.656-9.344-12.48-12.48-12.48-32.768 0-45.248l101.376-101.376-109.312-109.376c-12.48-12.48-12.48-32.768 0-45.248l80-80c12.48-12.48 32.768-12.48 45.248 0s12.48 32.768 0 45.248l-57.344 57.344 109.312 109.312c12.48 12.48 12.48 32.768 0 45.248l-123.968 124.096c-6.272 6.208-14.464 9.344-22.656 9.344z"></path>
</symbol>
<symbol id="icon-s_color" viewBox="0 0 1024 1024">
	<title>s_color</title>
	<path class="path1" d="M992 704h-640c-17.664 0-32-14.336-32-32v-640c0-17.664 14.336-32 32-32h640c17.664 0 32 14.336 32 32v640c0 17.664-14.336 32-32 32zM384 640h576v-576h-576v576z"></path>
	<path class="path2" d="M676.992 686.976c-8.192 0-16.384-3.136-22.656-9.344-12.48-12.48-12.48-32.768 0-45.248l307.328-307.328c12.48-12.48 32.768-12.48 45.248 0s12.48 32.768 0 45.248l-307.328 307.328c-6.208 6.272-14.4 9.344-22.592 9.344z"></path>
	<path class="path3" d="M364.032 360c-8.192 0-16.384-3.136-22.656-9.344-12.48-12.48-12.48-32.768 0-45.248l291.008-291.008c12.48-12.48 32.768-12.48 45.248 0s12.48 32.768 0 45.248l-291.008 291.008c-6.272 6.208-14.464 9.344-22.592 9.344z"></path>
	<path class="path4" d="M736 1024h-704c-17.664 0-32-14.336-32-32v-704c0-17.664 14.336-32 32-32h704c17.664 0 32 14.336 32 32v704c0 17.664-14.336 32-32 32zM64 960h640v-640h-640v640z"></path>
	<path class="path5" d="M366.528 689.472c-8.192 0-16.384-3.136-22.656-9.344-12.48-12.48-12.48-32.768 0-45.248l625.472-625.472c12.48-12.48 32.768-12.48 45.248 0s12.48 32.768 0 45.248l-625.472 625.472c-6.272 6.272-14.464 9.344-22.592 9.344z"></path>
</symbol>
<symbol id="icon-s_contract" viewBox="0 0 1024 1024">
	<title>s_contract</title>
	<path class="path1" d="M32 1024c-8.192 0-16.384-3.136-22.656-9.344-12.48-12.48-12.48-32.768 0-45.248l384-384c12.48-12.48 32.768-12.48 45.248 0s12.48 32.768 0 45.248l-384 384c-6.208 6.208-14.4 9.344-22.592 9.344z"></path>
	<path class="path2" d="M416 832c-17.664 0-32-14.336-32-32v-160h-160c-17.664 0-32-14.336-32-32s14.336-32 32-32h192c17.664 0 32 14.336 32 32v192c0 17.664-14.336 32-32 32z"></path>
	<path class="path3" d="M608 448c-8.192 0-16.384-3.136-22.656-9.344-12.48-12.48-12.48-32.768 0-45.248l384-384c12.48-12.48 32.768-12.48 45.248 0s12.48 32.768 0 45.248l-384 384c-6.208 6.208-14.4 9.344-22.592 9.344z"></path>
	<path class="path4" d="M800 448h-192c-17.664 0-32-14.336-32-32v-192c0-17.664 14.336-32 32-32s32 14.336 32 32v160h160c17.664 0 32 14.336 32 32s-14.336 32-32 32z"></path>
</symbol>
<symbol id="icon-s_copy" viewBox="0 0 1024 1024">
	<title>s_copy</title>
	<path class="path1" d="M928 1024h-640c-17.664 0-32-14.336-32-32v-96c0-17.664 14.336-32 32-32s32 14.336 32 32v64h576v-704h-64c-17.664 0-32-14.336-32-32s14.336-32 32-32h96c17.664 0 32 14.336 32 32v768c0 17.664-14.336 32-32 32z"></path>
	<path class="path2" d="M608 256h-384c-17.664 0-32-14.336-32-32s14.336-32 32-32h384c17.664 0 32 14.336 32 32s-14.336 32-32 32z"></path>
	<path class="path3" d="M608 384h-384c-17.664 0-32-14.336-32-32s14.336-32 32-32h384c17.664 0 32 14.336 32 32s-14.336 32-32 32z"></path>
	<path class="path4" d="M416 512h-192c-17.664 0-32-14.336-32-32s14.336-32 32-32h192c17.664 0 32 14.336 32 32s-14.336 32-32 32z"></path>
	<path class="path5" d="M736 832h-640c-17.664 0-32-14.336-32-32v-768c0-17.664 14.336-32 32-32h640c17.664 0 32 14.336 32 32v768c0 17.664-14.336 32-32 32zM128 768h576v-704h-576v704z"></path>
</symbol>
<symbol id="icon-s_desktop" viewBox="0 0 1024 1024">
	<title>s_desktop</title>
	<path class="path1" d="M672 960h-384c-17.664 0-32-14.336-32-32s14.336-32 32-32h384c17.664 0 32 14.336 32 32s-14.336 32-32 32z"></path>
	<path class="path2" d="M928 768h-896c-17.664 0-32-14.336-32-32v-640c0-17.664 14.336-32 32-32h896c17.664 0 32 14.336 32 32v640c0 17.664-14.336 32-32 32zM64 704h832v-576h-832v576z"></path>
	<path class="path3" d="M928 576h-896.768c-17.664 0-32-14.336-32-32s14.272-32 32-32h896.768c17.664 0 32 14.336 32 32s-14.336 32-32 32z"></path>
	<path class="path4" d="M480 928c-17.664 0-32-14.336-32-32v-128c0-17.664 14.336-32 32-32s32 14.336 32 32v128c0 17.664-14.336 32-32 32z"></path>
</symbol>
<symbol id="icon-s_download" viewBox="0 0 1024 1024">
	<title>s_download</title>
	<path class="path1" d="M544 896c-17.664 0-32-14.336-32-32v-832c0-17.664 14.336-32 32-32s32 14.336 32 32v832c0 17.664-14.336 32-32 32z"></path>
	<path class="path2" d="M544 896c-8.192 0-16.384-3.136-22.656-9.344l-192-192c-12.48-12.48-12.48-32.768 0-45.248s32.768-12.48 45.248 0l169.408 169.344 169.344-169.344c12.48-12.48 32.768-12.48 45.248 0s12.48 32.768 0 45.248l-192 192c-6.208 6.208-14.4 9.344-22.592 9.344z"></path>
	<path class="path3" d="M544 1024c-269.184 0-480-126.528-480-288 0-130.432 139.328-241.664 346.688-276.928 17.088-2.816 33.92 8.704 36.928 26.176 2.944 17.408-8.768 33.92-26.176 36.928-172.736 29.376-293.44 117.312-293.44 213.824 0 121.408 190.528 224 416 224s416-102.592 416-224c0-96.512-120.704-184.448-293.44-213.824-17.408-2.944-29.12-19.52-26.176-36.928 3.008-17.408 19.84-28.928 36.928-26.176 207.36 35.264 346.688 146.496 346.688 276.928 0 161.472-210.816 288-480 288z"></path>
</symbol>
<symbol id="icon-s_el" viewBox="0 0 1024 1024">
	<title>s_el</title>
	<path class="path1" d="M224 640h-192c-17.664 0-32-14.336-32-32v-192c0-17.664 14.336-32 32-32h192c17.664 0 32 14.336 32 32v192c0 17.664-14.336 32-32 32zM64 576h128v-128h-128v128z"></path>
	<path class="path2" d="M608 640h-192c-17.664 0-32-14.336-32-32v-192c0-17.664 14.336-32 32-32h192c17.664 0 32 14.336 32 32v192c0 17.664-14.336 32-32 32zM448 576h128v-128h-128v128z"></path>
	<path class="path3" d="M992 640h-192c-17.664 0-32-14.336-32-32v-192c0-17.664 14.336-32 32-32h192c17.664 0 32 14.336 32 32v192c0 17.664-14.336 32-32 32zM832 576h128v-128h-128v128z"></path>
</symbol>
<symbol id="icon-s_ellipsis-h" viewBox="0 0 1024 1024">
	<title>s_ellipsis-h</title>
	<path class="path1" d="M608 256h-192c-17.664 0-32-14.336-32-32v-192c0-17.664 14.336-32 32-32h192c17.664 0 32 14.336 32 32v192c0 17.664-14.336 32-32 32zM448 192h128v-128h-128v128z"></path>
	<path class="path2" d="M608 640h-192c-17.664 0-32-14.336-32-32v-192c0-17.664 14.336-32 32-32h192c17.664 0 32 14.336 32 32v192c0 17.664-14.336 32-32 32zM448 576h128v-128h-128v128z"></path>
	<path class="path3" d="M608 1024h-192c-17.664 0-32-14.336-32-32v-192c0-17.664 14.336-32 32-32h192c17.664 0 32 14.336 32 32v192c0 17.664-14.336 32-32 32zM448 960h128v-128h-128v128z"></path>
</symbol>
<symbol id="icon-s_eraser" viewBox="0 0 1024 1024">
	<title>s_eraser</title>
	<path class="path1" d="M563.2 896h-531.2c-17.664 0-32-14.336-32-32v-326.4c0-9.344 4.096-18.304 11.264-24.32l444.032-377.6c5.76-4.992 13.12-7.68 20.736-7.68h515.968c17.664 0 32 14.336 32 32v291.2c0 8.704-3.52 17.024-9.792 23.040l-428.8 412.8c-6.016 5.76-13.952 8.96-22.208 8.96zM64 832h486.272l409.728-394.432v-245.568h-472.192l-423.808 360.448v279.552z"></path>
	<path class="path2" d="M544 864c-17.664 0-32-14.336-32-32v-256h-448c-17.664 0-32-14.336-32-32s14.336-32 32-32h480c17.664 0 32 14.336 32 32v288c0 17.664-14.336 32-32 32z"></path>
	<path class="path3" d="M544 576c-9.024 0-17.984-3.84-24.256-11.2-11.584-13.376-9.984-33.6 3.456-45.12l448-384c13.44-11.328 33.6-9.856 45.12 3.52s9.984 33.6-3.456 45.12l-448 384c-6.080 5.12-13.504 7.68-20.864 7.68z"></path>
</symbol>
<symbol id="icon-s_expand-1" viewBox="0 0 1024 1024">
	<title>s_expand-1</title>
	<path class="path1" d="M544 384c-17.664 0-32-14.336-32-32v-320c0-17.664 14.336-32 32-32s32 14.336 32 32v320c0 17.664-14.336 32-32 32z"></path>
	<path class="path2" d="M544 960c-17.664 0-32-14.336-32-32v-320c0-17.664 14.336-32 32-32s32 14.336 32 32v320c0 17.664-14.336 32-32 32z"></path>
	<path class="path3" d="M416 512h-320c-17.664 0-32-14.336-32-32s14.336-32 32-32h320c17.664 0 32 14.336 32 32s-14.336 32-32 32z"></path>
	<path class="path4" d="M992 512h-320c-17.664 0-32-14.336-32-32s14.336-32 32-32h320c17.664 0 32 14.336 32 32s-14.336 32-32 32z"></path>
	<path class="path5" d="M544 960c-8.192 0-16.384-3.136-22.656-9.344l-128-128c-12.48-12.48-12.48-32.768 0-45.248s32.768-12.48 45.248 0l105.408 105.344 105.344-105.344c12.48-12.48 32.768-12.48 45.248 0s12.48 32.768 0 45.248l-128 128c-6.208 6.208-14.4 9.344-22.592 9.344z"></path>
	<path class="path6" d="M672 192c-8.192 0-16.384-3.136-22.656-9.344l-105.344-105.408-105.344 105.408c-12.48 12.48-32.768 12.48-45.248 0s-12.48-32.768 0-45.248l128-128c12.48-12.48 32.768-12.48 45.248 0l128 128c12.48 12.48 12.48 32.768 0 45.248-6.272 6.208-14.464 9.344-22.656 9.344z"></path>
	<path class="path7" d="M864 640c-8.192 0-16.384-3.136-22.656-9.344-12.48-12.48-12.48-32.768 0-45.248l105.408-105.408-105.344-105.344c-12.48-12.48-12.48-32.768 0-45.248s32.768-12.48 45.248 0l128 128c12.48 12.48 12.48 32.768 0 45.248l-128 128c-6.272 6.208-14.464 9.344-22.656 9.344z"></path>
	<path class="path8" d="M224 640c-8.192 0-16.384-3.136-22.656-9.344l-128-128c-12.48-12.48-12.48-32.768 0-45.248l128-128c12.48-12.48 32.768-12.48 45.248 0s12.48 32.768 0 45.248l-105.344 105.344 105.344 105.344c12.48 12.48 12.48 32.768 0 45.248-6.208 6.272-14.4 9.408-22.592 9.408z"></path>
</symbol>
<symbol id="icon-s_expand-2" viewBox="0 0 1024 1024">
	<title>s_expand-2</title>
	<path class="path1" d="M32 1024c-8.192 0-16.384-3.136-22.656-9.344-12.48-12.48-12.48-32.768 0-45.248l384-384c12.48-12.48 32.768-12.48 45.248 0s12.48 32.768 0 45.248l-384 384c-6.208 6.208-14.4 9.344-22.592 9.344z"></path>
	<path class="path2" d="M288 1024h-256c-17.664 0-32-14.336-32-32v-256c0-17.664 14.336-32 32-32s32 14.336 32 32v224h224c17.664 0 32 14.336 32 32s-14.336 32-32 32z"></path>
	<path class="path3" d="M608 448c-8.192 0-16.384-3.136-22.656-9.344-12.48-12.48-12.48-32.768 0-45.248l384-384c12.48-12.48 32.768-12.48 45.248 0s12.48 32.768 0 45.248l-384 384c-6.208 6.208-14.4 9.344-22.592 9.344z"></path>
	<path class="path4" d="M992 320c-17.664 0-32-14.336-32-32v-224h-224c-17.664 0-32-14.336-32-32s14.336-32 32-32h256c17.664 0 32 14.336 32 32v256c0 17.664-14.336 32-32 32z"></path>
	<path class="path5" d="M416 448c-8.192 0-16.384-3.136-22.656-9.344l-384-384c-12.48-12.48-12.48-32.768 0-45.248s32.768-12.48 45.248 0l384 384c12.48 12.48 12.48 32.768 0 45.248-6.208 6.208-14.4 9.344-22.592 9.344z"></path>
	<path class="path6" d="M32 320c-17.664 0-32-14.336-32-32v-256c0-17.664 14.336-32 32-32h256c17.664 0 32 14.336 32 32s-14.336 32-32 32h-224v224c0 17.664-14.336 32-32 32z"></path>
	<path class="path7" d="M992 1024c-8.192 0-16.384-3.136-22.656-9.344l-384-384c-12.48-12.48-12.48-32.768 0-45.248s32.768-12.48 45.248 0l384 384c12.48 12.48 12.48 32.768 0 45.248-6.208 6.208-14.4 9.344-22.592 9.344z"></path>
	<path class="path8" d="M992 1024h-256c-17.664 0-32-14.336-32-32s14.336-32 32-32h224v-224c0-17.664 14.336-32 32-32s32 14.336 32 32v256c0 17.664-14.336 32-32 32z"></path>
</symbol>
<symbol id="icon-s_expand-d" viewBox="0 0 1024 1024">
	<title>s_expand-d</title>
	<path class="path1" d="M32 1024c-8.192 0-16.384-3.136-22.656-9.344-12.48-12.48-12.48-32.768 0-45.248l384-384c12.48-12.48 32.768-12.48 45.248 0s12.48 32.768 0 45.248l-384 384c-6.208 6.208-14.4 9.344-22.592 9.344z"></path>
	<path class="path2" d="M224 1024h-192c-17.664 0-32-14.336-32-32v-192c0-17.664 14.336-32 32-32s32 14.336 32 32v160h160c17.664 0 32 14.336 32 32s-14.336 32-32 32z"></path>
	<path class="path3" d="M608 448c-8.192 0-16.384-3.136-22.656-9.344-12.48-12.48-12.48-32.768 0-45.248l384-384c12.48-12.48 32.768-12.48 45.248 0s12.48 32.768 0 45.248l-384 384c-6.208 6.208-14.4 9.344-22.592 9.344z"></path>
	<path class="path4" d="M992 256c-17.664 0-32-14.336-32-32v-160h-160c-17.664 0-32-14.336-32-32s14.336-32 32-32h192c17.664 0 32 14.336 32 32v192c0 17.664-14.336 32-32 32z"></path>
</symbol>
<symbol id="icon-s_expand-h" viewBox="0 0 1024 1024">
	<title>s_expand-h</title>
	<path class="path1" d="M992 512h-960c-17.664 0-32-14.336-32-32s14.336-32 32-32h960c17.664 0 32 14.336 32 32s-14.336 32-32 32z"></path>
	<path class="path2" d="M224.32 703.744c-8.192 0-16.384-3.136-22.592-9.344l-192.32-191.744c-6.016-6.016-9.408-14.144-9.408-22.656s3.392-16.64 9.344-22.656l192-192c12.48-12.48 32.768-12.48 45.248 0s12.48 32.768 0 45.248l-169.28 169.408 169.536 169.088c12.544 12.48 12.544 32.704 0.128 45.248-6.208 6.272-14.464 9.408-22.656 9.408z"></path>
	<path class="path3" d="M800 704c-8.192 0-16.384-3.136-22.656-9.344-12.48-12.48-12.48-32.768 0-45.248l169.344-169.408-169.536-169.088c-12.544-12.48-12.544-32.704-0.128-45.248 12.48-12.544 32.896-12.48 45.248-0.064l192.32 191.744c6.016 6.016 9.408 14.144 9.408 22.656s-3.392 16.64-9.344 22.656l-192 192c-6.272 6.208-14.464 9.344-22.656 9.344z"></path>
</symbol>
<symbol id="icon-s_expand-v" viewBox="0 0 1024 1024">
	<title>s_expand-v</title>
	<path class="path1" d="M544 1024c-17.664 0-32-14.336-32-32v-960c0-17.664 14.336-32 32-32s32 14.336 32 32v960c0 17.664-14.336 32-32 32z"></path>
	<path class="path2" d="M352.32 256.256c-8.192 0-16.384-3.136-22.592-9.344-12.544-12.416-12.544-32.704-0.128-45.248l191.68-192.256c6.016-6.016 14.208-9.408 22.72-9.408v0c8.512 0 16.64 3.392 22.656 9.344l192 192c12.48 12.48 12.48 32.768 0 45.248s-32.768 12.48-45.248 0l-169.344-169.28-169.088 169.6c-6.208 6.272-14.464 9.344-22.656 9.344z"></path>
	<path class="path3" d="M544 1024c-8.512 0-16.64-3.392-22.656-9.344l-192-192c-12.48-12.48-12.48-32.768 0-45.248s32.768-12.48 45.248 0l169.344 169.344 169.088-169.6c12.48-12.544 32.896-12.48 45.248-0.064 12.544 12.48 12.544 32.704 0.128 45.248l-191.68 192.256c-6.016 6.016-14.208 9.408-22.72 9.408v0z"></path>
</symbol>
<symbol id="icon-s_eye" viewBox="0 0 1024 1024">
	<title>s_eye</title>
	<path class="path1" d="M512 827.712c-254.336 0-469.376-295.168-478.464-307.712-8-11.136-8-26.24 0-37.376 9.088-12.608 224.128-307.776 478.464-307.776s469.376 295.168 478.464 307.776c8 11.136 8 26.24 0 37.376-9.088 12.544-224.128 307.712-478.464 307.712zM99.968 501.312c50.24 62.848 224.64 262.4 412.032 262.4 187.904 0 361.92-199.552 412.032-262.4-50.24-62.848-224.512-262.464-412.032-262.464s-361.792 199.616-412.032 262.464z"></path>
	<path class="path2" d="M512 693.312c-105.856 0-192-86.144-192-192s86.144-192 192-192 192 86.144 192 192-86.144 192-192 192zM512 373.312c-70.592 0-128 57.408-128 128s57.408 128 128 128 128-57.408 128-128-57.408-128-128-128z"></path>
</symbol>
<symbol id="icon-s_file" viewBox="0 0 1024 1024">
	<title>s_file</title>
	<path class="path1" d="M928 1024h-832c-17.664 0-32-14.336-32-32v-960c0-17.664 14.336-32 32-32h832c17.664 0 32 14.336 32 32v960c0 17.664-14.336 32-32 32zM128 960h768v-896h-768v896z"></path>
	<path class="path2" d="M736 256h-448c-17.664 0-32-14.336-32-32s14.336-32 32-32h448c17.664 0 32 14.336 32 32s-14.336 32-32 32z"></path>
	<path class="path3" d="M736 384h-448c-17.664 0-32-14.336-32-32s14.336-32 32-32h448c17.664 0 32 14.336 32 32s-14.336 32-32 32z"></path>
	<path class="path4" d="M736 512h-448c-17.664 0-32-14.336-32-32s14.336-32 32-32h448c17.664 0 32 14.336 32 32s-14.336 32-32 32z"></path>
	<path class="path5" d="M544 640h-256c-17.664 0-32-14.336-32-32s14.336-32 32-32h256c17.664 0 32 14.336 32 32s-14.336 32-32 32z"></path>
</symbol>
<symbol id="icon-s_file-code" viewBox="0 0 1024 1024">
	<title>s_file-code</title>
	<path class="path1" d="M928 1024h-832c-17.664 0-32-14.336-32-32v-960c0-17.664 14.336-32 32-32h832c17.664 0 32 14.336 32 32v960c0 17.664-14.336 32-32 32zM128 960h768v-896h-768v896z"></path>
	<path class="path2" d="M352 640c-8.192 0-16.384-3.136-22.656-9.344l-128-128c-12.48-12.48-12.48-32.768 0-45.248l128-128c12.48-12.48 32.768-12.48 45.248 0s12.48 32.768 0 45.248l-105.344 105.344 105.344 105.344c12.48 12.48 12.48 32.768 0 45.248-6.208 6.272-14.4 9.408-22.592 9.408z"></path>
	<path class="path3" d="M672 640c-8.192 0-16.384-3.136-22.656-9.344-12.48-12.48-12.48-32.768 0-45.248l105.408-105.408-105.344-105.344c-12.48-12.48-12.48-32.768 0-45.248s32.768-12.48 45.248 0l128 128c12.48 12.48 12.48 32.768 0 45.248l-128 128c-6.272 6.208-14.464 9.344-22.656 9.344z"></path>
	<path class="path4" d="M480 640c-2.56 0-5.184-0.32-7.808-0.96-17.088-4.288-27.52-21.696-23.232-38.784l64-256c4.288-17.216 21.568-27.648 38.784-23.296 17.152 4.288 27.584 21.632 23.296 38.784l-64 256c-3.648 14.592-16.64 24.256-31.040 24.256z"></path>
</symbol>
<symbol id="icon-s_files" viewBox="0 0 1024 1024">
	<title>s_files</title>
	<path class="path1" d="M480 192h-320c-17.664 0-32-14.336-32-32s14.336-32 32-32h320c17.664 0 32 14.336 32 32s-14.336 32-32 32z"></path>
	<path class="path2" d="M480 320h-320c-17.664 0-32-14.336-32-32s14.336-32 32-32h320c17.664 0 32 14.336 32 32s-14.336 32-32 32z"></path>
	<path class="path3" d="M352 448h-192c-17.664 0-32-14.336-32-32s14.336-32 32-32h192c17.664 0 32 14.336 32 32s-14.336 32-32 32z"></path>
	<path class="path4" d="M992 1024h-576c-17.664 0-32-14.336-32-32v-96c0-17.664 14.336-32 32-32s32 14.336 32 32v64h512v-512h-64c-17.664 0-32-14.336-32-32s14.336-32 32-32h96c17.664 0 32 14.336 32 32v576c0 17.664-14.336 32-32 32z"></path>
	<path class="path5" d="M800 832h-576c-17.664 0-32-14.336-32-32v-96c0-17.664 14.336-32 32-32s32 14.336 32 32v64h512v-512h-64c-17.664 0-32-14.336-32-32s14.336-32 32-32h96c17.664 0 32 14.336 32 32v576c0 17.664-14.336 32-32 32z"></path>
	<path class="path6" d="M608 640h-576c-17.664 0-32-14.336-32-32v-576c0-17.664 14.336-32 32-32h576c17.664 0 32 14.336 32 32v576c0 17.664-14.336 32-32 32zM64 576h512v-512h-512v512z"></path>
</symbol>
<symbol id="icon-s_flask" viewBox="0 0 1024 1024">
	<title>s_flask</title>
	<path class="path1" d="M672 192h-320c-17.664 0-32-14.336-32-32v-128c0-17.664 14.336-32 32-32h320c17.664 0 32 14.336 32 32v128c0 17.664-14.336 32-32 32zM384 128h256v-64h-256v64z"></path>
	<path class="path2" d="M704 704h-384c-17.664 0-32-14.336-32-32s14.336-32 32-32h384c17.664 0 32 14.336 32 32s-14.336 32-32 32z"></path>
	<path class="path3" d="M928 1024h-832c-11.648 0-22.336-6.336-28.032-16.512-5.632-10.176-5.312-22.592 0.896-32.448l315.136-504.256v-310.784c0-17.664 14.336-32 32-32s32 14.336 32 32v320c0 6.016-1.664 11.904-4.864 16.96l-289.408 463.040h716.48l-289.344-463.040c-3.2-5.056-4.864-10.944-4.864-16.96v-320c0-17.664 14.336-32 32-32s32 14.336 32 32v310.784l315.136 504.192c6.208 9.856 6.528 22.336 0.896 32.448-5.696 10.24-16.384 16.576-28.032 16.576z"></path>
</symbol>
<symbol id="icon-s_folder" viewBox="0 0 1024 1024">
	<title>s_folder</title>
	<path class="path1" d="M992 960h-960c-17.664 0-32-14.336-32-32v-640l32.448-197.248c2.56-15.424 15.872-26.752 31.552-26.752h416c13.76 0 25.984 8.832 30.336 21.888l56.704 170.112h424.96c17.664 0 32 14.336 32 32v640c0 17.664-14.336 32-32 32zM64 896h896v-576h-416c-13.76 0-25.984-8.832-30.336-21.888l-56.704-170.112h-365.888l-27.52 165.248 0.448 602.752z"></path>
</symbol>
<symbol id="icon-s_folder-o" viewBox="0 0 1024 1024">
	<title>s_folder-o</title>
	<path class="path1" d="M864 384h-704c-9.216 0-17.92-3.968-24-10.816s-8.896-16.064-7.744-25.152l32-256c1.984-16 15.616-28.032 31.744-28.032h288c11.84 0 22.72 6.528 28.224 17.024l58.944 110.976h264.832c14.656 0 27.456 9.984 31.040 24.256l32 128c2.432 9.536 0.256 19.712-5.824 27.456s-15.36 12.288-25.216 12.288zM196.224 320h626.752l-16-64h-259.008c-11.904 0-22.72-6.528-28.288-17.024l-58.944-110.976h-240.512l-24 192z"></path>
	<path class="path2" d="M929.6 960h-805.696c-15.744 0-29.12-11.456-31.616-26.944l-91.904-576c-1.472-9.28 1.152-18.688 7.296-25.856s14.976-11.2 24.32-11.2h960c9.088 0 17.728 3.904 23.808 10.624s8.96 15.808 8 24.832l-62.4 576c-1.728 16.256-15.488 28.544-31.808 28.544zM151.232 896h749.632l55.488-512h-886.848l81.728 512z"></path>
</symbol>
<symbol id="icon-s_form" viewBox="0 0 1024 1024">
	<title>s_form</title>
	<path class="path1" d="M992 320h-640c-17.664 0-32-14.336-32-32v-192c0-17.664 14.336-32 32-32h640c17.664 0 32 14.336 32 32v192c0 17.664-14.336 32-32 32zM384 256h576v-128h-576v128z"></path>
	<path class="path2" d="M224 320h-192c-17.664 0-32-14.336-32-32v-192c0-17.664 14.336-32 32-32h192c17.664 0 32 14.336 32 32v192c0 17.664-14.336 32-32 32zM64 256h128v-128h-128v128z"></path>
	<path class="path3" d="M992 640h-640c-17.664 0-32-14.336-32-32v-192c0-17.664 14.336-32 32-32h640c17.664 0 32 14.336 32 32v192c0 17.664-14.336 32-32 32zM384 576h576v-128h-576v128z"></path>
	<path class="path4" d="M224 640h-192c-17.664 0-32-14.336-32-32v-192c0-17.664 14.336-32 32-32h192c17.664 0 32 14.336 32 32v192c0 17.664-14.336 32-32 32zM64 576h128v-128h-128v128z"></path>
	<path class="path5" d="M992 960h-640c-17.664 0-32-14.336-32-32v-192c0-17.664 14.336-32 32-32h640c17.664 0 32 14.336 32 32v192c0 17.664-14.336 32-32 32zM384 896h576v-128h-576v128z"></path>
	<path class="path6" d="M224 960h-192c-17.664 0-32-14.336-32-32v-192c0-17.664 14.336-32 32-32h192c17.664 0 32 14.336 32 32v192c0 17.664-14.336 32-32 32zM64 896h128v-128h-128v128z"></path>
</symbol>
<symbol id="icon-s_game" viewBox="0 0 1024 1024">
	<title>s_game</title>
	<path class="path1" d="M32 1024c-8.512 0-16.64-3.392-22.656-9.344s-9.344-14.144-9.344-22.656v-512c0-17.664 14.336-32 32-32h960c17.664 0 32 14.336 32 32v510.4c0 17.6-14.336 32-31.936 32l-960.064 1.6zM64 512v447.936l896-1.472v-446.464h-896z"></path>
	<path class="path2" d="M416 512c-8.192 0-16.384-3.136-22.656-9.344-12.48-12.48-12.48-32.768 0-45.248l233.408-233.408-169.408-169.344c-12.48-12.48-12.48-32.768 0-45.248s32.768-12.48 45.248 0l192 192c12.48 12.48 12.48 32.768 0 45.248l-256 256c-6.208 6.208-14.4 9.344-22.592 9.344z"></path>
	<path class="path3" d="M736 832c-52.928 0-96-43.072-96-96s43.072-96 96-96 96 43.072 96 96-43.072 96-96 96zM736 704c-17.6 0-32 14.4-32 32s14.4 32 32 32 32-14.4 32-32-14.4-32-32-32z"></path>
	<path class="path4" d="M288 832c-17.664 0-32-14.336-32-32v-128c0-17.664 14.336-32 32-32s32 14.336 32 32v128c0 17.664-14.336 32-32 32z"></path>
	<path class="path5" d="M352 768h-128c-17.664 0-32-14.336-32-32s14.336-32 32-32h128c17.664 0 32 14.336 32 32s-14.336 32-32 32z"></path>
	<path class="path6" d="M544 768h-64c-17.664 0-32-14.336-32-32s14.336-32 32-32h64c17.664 0 32 14.336 32 32s-14.336 32-32 32z"></path>
</symbol>
<symbol id="icon-s_gear" viewBox="0 0 1024 1024">
	<title>s_gear</title>
	<path class="path1" d="M512 704c-105.856 0-192-86.144-192-192s86.144-192 192-192 192 86.144 192 192-86.144 192-192 192zM512 384c-70.592 0-128 57.408-128 128s57.408 128 128 128 128-57.408 128-128-57.408-128-128-128z"></path>
	<path class="path2" d="M608 1024h-192c-17.664 0-32-14.336-32-32v-118.208c-14.528-5.12-28.672-11.2-42.496-18.048l-94.848 94.848c-12.48 12.48-32.768 12.48-45.248 0l-128-128c-12.48-12.48-12.48-32.768 0-45.248l94.848-94.848c-6.912-13.824-12.928-27.968-18.048-42.496h-118.208c-17.664 0-32-14.336-32-32v-192c0-17.664 14.336-32 32-32h118.208c5.12-14.528 11.2-28.672 18.048-42.496l-94.912-94.848c-12.48-12.48-12.48-32.768 0-45.248l128-128c12.48-12.48 32.768-12.48 45.248 0l94.848 94.848c13.888-6.912 28.032-12.928 42.56-18.048v-118.208c0-17.664 14.336-32 32-32h192c17.664 0 32 14.336 32 32v118.208c14.528 5.12 28.672 11.2 42.496 18.048l94.848-94.848c12.48-12.48 32.768-12.48 45.248 0l128 128c12.48 12.48 12.48 32.768 0 45.248l-94.848 94.848c6.912 13.824 12.928 27.968 18.048 42.496h118.208c17.664 0 32 14.336 32 32v192c0 17.664-14.336 32-32 32h-118.208c-5.12 14.528-11.2 28.672-18.048 42.496l94.848 94.848c12.48 12.48 12.48 32.768 0 45.248l-128 128c-12.48 12.48-32.768 12.48-45.248 0l-94.848-94.848c-13.824 6.848-28.032 12.928-42.496 18.048v118.208c0 17.664-14.336 32-32 32zM448 960h128v-109.632c0-14.336 9.536-26.944 23.296-30.784 25.408-7.104 49.92-17.536 72.896-30.848 12.608-7.36 28.416-5.312 38.72 4.992l89.088 89.088 82.752-82.752-89.088-89.088c-10.24-10.24-12.288-26.176-4.992-38.72 13.312-22.912 23.744-47.424 30.848-72.896 3.904-13.824 16.512-23.36 30.848-23.36h109.632v-128h-109.632c-14.336 0-26.944-9.536-30.784-23.296-7.104-25.408-17.536-49.92-30.848-72.896-7.296-12.544-5.248-28.48 4.992-38.72l89.024-89.088-82.752-82.752-89.088 89.088c-10.304 10.304-26.048 12.288-38.72 4.992-22.912-13.312-47.424-23.744-72.896-30.848-13.76-3.904-23.296-16.512-23.296-30.848v-109.632h-128v109.632c0 14.336-9.536 26.944-23.296 30.784-25.408 7.104-49.92 17.536-72.896 30.848-12.672 7.296-28.48 5.312-38.72-4.928l-89.088-89.088-82.752 82.752 89.088 89.088c10.24 10.24 12.288 26.176 4.992 38.72-13.312 22.912-23.744 47.424-30.912 72.896-3.84 13.76-16.448 23.296-30.784 23.296h-109.632v128h109.632c14.336 0 26.944 9.536 30.784 23.296 7.104 25.408 17.536 49.92 30.848 72.896 7.296 12.544 5.248 28.48-4.992 38.72l-89.024 89.088 82.752 82.752 89.088-89.088c10.304-10.304 26.112-12.288 38.72-4.992 22.912 13.312 47.424 23.744 72.896 30.848 13.76 3.904 23.296 16.512 23.296 30.848v109.632z"></path>
</symbol>
<symbol id="icon-s_glasses" viewBox="0 0 1024 1024">
	<title>s_glasses</title>
	<path class="path1" d="M96 576h-64c-17.664 0-32-14.336-32-32s14.336-32 32-32h64c17.664 0 32 14.336 32 32s-14.336 32-32 32z"></path>
	<path class="path2" d="M608 576h-192c-17.664 0-32-14.336-32-32s14.336-32 32-32h192c17.664 0 32 14.336 32 32s-14.336 32-32 32z"></path>
	<path class="path3" d="M992 576h-64c-17.664 0-32-14.336-32-32s14.336-32 32-32h64c17.664 0 32 14.336 32 32s-14.336 32-32 32z"></path>
	<path class="path4" d="M256 768c-105.856 0-192-86.144-192-192s86.144-192 192-192 192 86.144 192 192-86.144 192-192 192zM256 448c-70.592 0-128 57.408-128 128s57.408 128 128 128 128-57.408 128-128-57.408-128-128-128z"></path>
	<path class="path5" d="M768 768c-105.856 0-192-86.144-192-192s86.144-192 192-192 192 86.144 192 192-86.144 192-192 192zM768 448c-70.592 0-128 57.408-128 128s57.408 128 128 128 128-57.408 128-128-57.408-128-128-128z"></path>
</symbol>
<symbol id="icon-s_graph" viewBox="0 0 1024 1024">
	<title>s_graph</title>
	<path class="path1" d="M32 896c-3.008 0-6.144-0.448-9.216-1.344-16.96-5.12-26.56-22.912-21.44-39.872l192-640c3.712-12.224 14.336-21.184 27.008-22.592 13.056-1.6 25.088 4.864 31.424 15.936l224.64 393.152 230.336-518.272c5.248-11.776 17.792-18.816 29.824-19.008 12.864 0.256 24.32 8.128 29.12 20.096l256 640c6.592 16.384-1.408 35.008-17.856 41.6-16.192 6.592-35.008-1.408-41.6-17.856l-227.84-569.6-225.216 506.688c-4.864 11.072-15.552 18.432-27.584 19.072-12.224 0.832-23.424-5.632-29.376-16.064l-219.008-383.296-170.56 568.576c-4.16 13.824-16.896 22.784-30.656 22.784z"></path>
</symbol>
<symbol id="icon-s_grid-1" viewBox="0 0 1024 1024">
	<title>s_grid-1</title>
	<path class="path1" d="M416 448h-384c-17.664 0-32-14.336-32-32v-384c0-17.664 14.336-32 32-32h384c17.664 0 32 14.336 32 32v384c0 17.664-14.336 32-32 32zM64 384h320v-320h-320v320z"></path>
	<path class="path2" d="M992 448h-384c-17.664 0-32-14.336-32-32v-384c0-17.664 14.336-32 32-32h384c17.664 0 32 14.336 32 32v384c0 17.664-14.336 32-32 32zM640 384h320v-320h-320v320z"></path>
	<path class="path3" d="M416 1024h-384c-17.664 0-32-14.336-32-32v-384c0-17.664 14.336-32 32-32h384c17.664 0 32 14.336 32 32v384c0 17.664-14.336 32-32 32zM64 960h320v-320h-320v320z"></path>
	<path class="path4" d="M992 1024h-384c-17.664 0-32-14.336-32-32v-384c0-17.664 14.336-32 32-32h384c17.664 0 32 14.336 32 32v384c0 17.664-14.336 32-32 32zM640 960h320v-320h-320v320z"></path>
</symbol>
<symbol id="icon-s_grid-2" viewBox="0 0 1024 1024">
	<title>s_grid-2</title>
	<path class="path1" d="M992 256h-192c-17.664 0-32-14.336-32-32v-192c0-17.664 14.336-32 32-32h192c17.664 0 32 14.336 32 32v192c0 17.664-14.336 32-32 32zM832 192h128v-128h-128v128z"></path>
	<path class="path2" d="M608 256h-192c-17.664 0-32-14.336-32-32v-192c0-17.664 14.336-32 32-32h192c17.664 0 32 14.336 32 32v192c0 17.664-14.336 32-32 32zM448 192h128v-128h-128v128z"></path>
	<path class="path3" d="M224 256h-192c-17.664 0-32-14.336-32-32v-192c0-17.664 14.336-32 32-32h192c17.664 0 32 14.336 32 32v192c0 17.664-14.336 32-32 32zM64 192h128v-128h-128v128z"></path>
	<path class="path4" d="M992 640h-192c-17.664 0-32-14.336-32-32v-192c0-17.664 14.336-32 32-32h192c17.664 0 32 14.336 32 32v192c0 17.664-14.336 32-32 32zM832 576h128v-128h-128v128z"></path>
	<path class="path5" d="M608 640h-192c-17.664 0-32-14.336-32-32v-192c0-17.664 14.336-32 32-32h192c17.664 0 32 14.336 32 32v192c0 17.664-14.336 32-32 32zM448 576h128v-128h-128v128z"></path>
	<path class="path6" d="M224 640h-192c-17.664 0-32-14.336-32-32v-192c0-17.664 14.336-32 32-32h192c17.664 0 32 14.336 32 32v192c0 17.664-14.336 32-32 32zM64 576h128v-128h-128v128z"></path>
	<path class="path7" d="M992 1024h-192c-17.664 0-32-14.336-32-32v-192c0-17.664 14.336-32 32-32h192c17.664 0 32 14.336 32 32v192c0 17.664-14.336 32-32 32zM832 960h128v-128h-128v128z"></path>
	<path class="path8" d="M608 1024h-192c-17.664 0-32-14.336-32-32v-192c0-17.664 14.336-32 32-32h192c17.664 0 32 14.336 32 32v192c0 17.664-14.336 32-32 32zM448 960h128v-128h-128v128z"></path>
	<path class="path9" d="M224 1024h-192c-17.664 0-32-14.336-32-32v-192c0-17.664 14.336-32 32-32h192c17.664 0 32 14.336 32 32v192c0 17.664-14.336 32-32 32zM64 960h128v-128h-128v128z"></path>
</symbol>
<symbol id="icon-s_group" viewBox="0 0 1024 1024">
	<title>s_group</title>
	<path class="path1" d="M725.824 768c-10.688 0-21.184-5.376-27.264-15.168-9.28-15.040-4.544-34.752 10.432-44.032 70.080-43.2 97.344-101.696 97.344-208.704 0-137.344-85.504-240.96-198.848-240.96-114.688-0.064-197.888 100.352-197.888 238.656 0 107.648 27.968 168.768 96.384 210.944 14.976 9.28 19.712 28.992 10.432 44.032-9.344 15.040-29.056 19.648-44.032 10.432-88.832-54.784-126.784-134.144-126.784-265.408 0-172.544 112.576-302.656 261.888-302.656 149.888 0 262.848 131.072 262.848 304.96 0 129.28-38.208 207.936-127.744 263.168-5.248 3.2-11.008 4.736-16.768 4.736z"></path>
	<path class="path2" d="M224 1024c-17.664 0-32-14.336-32-32v-128c0-88.192 71.744-160 160-160h137.216c17.664 0 32 14.336 32 32s-14.336 32-32 32h-137.216c-52.928 0-96 43.072-96 96v128c0 17.664-14.336 32-32 32z"></path>
	<path class="path3" d="M992 1024c-17.664 0-32-14.336-32-32v-128c0-52.928-43.072-96-96-96h-138.176c-17.664 0-32-14.336-32-32s14.336-32 32-32h138.176c88.256 0 160 71.808 160 160v128c0 17.664-14.336 32-32 32z"></path>
	<path class="path4" d="M256 572.928c-5.76 0-11.584-1.536-16.832-4.8-92.544-57.152-135.68-141.44-135.68-265.408 0-172.608 112.576-302.72 261.888-302.72 81.088 0 155.712 39.936 204.736 109.504 10.176 14.464 6.72 34.432-7.68 44.608-14.4 10.112-34.432 6.784-44.544-7.744-36.928-52.352-92.544-82.368-152.512-82.368-114.688 0-197.888 100.352-197.888 238.656 0 100.992 32.512 166.016 105.344 211.008 15.040 9.28 19.648 28.992 10.432 44.032-6.080 9.792-16.576 15.232-27.264 15.232z"></path>
	<path class="path5" d="M32 828.928c-17.664 0-32-14.336-32-32v-128c0-86.144 70.4-160 128-160h128c17.664 0 32 14.336 32 32s-14.336 32-32 32h-128c-19.072 0-64 40.512-64 96v128c0 17.664-14.336 32-32 32z"></path>
</symbol>
<symbol id="icon-s_hashtag" viewBox="0 0 1024 1024">
	<title>s_hashtag</title>
	<path class="path1" d="M352 1024c-17.664 0-32-14.336-32-32v-960c0-17.664 14.336-32 32-32s32 14.336 32 32v960c0 17.664-14.336 32-32 32z"></path>
	<path class="path2" d="M672 1024c-17.664 0-32-14.336-32-32v-960c0-17.664 14.336-32 32-32s32 14.336 32 32v960c0 17.664-14.336 32-32 32z"></path>
	<path class="path3" d="M992 384h-960c-17.664 0-32-14.336-32-32s14.336-32 32-32h960c17.664 0 32 14.336 32 32s-14.336 32-32 32z"></path>
	<path class="path4" d="M992 704h-960c-17.664 0-32-14.336-32-32s14.336-32 32-32h960c17.664 0 32 14.336 32 32s-14.336 32-32 32z"></path>
</symbol>
<symbol id="icon-s_heart" viewBox="0 0 1024 1024">
	<title>s_heart</title>
	<path class="path1" d="M512.32 943.872c-4.48 0-9.024-0.96-13.184-2.816-18.048-8.128-444.16-204.032-492.608-536.192-12.992-89.472 7.104-168.064 58.304-227.2 52.736-61.056 137.856-97.472 227.584-97.472 91.264 0 170.88 35.904 219.456 96.384 48.64-60.48 128.448-96.384 219.712-96.384 89.728 0 174.848 36.416 227.712 97.472 51.2 59.2 71.296 137.728 58.304 227.2-48.448 332.16-473.92 528-492.032 536.192-4.224 1.856-8.768 2.816-13.248 2.816zM292.352 144.128c-71.36 0-138.368 28.16-179.2 75.328-38.656 44.672-53.632 105.6-43.328 176.128 38.848 266.88 371.648 445.568 442.432 480.768 70.72-35.2 402.944-213.888 441.792-480.768 10.304-70.528-4.672-131.392-43.328-176.064-40.832-47.168-107.904-75.328-179.328-75.328-68.672 0-154.816 27.904-190.656 106.176-5.12 11.328-16.512 18.624-28.992 18.624 0 0 0 0-0.064 0-12.48 0-23.872-7.36-29.056-18.688-35.648-78.272-121.6-106.176-190.272-106.176z"></path>
</symbol>
<symbol id="icon-s_image" viewBox="0 0 1024 1024">
	<title>s_image</title>
	<path class="path1" d="M992 960h-960c-17.664 0-32-14.336-32-32v-832c0-17.664 14.336-32 32-32h960c17.664 0 32 14.336 32 32v832c0 17.664-14.336 32-32 32zM64 896h896v-768h-896v768z"></path>
	<path class="path2" d="M256 448c-70.592 0-128-57.408-128-128s57.408-128 128-128 128 57.408 128 128-57.408 128-128 128zM256 256c-35.328 0-64 28.736-64 64s28.672 64 64 64 64-28.736 64-64-28.672-64-64-64z"></path>
	<path class="path3" d="M32 960c-8.192 0-16.384-3.136-22.656-9.344-12.48-12.48-12.48-32.768 0-45.248l448-448c12.48-12.48 32.768-12.48 45.248 0l169.408 169.344 105.344-105.344c12.48-12.48 32.768-12.48 45.248 0l192 192c12.48 12.48 12.48 32.768 0 45.248s-32.768 12.48-45.248 0l-169.344-169.408-105.344 105.344c-12.48 12.48-32.768 12.48-45.248 0l-169.408-169.344-425.344 425.344c-6.272 6.272-14.464 9.408-22.656 9.408z"></path>
</symbol>
<symbol id="icon-s_info" viewBox="0 0 1024 1024">
	<title>s_info</title>
	<path class="path1" d="M672 256h-256c-17.664 0-32-14.336-32-32v-192c0-17.664 14.336-32 32-32h256c17.664 0 32 14.336 32 32v192c0 17.664-14.336 32-32 32zM448 192h192v-128h-192v128z"></path>
	<path class="path2" d="M800 1024h-512c-17.664 0-32-14.336-32-32v-128c0-17.664 14.336-32 32-32h96v-256h-96c-17.664 0-32-14.336-32-32v-128c0-17.664 14.336-32 32-32h384c17.664 0 32 14.336 32 32v416h96c17.664 0 32 14.336 32 32v128c0 17.664-14.336 32-32 32zM320 960h448v-64h-96c-17.664 0-32-14.336-32-32v-416h-320v64h96c17.664 0 32 14.336 32 32v320c0 17.664-14.336 32-32 32h-96v64z"></path>
</symbol>
<symbol id="icon-s_italic" viewBox="0 0 1024 1024">
	<title>s_italic</title>
	<path class="path1" d="M416.064 992c-2.24 0-4.48-0.256-6.72-0.704-17.344-3.776-28.288-20.736-24.64-38.016l192-896c3.776-17.344 21.184-27.968 38.016-24.64 17.344 3.776 28.288 20.736 24.64 38.016l-192 896c-3.328 15.104-16.576 25.344-31.296 25.344z"></path>
	<path class="path2" d="M864 64h-512c-17.664 0-32-14.336-32-32s14.336-32 32-32h512c17.664 0 32 14.336 32 32s-14.336 32-32 32z"></path>
	<path class="path3" d="M640 1024h-480c-17.664 0-32-14.336-32-32s14.336-32 32-32h480c17.664 0 32 14.336 32 32s-14.336 32-32 32z"></path>
</symbol>
<symbol id="icon-s_jacob" viewBox="0 0 1024 1024">
	<title>s_jacob</title>
	<path class="path1" d="M512 1024h-480c-17.664 0-32-14.336-32-32v-640c0-14.080 9.216-26.432 22.592-30.592 13.504-4.224 27.968 0.96 35.84 12.608 0.768 1.024 70.336 102.848 156.032 187.2 80.256 78.912 126.208 58.752 202.496 25.088 25.408-11.264 54.336-23.936 86.336-33.088 17.216-4.736 34.688 5.056 39.552 22.080 4.8 17.024-5.056 34.688-22.080 39.552-27.776 7.808-53.312 19.072-78.016 29.952-79.616 35.072-161.92 71.488-273.216-38.016-40.576-39.936-77.248-82.816-105.536-118.4v511.616h448c17.664 0 32 14.336 32 32s-14.336 32-32 32z"></path>
	<path class="path2" d="M608 768h-192c-17.664 0-32-14.336-32-32s14.336-32 32-32h192c17.664 0 32 14.336 32 32s-14.336 32-32 32z"></path>
	<path class="path3" d="M320 352c0 17.673-14.327 32-32 32s-32-14.327-32-32c0-17.673 14.327-32 32-32s32 14.327 32 32z"></path>
	<path class="path4" d="M768 352c0 17.673-14.327 32-32 32s-32-14.327-32-32c0-17.673 14.327-32 32-32s32 14.327 32 32z"></path>
	<path class="path5" d="M736 192c-8.192 0-16.384-3.136-22.656-9.344l-104.192-104.256c-40.896 40.832-131.392 113.6-257.152 113.6-143.808 0-208.704-99.2-222.848-151.616-4.672-17.088 5.44-34.624 22.464-39.232 17.216-4.416 34.496 5.376 39.168 22.336v0c1.28 4.224 31.488 104.512 161.216 104.512 139.008 0 229.824-114.432 230.656-115.648 5.696-7.168 14.144-11.712 23.296-12.288 9.28 0.128 18.112 2.816 24.64 9.344l105.408 105.344 105.344-105.344c12.48-12.48 32.768-12.48 45.248 0s12.48 32.768 0 45.248l-128 128c-6.208 6.208-14.4 9.344-22.592 9.344z"></path>
	<path class="path6" d="M992 1024h-480c-17.664 0-32-14.336-32-32s14.336-32 32-32h448v-511.616c-28.288 35.584-64.96 78.528-105.536 118.464-111.296 109.568-193.664 73.088-273.216 38.016-24.704-10.944-50.24-22.208-78.016-30.080-17.024-4.864-26.88-22.592-22.080-39.552s22.4-26.816 39.552-22.080c32 9.152 60.864 21.824 86.336 33.088 76.352 33.664 122.24 53.888 202.496-25.088 85.696-84.288 155.264-186.176 156.032-187.2 7.872-11.648 22.464-16.896 35.904-12.544 13.312 4.16 22.528 16.512 22.528 30.592v640c0 17.664-14.336 32-32 32z"></path>
</symbol>
<symbol id="icon-s_layout" viewBox="0 0 1024 1024">
	<title>s_layout</title>
	<path class="path1" d="M992 896h-960c-17.664 0-32-14.336-32-32v-768c0-17.664 14.336-32 32-32h960c17.664 0 32 14.336 32 32v768c0 17.664-14.336 32-32 32zM64 832h896v-704h-896v704z"></path>
	<path class="path2" d="M960 320h-896c-17.664 0-32-14.336-32-32s14.336-32 32-32h896c17.664 0 32 14.336 32 32s-14.336 32-32 32z"></path>
	<path class="path3" d="M352 896c-17.664 0-32-14.336-32-32v-480c0-17.664 14.336-32 32-32s32 14.336 32 32v480c0 17.664-14.336 32-32 32z"></path>
</symbol>
<symbol id="icon-s_link" viewBox="0 0 1024 1024">
	<title>s_link</title>
	<path class="path1" d="M288 768c-8.192 0-16.384-3.136-22.656-9.344-12.48-12.48-12.48-32.768 0-45.248l448-448c12.48-12.48 32.768-12.48 45.248 0s12.48 32.768 0 45.248l-448 448c-6.208 6.208-14.4 9.344-22.592 9.344z"></path>
	<path class="path2" d="M288 1024c-158.784 0-288-129.216-288-288s129.216-288 288-288c24.384 0 48.64 3.072 72.064 9.088 17.088 4.416 27.392 21.888 22.976 38.976-4.416 17.216-21.696 27.392-38.976 23.040-18.176-4.736-37.056-7.104-56.064-7.104-123.52 0-224 100.48-224 224s100.48 224 224 224 224-100.48 224-224c0-19.008-2.368-37.952-7.104-56.192-4.416-17.088 5.888-34.56 23.040-38.976 17.024-4.16 34.624 5.888 38.976 23.040 6.016 23.424 9.088 47.744 9.088 72.128 0 158.784-129.216 288-288 288z"></path>
	<path class="path3" d="M736 576c-24.384 0-48.64-3.072-72.064-9.088-17.088-4.416-27.392-21.888-22.976-38.976 4.48-17.088 21.888-27.328 38.976-22.976 18.176 4.672 37.056 7.040 56.064 7.040 123.52 0 224-100.48 224-224s-100.48-224-224-224-224 100.48-224 224c0 19.008 2.368 37.952 7.104 56.192 4.416 17.088-5.888 34.56-23.040 38.976-16.768 4.48-34.56-5.888-38.976-23.040-6.016-23.424-9.088-47.744-9.088-72.128 0-158.784 129.216-288 288-288s288 129.216 288 288-129.216 288-288 288z"></path>
</symbol>
<symbol id="icon-s_list-bulleted" viewBox="0 0 1024 1024">
	<title>s_list-bulleted</title>
	<path class="path1" d="M992 256h-704c-17.664 0-32-14.336-32-32s14.336-32 32-32h704c17.664 0 32 14.336 32 32s-14.336 32-32 32z"></path>
	<path class="path2" d="M992 576h-704c-17.664 0-32-14.336-32-32s14.336-32 32-32h704c17.664 0 32 14.336 32 32s-14.336 32-32 32z"></path>
	<path class="path3" d="M992 896h-704c-17.664 0-32-14.336-32-32s14.336-32 32-32h704c17.664 0 32 14.336 32 32s-14.336 32-32 32z"></path>
	<path class="path4" d="M96 320c-52.928 0-96-43.072-96-96s43.072-96 96-96 96 43.072 96 96-43.072 96-96 96zM96 192c-17.664 0-32 14.4-32 32s14.336 32 32 32 32-14.4 32-32-14.336-32-32-32z"></path>
	<path class="path5" d="M96 640c-52.928 0-96-43.072-96-96s43.072-96 96-96 96 43.072 96 96-43.072 96-96 96zM96 512c-17.664 0-32 14.4-32 32s14.336 32 32 32 32-14.4 32-32-14.336-32-32-32z"></path>
	<path class="path6" d="M96 960c-52.928 0-96-43.072-96-96s43.072-96 96-96 96 43.072 96 96-43.072 96-96 96zM96 832c-17.664 0-32 14.4-32 32s14.336 32 32 32 32-14.4 32-32-14.336-32-32-32z"></path>
</symbol>
<symbol id="icon-s_list-numbered" viewBox="0 0 1024 1024">
	<title>s_list-numbered</title>
	<path class="path1" d="M992 256h-512c-17.664 0-32-14.336-32-32s14.336-32 32-32h512c17.664 0 32 14.336 32 32s-14.336 32-32 32z"></path>
	<path class="path2" d="M992 640h-448c-17.664 0-32-14.336-32-32s14.336-32 32-32h448c17.664 0 32 14.336 32 32s-14.336 32-32 32z"></path>
	<path class="path3" d="M992 1024h-448c-17.664 0-32-14.336-32-32s14.336-32 32-32h448c17.664 0 32 14.336 32 32s-14.336 32-32 32z"></path>
	<path class="path4" d="M96 224c-17.664 0-32-14.336-32-32v-64c0-17.664 14.336-32 32-32s32 14.336 32 32v64c0 17.664-14.336 32-32 32z"></path>
	<path class="path5" d="M96 608c-17.664 0-32-14.336-32-32v-64c0-17.664 14.336-32 32-32s32 14.336 32 32v64c0 17.664-14.336 32-32 32z"></path>
	<path class="path6" d="M224 608c-17.664 0-32-14.336-32-32v-64c0-17.664 14.336-32 32-32s32 14.336 32 32v64c0 17.664-14.336 32-32 32z"></path>
	<path class="path7" d="M96 992c-17.664 0-32-14.336-32-32v-64c0-17.664 14.336-32 32-32s32 14.336 32 32v64c0 17.664-14.336 32-32 32z"></path>
	<path class="path8" d="M224 992c-17.664 0-32-14.336-32-32v-64c0-17.664 14.336-32 32-32s32 14.336 32 32v64c0 17.664-14.336 32-32 32z"></path>
	<path class="path9" d="M352 992c-17.664 0-32-14.336-32-32v-64c0-17.664 14.336-32 32-32s32 14.336 32 32v64c0 17.664-14.336 32-32 32z"></path>
	<path class="path10" d="M160 128h-128c-17.664 0-32-14.336-32-32s14.336-32 32-32h128c17.664 0 32 14.336 32 32s-14.336 32-32 32z"></path>
	<path class="path11" d="M160 256h-128c-17.664 0-32-14.336-32-32s14.336-32 32-32h128c17.664 0 32 14.336 32 32s-14.336 32-32 32z"></path>
	<path class="path12" d="M288 512h-256c-17.664 0-32-14.336-32-32s14.336-32 32-32h256c17.664 0 32 14.336 32 32s-14.336 32-32 32z"></path>
	<path class="path13" d="M288 640h-256c-17.664 0-32-14.336-32-32s14.336-32 32-32h256c17.664 0 32 14.336 32 32s-14.336 32-32 32z"></path>
	<path class="path14" d="M416 896h-384c-17.664 0-32-14.336-32-32s14.336-32 32-32h384c17.664 0 32 14.336 32 32s-14.336 32-32 32z"></path>
	<path class="path15" d="M416 1024h-384c-17.664 0-32-14.336-32-32s14.336-32 32-32h384c17.664 0 32 14.336 32 32s-14.336 32-32 32z"></path>
	<path class="path16" d="M320 224c0 17.673-14.327 32-32 32s-32-14.327-32-32c0-17.673 14.327-32 32-32s32 14.327 32 32z"></path>
	<path class="path17" d="M448 608c0 17.673-14.327 32-32 32s-32-14.327-32-32c0-17.673 14.327-32 32-32s32 14.327 32 32z"></path>
</symbol>
<symbol id="icon-s_lock" viewBox="0 0 1024 1024">
	<title>s_lock</title>
	<path class="path1" d="M224 512c-14.912 0-28.288-10.496-31.36-25.6-1.984-9.856-47.040-240.512 68.608-381.888 56.704-69.312 141.056-104.512 250.752-104.512s194.048 35.2 250.752 104.512c115.584 141.376 70.592 372.032 68.608 381.888-3.52 17.28-20.608 28.48-37.696 25.024-17.344-3.52-28.544-20.352-25.088-37.696 0.448-2.112 40.896-211.136-55.552-328.832-43.904-53.696-111.552-80.896-201.024-80.896-89.536 0-157.248 27.264-201.28 81.088-96.576 118.016-55.808 326.464-55.36 328.512 3.52 17.408-7.68 34.304-25.024 37.76-2.112 0.448-4.288 0.64-6.336 0.64z"></path>
	<path class="path2" d="M890.304 1024h-756.608c-16.448 0-30.208-12.48-31.872-28.864l-50.432-512c-0.832-9.024 2.048-17.92 8.128-24.64s14.72-10.496 23.744-10.496h857.472c9.024 0 17.664 3.84 23.744 10.496s9.024 15.616 8.128 24.64l-50.432 512c-1.664 16.384-15.424 28.864-31.872 28.864zM162.688 960h698.624l44.096-448h-786.816l44.096 448z"></path>
	<path class="path3" d="M512 832c-70.592 0-128-57.408-128-128s57.408-128 128-128 128 57.408 128 128-57.408 128-128 128zM512 640c-35.264 0-64 28.672-64 64s28.736 64 64 64 64-28.672 64-64-28.736-64-64-64z"></path>
</symbol>
<symbol id="icon-s_menu" viewBox="0 0 1024 1024">
	<title>s_menu</title>
	<path class="path1" d="M992 320h-960c-17.664 0-32-14.336-32-32s14.336-32 32-32h960c17.664 0 32 14.336 32 32s-14.336 32-32 32z"></path>
	<path class="path2" d="M992 576h-960c-17.664 0-32-14.336-32-32s14.336-32 32-32h960c17.664 0 32 14.336 32 32s-14.336 32-32 32z"></path>
	<path class="path3" d="M992 832h-960c-17.664 0-32-14.336-32-32s14.336-32 32-32h960c17.664 0 32 14.336 32 32s-14.336 32-32 32z"></path>
</symbol>
<symbol id="icon-s_minus" viewBox="0 0 1024 1024">
	<title>s_minus</title>
	<path class="path1" d="M864 576h-704c-17.664 0-32-14.336-32-32s14.336-32 32-32h704c17.664 0 32 14.336 32 32s-14.336 32-32 32z"></path>
</symbol>
<symbol id="icon-s_moon" viewBox="0 0 1024 1024">
	<title>s_moon</title>
	<path class="path1" d="M480 1024c-189.184 0-362.24-103.808-451.648-270.848-6.016-11.264-4.8-25.024 3.136-35.008 8-10.048 20.928-14.144 33.344-11.072 242.304 64.576 463.168-121.152 463.168-355.072 0-113.152-51.2-218.368-140.416-288.832-10.048-7.872-14.4-20.992-11.136-33.28s13.504-21.504 26.112-23.424c28.352-4.352 53.632-6.464 77.44-6.464 282.304 0 512 229.696 512 512s-229.696 512-512 512zM122.752 782.336c83.968 110.976 215.488 177.664 357.248 177.664 247.040 0 448-201.024 448-448 0-246.464-200-447.040-446.272-448 70.784 78.656 110.272 180.288 110.272 288 0 250.496-214.528 453.376-469.248 430.336z"></path>
</symbol>
<symbol id="icon-s_phone" viewBox="0 0 1024 1024">
	<title>s_phone</title>
	<path class="path1" d="M736 1024h-512c-17.664 0-32-14.336-32-32v-960c0-17.664 14.336-32 32-32h512c17.664 0 32 14.336 32 32v960c0 17.664-14.336 32-32 32zM256 960h448v-896h-448v896z"></path>
	<path class="path2" d="M480 896c-52.928 0-96-43.072-96-96s43.072-96 96-96 96 43.072 96 96-43.072 96-96 96zM480 768c-17.664 0-32 14.336-32 32s14.336 32 32 32 32-14.336 32-32-14.336-32-32-32z"></path>
	<path class="path3" d="M544 192h-128c-17.664 0-32-14.336-32-32s14.336-32 32-32h128c17.664 0 32 14.336 32 32s-14.336 32-32 32z"></path>
</symbol>
<symbol id="icon-s_phone-landscape" viewBox="0 0 1024 1024">
	<title>s_phone-landscape</title>
	<path class="path1" d="M992 768h-960c-17.664 0-32-14.336-32-32v-512c0-17.664 14.336-32 32-32h960c17.664 0 32 14.336 32 32v512c0 17.664-14.336 32-32 32zM64 704h896v-448h-896v448z"></path>
	<path class="path2" d="M800 576c-52.928 0-96-43.072-96-96s43.072-96 96-96 96 43.072 96 96-43.072 96-96 96zM800 448c-17.6 0-32 14.336-32 32s14.4 32 32 32 32-14.336 32-32-14.4-32-32-32z"></path>
	<path class="path3" d="M160 576c-17.664 0-32-14.336-32-32v-128c0-17.664 14.336-32 32-32s32 14.336 32 32v128c0 17.664-14.336 32-32 32z"></path>
</symbol>
<symbol id="icon-s_plus" viewBox="0 0 1024 1024">
	<title>s_plus</title>
	<path class="path1" d="M480 960c-17.664 0-32-14.336-32-32v-768c0-17.664 14.336-32 32-32s32 14.336 32 32v768c0 17.664-14.336 32-32 32z"></path>
	<path class="path2" d="M864 576h-768c-17.664 0-32-14.336-32-32s14.336-32 32-32h768c17.664 0 32 14.336 32 32s-14.336 32-32 32z"></path>
</symbol>
<symbol id="icon-s_pop-out" viewBox="0 0 1024 1024">
	<title>s_pop-out</title>
	<path class="path1" d="M864 1024h-832c-17.664 0-32-14.336-32-32v-832c0-17.664 14.336-32 32-32h640c17.664 0 32 14.336 32 32s-14.336 32-32 32h-608v768h768v-608c0-17.664 14.336-32 32-32s32 14.336 32 32v640c0 17.664-14.336 32-32 32z"></path>
	<path class="path2" d="M992 384c-17.664 0-32-14.336-32-32v-288h-288c-17.664 0-32-14.336-32-32s14.336-32 32-32h320c17.664 0 32 14.336 32 32v320c0 17.664-14.336 32-32 32z"></path>
	<path class="path3" d="M416 640c-8.192 0-16.384-3.136-22.656-9.344-12.48-12.48-12.48-32.768 0-45.248l576-576c12.48-12.48 32.768-12.48 45.248 0s12.48 32.768 0 45.248l-576 576c-6.208 6.208-14.4 9.344-22.592 9.344z"></path>
</symbol>
<symbol id="icon-s_puzzle" viewBox="0 0 1024 1024">
	<title>s_puzzle</title>
	<path class="path1" d="M992 1024h-690.688c-8.96 0-17.472-3.776-23.552-10.304-6.016-6.592-9.088-15.424-8.32-24.32 7.936-97.216-4.864-213.568-33.92-223.808-14.144-4.992-30.72 7.488-48.768 19.712-20.992 14.336-44.864 30.592-73.92 30.784-61.568 0-109.184-56.64-109.184-128.96 0-71.936 46.4-128.192 105.536-128.192 26.56 0.192 49.216 10.624 69.184 19.84 21.76 9.92 41.344 18.56 58.944 12.736 16.384-5.504 29.44-19.136 38.784-40.576 15.744-35.84 15.488-83.776 5.312-106.176-20.992-46.656-48.768-91.264-49.024-91.648-6.080-9.664-6.528-21.888-1.152-32s15.68-16.576 27.136-16.96l9.152-0.128 23.104 0.064c184.832 0 206.72-36.992 209.28-44.416 5.888-17.28-0.576-33.472-11.456-58.56-8.576-19.584-18.304-41.856-18.496-67.2-0.192-27.008 10.624-52.864 30.336-72.768 48.64-48.832 146.624-48.064 194.24-0.064 18.88 19.008 29.12 43.648 28.928 69.248-0.256 25.92-10.432 48.704-19.456 68.8-11.52 25.728-18.24 42.496-12.48 60.48 15.488 47.808 96.256 60.416 136.768 60.416h144.64c16.128 0 29.76 12.032 31.744 28.032 1.408 11.136 32.768 273.92-118.976 311.104-37.632 9.024-77.44-6.272-109.248-20.352-18.176-8.064-35.392-15.744-48.064-15.872-23.232 0-35.648 33.088-35.648 64.192 0 16.32 6.912 33.152 19.072 46.080 11.136 11.84 25.28 18.88 37.824 18.88 12.672-0.064 31.808-6.848 50.304-13.44 36.736-12.992 83.2-26.24 119.36-13.504 104.512 36.8 105.024 240.96 104.704 264.064-0.256 17.536-14.528 34.816-32 34.816zM335.296 960h624.128c-3.52-72.32-22.592-160.832-61.376-174.528-18.24-6.4-48.512 3.456-76.736 13.504-23.488 8.32-47.744 16.896-70.912 17.088-31.104 0-61.888-14.272-85.248-39.168-23.104-24.64-36.352-57.408-36.352-89.792 0-74.304 41.792-128.192 99.392-128.192 26.816 0.256 50.944 10.944 74.304 21.312 25.216 11.136 49.216 21.504 68.032 16.704 69.248-16.96 76.864-142.912 73.088-212.928h-115.328c-27.392 0-165.504-5.056-197.632-104.832-13.632-42.24 2.24-77.696 14.912-106.176 7.040-15.808 13.76-30.72 13.888-43.264 0.064-8.576-3.456-16.576-10.368-23.616-23.36-23.488-79.36-24.128-103.36 0.128-7.936 7.936-11.84 17.088-11.776 27.136 0.128 12.224 6.464 26.752 13.12 42.112 12.224 28.096 27.584 63.104 13.44 104.704-24.704 72.768-146.176 86.080-245.824 87.68 8.128 15.168 17.024 32.576 25.152 50.56 18.88 41.856 16.768 108.352-5.056 158.080-16.704 38.208-43.392 64.32-77.184 75.584-37.184 12.48-76.352-1.728-105.856-15.232-15.616-7.104-30.336-13.888-42.304-13.952-22.784 0-41.792 29.376-41.792 64.192 0 35.84 19.968 64.96 44.352 64.96 9.92-0.064 24.576-10.048 38.72-19.712 28.608-19.52 67.136-40.96 105.984-27.2 77.12 27.2 81.92 174.784 78.592 254.848z"></path>
</symbol>
<symbol id="icon-s_question" viewBox="0 0 1024 1024">
	<title>s_question</title>
	<path class="path1" d="M672 704h-256c-17.664 0-32-14.336-32-32v-192c0-17.664 14.336-32 32-32h108.224l96-192h-172.224v96c0 17.664-14.336 32-32 32h-192c-17.664 0-32-14.336-32-32v-320c0-17.664 14.336-32 32-32h640c15.616 0 28.992 11.328 31.552 26.752l32 192c1.152 6.656 0.064 13.504-2.944 19.584l-224 448c-5.44 10.816-16.512 17.664-28.608 17.664zM448 640h204.224l210.496-420.992-25.856-155.008h-580.864v256h128v-96c0-17.664 14.336-32 32-32h256c11.072 0 21.376 5.76 27.264 15.168 5.824 9.408 6.336 21.248 1.344 31.104l-128 256c-5.44 10.88-16.512 17.728-28.608 17.728h-96v128z"></path>
	<path class="path2" d="M672 1024h-256c-17.664 0-32-14.336-32-32v-192c0-17.664 14.336-32 32-32h256c17.664 0 32 14.336 32 32v192c0 17.664-14.336 32-32 32zM448 960h192v-128h-192v128z"></path>
</symbol>
<symbol id="icon-s_refresh" viewBox="0 0 1024 1024">
	<title>s_refresh</title>
	<path class="path1" d="M928 320h-256c-17.664 0-32-14.336-32-32s14.336-32 32-32h224v-224c0-17.664 14.336-32 32-32s32 14.336 32 32v256c0 17.664-14.336 32-32 32z"></path>
	<path class="path2" d="M512 1024c-282.304 0-512-229.696-512-512s229.696-512 512-512c170.176 0 312.32 82.496 411.008 238.656 9.472 14.912 4.992 34.752-9.92 44.16-14.912 9.344-34.688 4.992-44.096-9.92-60.288-95.36-171.136-208.896-356.992-208.896-247.040 0-448 201.024-448 448s200.96 448 448 448 448-201.024 448-448c0-17.664 14.336-32 32-32s32 14.336 32 32c0 282.304-229.696 512-512 512z"></path>
</symbol>
<symbol id="icon-s_scissors" viewBox="0 0 1024 1024">
	<title>s_scissors</title>
	<path class="path1" d="M288 896c-8.192 0-16.384-3.136-22.656-9.344-12.48-12.48-12.48-32.768 0-45.248l255.488-255.488c0.32-0.32 0.704-0.704 1.024-1.024l447.488-447.488c8.768-8.704 21.696-11.584 33.28-7.552 11.648 4.096 19.84 14.464 21.184 26.688 1.152 10.048 25.152 247.808-137.216 410.112-133.824 133.952-280.128 99.456-335.168 79.168l-240.832 240.832c-6.208 6.208-14.4 9.344-22.592 9.344zM602.176 595.072c53.504 13.056 148.288 17.216 239.168-73.664 88.96-88.96 112.96-208.128 118.592-284.032l-357.76 357.696z"></path>
	<path class="path2" d="M160 1024c-88.256 0-160-71.808-160-160s71.744-160 160-160 160 71.808 160 160-71.744 160-160 160zM160 768c-52.928 0-96 43.072-96 96s43.072 96 96 96 96-43.072 96-96-43.072-96-96-96z"></path>
	<path class="path3" d="M737.536 896c-8.192 0-16.384-3.136-22.656-9.344l-240.768-240.896c-54.976 20.288-201.28 54.784-335.168-79.168-162.304-162.304-138.304-400-137.216-410.112 1.344-12.224 9.536-22.592 21.184-26.688 11.712-4.032 24.512-1.152 33.28 7.552l447.488 447.488c0.32 0.32 0.704 0.704 1.024 1.024l255.488 255.488c12.48 12.48 12.48 32.768 0 45.248-6.272 6.272-14.464 9.408-22.656 9.408zM65.6 237.312c5.632 75.904 29.632 195.072 118.592 284.032 90.304 90.304 185.408 86.208 238.976 73.472l-357.568-357.504z"></path>
	<path class="path4" d="M865.536 1024c-88.256 0-160-71.808-160-160s71.744-160 160-160 160 71.808 160 160-71.744 160-160 160zM865.536 768c-52.928 0-96 43.072-96 96s43.072 96 96 96 96-43.072 96-96-43.008-96-96-96z"></path>
</symbol>
<symbol id="icon-s_search" viewBox="0 0 1024 1024">
	<title>s_search</title>
	<path class="path1" d="M608 832c-229.376 0-416-186.624-416-416s186.624-416 416-416 416 186.624 416 416-186.624 416-416 416zM608 64c-194.112 0-352 157.952-352 352s157.888 352 352 352 352-157.952 352-352-157.888-352-352-352z"></path>
	<path class="path2" d="M32 1024c-8.192 0-16.384-3.136-22.656-9.344-12.48-12.48-12.48-32.768 0-45.248l304-304c12.48-12.48 32.768-12.48 45.248 0s12.48 32.768 0 45.248l-304 304c-6.208 6.208-14.4 9.344-22.592 9.344z"></path>
</symbol>
<symbol id="icon-s_skull" viewBox="0 0 1024 1024">
	<title>s_skull</title>
	<path class="path1" d="M418.496 512c-0.32 0-0.832 0-1.216 0h-191.232c-17.664 0-32-14.336-32-32 0-22.848 3.584-223.168 127.616-223.168 113.344 0 126.080 167.616 127.424 213.696 0.896 2.944 1.408 6.144 1.408 9.472 0 17.664-14.336 32-32 32zM259.776 448h123.904c-5.12-54.656-22.656-127.168-62.016-127.168-38.912 0-56.704 73.216-61.888 127.168z"></path>
	<path class="path2" d="M800.832 512c-0.32 0-0.832 0-1.28 0h-191.104c-17.664 0-32-14.336-32-32 0-22.848 3.584-223.168 127.552-223.168 113.344 0 126.080 167.616 127.424 213.696 0.896 3.008 1.344 6.208 1.344 9.472 0.064 17.664-14.272 32-31.936 32zM642.048 448h123.904c-5.056-54.656-22.656-127.168-61.952-127.168s-56.896 72.512-61.952 127.168z"></path>
	<path class="path3" d="M800 1024h-576c-17.664 0-32-14.336-32-32v-224h-160c-17.664 0-32-14.336-32-32v-704c0-17.664 14.336-32 32-32h960c17.664 0 32 14.336 32 32v704c0 17.664-14.336 32-32 32h-160v224c0 17.664-14.336 32-32 32zM256 960h512v-224c0-17.664 14.336-32 32-32h160v-640h-896v640h160c17.664 0 32 14.336 32 32v224z"></path>
	<path class="path4" d="M672 768h-320c-17.664 0-32-14.336-32-32s14.336-32 32-32h320c17.664 0 32 14.336 32 32s-14.336 32-32 32z"></path>
</symbol>
<symbol id="icon-s_square-check" viewBox="0 0 1024 1024">
	<title>s_square-check</title>
	<path class="path1" d="M992 1024h-960c-17.664 0-32-14.336-32-32v-960c0-17.664 14.336-32 32-32h960c17.664 0 32 14.336 32 32v960c0 17.664-14.336 32-32 32zM64 960h896v-896h-896v896z"></path>
	<path class="path2" d="M416 704c-8.192 0-16.384-3.136-22.656-9.344l-192-192c-12.48-12.48-12.48-32.768 0-45.248s32.768-12.48 45.248 0l169.408 169.344 361.344-361.344c12.48-12.48 32.768-12.48 45.248 0s12.48 32.768 0 45.248l-384 384c-6.208 6.208-14.4 9.344-22.592 9.344z"></path>
</symbol>
<symbol id="icon-s_square-minus" viewBox="0 0 1024 1024">
	<title>s_square-minus</title>
	<path class="path1" d="M928 1024h-896c-17.664 0-32-14.336-32-32v-896c0-17.664 14.336-32 32-32h896c17.664 0 32 14.336 32 32v896c0 17.664-14.336 32-32 32zM64 960h832v-832h-832v832z"></path>
	<path class="path2" d="M672 576h-384c-17.664 0-32-14.336-32-32s14.336-32 32-32h384c17.664 0 32 14.336 32 32s-14.336 32-32 32z"></path>
</symbol>
<symbol id="icon-s_square-plus" viewBox="0 0 1024 1024">
	<title>s_square-plus</title>
	<path class="path1" d="M922.688 1024h-896c-17.664 0-32-14.336-32-32v-896c0-17.664 14.336-32 32-32h896c17.664 0 32 14.336 32 32v896c0 17.664-14.336 32-32 32zM58.688 960h832v-832h-832v832z"></path>
	<path class="path2" d="M672 576h-384c-17.664 0-32-14.336-32-32s14.336-32 32-32h384c17.664 0 32 14.336 32 32s-14.336 32-32 32z"></path>
	<path class="path3" d="M480 768c-17.664 0-32-14.336-32-32v-384c0-17.664 14.336-32 32-32s32 14.336 32 32v384c0 17.664-14.336 32-32 32z"></path>
</symbol>
<symbol id="icon-s_square-times" viewBox="0 0 1024 1024">
	<title>s_square-times</title>
	<path class="path1" d="M672 704c-8.192 0-16.384-3.136-22.656-9.344l-320-320c-12.48-12.48-12.48-32.768 0-45.248s32.768-12.48 45.248 0l320 320c12.48 12.48 12.48 32.768 0 45.248-6.208 6.208-14.4 9.344-22.592 9.344z"></path>
	<path class="path2" d="M352 704c-8.192 0-16.384-3.136-22.656-9.344-12.48-12.48-12.48-32.768 0-45.248l320-320c12.48-12.48 32.768-12.48 45.248 0s12.48 32.768 0 45.248l-320 320c-6.208 6.208-14.4 9.344-22.592 9.344z"></path>
	<path class="path3" d="M992 1024h-960c-17.664 0-32-14.336-32-32v-960c0-17.664 14.336-32 32-32h960c17.664 0 32 14.336 32 32v960c0 17.664-14.336 32-32 32zM64 960h896v-896h-896v896z"></path>
</symbol>
<symbol id="icon-s_stack" viewBox="0 0 1024 1024">
	<title>s_stack</title>
	<path class="path1" d="M608 1024h-576c-17.664 0-32-14.336-32-32v-576c0-17.664 14.336-32 32-32h192c17.664 0 32 14.336 32 32s-14.336 32-32 32h-160v512h512v-160c0-17.664 14.336-32 32-32s32 14.336 32 32v192c0 17.664-14.336 32-32 32z"></path>
	<path class="path2" d="M800 832h-576c-17.664 0-32-14.336-32-32v-576c0-17.664 14.336-32 32-32h192c17.664 0 32 14.336 32 32s-14.336 32-32 32h-160v512h512v-160c0-17.664 14.336-32 32-32s32 14.336 32 32v192c0 17.664-14.336 32-32 32z"></path>
	<path class="path3" d="M992 640h-576c-17.664 0-32-14.336-32-32v-576c0-17.664 14.336-32 32-32h576c17.664 0 32 14.336 32 32v576c0 17.664-14.336 32-32 32zM448 576h512v-512h-512v512z"></path>
</symbol>
<symbol id="icon-s_strikethrough" viewBox="0 0 1024 1024">
	<title>s_strikethrough</title>
	<path class="path1" d="M506.496 1021.76c-21.888 0-43.968-1.536-65.856-4.672-135.424-19.456-240.768-98.048-288.96-215.616-6.656-16.384 1.152-35.072 17.472-41.728 16.192-6.528 35.072 1.152 41.728 17.472 53.888 131.52 172.736 167.040 238.784 176.512 125.568 18.368 259.328-27.072 325.248-109.632 38.016-47.616 39.296-114.368 3.008-148.8-12.8-12.16-13.376-32.448-1.28-45.248 12.16-12.8 32.448-13.312 45.248-1.28 60.928 57.728 62.272 161.088 3.008 235.2-68.736 86.144-191.232 137.792-318.4 137.792z"></path>
	<path class="path2" d="M352 448c-5.248 0-10.56-1.344-15.488-3.968-102.080-56.448-149.888-152.64-124.736-251.072 29.696-116.544 147.52-192.256 300.096-192.96 0.832 0 1.664 0 2.496 0 102.656 0 182.912 30.208 238.528 89.664 88.128 94.4 79.424 227.072 79.040 232.704-1.344 17.6-18.432 30.848-34.176 29.504-17.6-1.28-30.848-16.576-29.696-34.112 0.064-1.152 6.72-111.168-62.336-184.768-43.328-46.272-111.040-68.224-193.6-68.992-148.8 0.704-221.44 78.464-238.4 144.832-17.856 69.888 17.216 136.896 93.76 179.2 15.424 8.512 21.056 27.968 12.544 43.456-5.824 10.56-16.768 16.512-28.032 16.512z"></path>
	<path class="path3" d="M928 576h-832c-17.664 0-32-14.336-32-32s14.336-32 32-32h832c17.664 0 32 14.336 32 32s-14.336 32-32 32z"></path>
</symbol>
<symbol id="icon-s_subscript" viewBox="0 0 1024 1024">
	<title>s_subscript</title>
	<path class="path1" d="M608 640c-8.192 0-16.384-3.136-22.656-9.344l-576-576c-12.48-12.48-12.48-32.768 0-45.248s32.768-12.48 45.248 0l576 576c12.48 12.48 12.48 32.768 0 45.248-6.208 6.208-14.4 9.344-22.592 9.344z"></path>
	<path class="path2" d="M32 640c-8.192 0-16.384-3.136-22.656-9.344-12.48-12.48-12.48-32.768 0-45.248l576-576c12.48-12.48 32.768-12.48 45.248 0s12.48 32.768 0 45.248l-576 576c-6.208 6.208-14.4 9.344-22.592 9.344z"></path>
	<path class="path3" d="M992 1024h-256c-15.424 0-28.608-10.944-31.424-26.112-2.816-15.104 5.44-30.144 19.84-35.712 156.032-60.736 212.288-137.472 212.992-189.056 0.32-27.264-14.656-49.792-40-60.416-31.808-13.504-84.992-8.256-138.624 45.824-12.48 12.48-32.704 12.736-45.248 0.256-12.544-12.416-12.672-32.704-0.256-45.248 76.032-76.8 157.632-81.344 208.832-59.904 49.6 20.736 80 66.88 79.296 120.32-0.448 35.072-16.192 111.936-130.048 186.048h120.64c17.664 0 32 14.336 32 32s-14.336 32-32 32z"></path>
</symbol>
<symbol id="icon-s_sun" viewBox="0 0 1024 1024">
	<title>s_sun</title>
	<path class="path1" d="M544 640c-88.192 0-160-71.744-160-160s71.808-160 160-160 160 71.744 160 160-71.808 160-160 160zM544 384c-52.928 0-96 43.072-96 96s43.072 96 96 96 96-43.072 96-96-43.072-96-96-96z"></path>
	<path class="path2" d="M544 192c-17.664 0-32-14.336-32-32v-128c0-17.664 14.336-32 32-32s32 14.336 32 32v128c0 17.664-14.336 32-32 32z"></path>
	<path class="path3" d="M544 960c-17.664 0-32-14.336-32-32v-128c0-17.664 14.336-32 32-32s32 14.336 32 32v128c0 17.664-14.336 32-32 32z"></path>
	<path class="path4" d="M992 512h-128c-17.664 0-32-14.336-32-32s14.336-32 32-32h128c17.664 0 32 14.336 32 32s-14.336 32-32 32z"></path>
	<path class="path5" d="M224 512h-128c-17.664 0-32-14.336-32-32s14.336-32 32-32h128c17.664 0 32 14.336 32 32s-14.336 32-32 32z"></path>
	<path class="path6" d="M317.696 285.76c-8.192 0-16.384-3.136-22.656-9.344l-90.432-90.624c-12.48-12.48-12.48-32.768 0-45.248s32.768-12.48 45.248 0l90.496 90.56c12.48 12.48 12.48 32.768 0 45.248-6.272 6.272-14.464 9.408-22.656 9.408z"></path>
	<path class="path7" d="M860.8 828.8c-8.192 0-16.384-3.136-22.656-9.344l-90.496-90.56c-12.48-12.48-12.48-32.768 0-45.248s32.768-12.48 45.248 0l90.496 90.56c12.48 12.48 12.48 32.768 0 45.248-6.208 6.208-14.4 9.344-22.592 9.344z"></path>
	<path class="path8" d="M770.304 285.76c-8.192 0-16.384-3.136-22.656-9.344-12.48-12.48-12.48-32.768 0-45.248l90.496-90.56c12.48-12.48 32.768-12.48 45.248 0s12.48 32.768 0 45.248l-90.496 90.56c-6.208 6.208-14.4 9.344-22.592 9.344z"></path>
	<path class="path9" d="M227.2 828.8c-8.192 0-16.384-3.136-22.656-9.344-12.48-12.48-12.48-32.768 0-45.248l90.496-90.56c12.48-12.48 32.768-12.48 45.248 0s12.48 32.768 0 45.248l-90.496 90.56c-6.208 6.208-14.4 9.344-22.592 9.344z"></path>
</symbol>
<symbol id="icon-s_superscript" viewBox="0 0 1024 1024">
	<title>s_superscript</title>
	<path class="path1" d="M608 1024c-8.192 0-16.384-3.136-22.656-9.344l-576-576c-12.48-12.48-12.48-32.768 0-45.248s32.768-12.48 45.248 0l576 576c12.48 12.48 12.48 32.768 0 45.248-6.208 6.208-14.4 9.344-22.592 9.344z"></path>
	<path class="path2" d="M32 1024c-8.192 0-16.384-3.136-22.656-9.344-12.48-12.48-12.48-32.768 0-45.248l576-576c12.48-12.48 32.768-12.48 45.248 0s12.48 32.768 0 45.248l-576 576c-6.208 6.208-14.4 9.344-22.592 9.344z"></path>
	<path class="path3" d="M992 381.632h-256c-15.36 0-28.608-10.944-31.424-26.112-2.88-15.104 5.504-30.144 19.84-35.712 156.032-60.736 212.352-137.408 212.992-188.992 0.384-27.264-14.656-49.856-40.064-60.48-31.68-13.44-84.992-8.192-138.56 45.824-12.352 12.544-32.64 12.672-45.248 0.256-12.544-12.416-12.672-32.704-0.256-45.248 76.032-76.736 157.504-81.344 208.832-59.904 49.6 20.8 80 66.88 79.296 120.384-0.448 35.008-16.192 111.936-130.048 185.984h120.64c17.664 0 32 14.336 32 32s-14.336 32-32 32z"></path>
</symbol>
<symbol id="icon-s_tablet" viewBox="0 0 1024 1024">
	<title>s_tablet</title>
	<path class="path1" d="M928 1024h-832c-17.664 0-32-14.336-32-32v-960c0-17.664 14.336-32 32-32h832c17.664 0 32 14.336 32 32v960c0 17.664-14.336 32-32 32zM128 960h768v-896h-768v896z"></path>
	<path class="path2" d="M512 896c-70.592 0-128-57.408-128-128s57.408-128 128-128 128 57.408 128 128-57.408 128-128 128zM512 704c-35.264 0-64 28.736-64 64s28.736 64 64 64 64-28.736 64-64-28.736-64-64-64z"></path>
	<path class="path3" d="M608 192h-192c-17.664 0-32-14.336-32-32s14.336-32 32-32h192c17.664 0 32 14.336 32 32s-14.336 32-32 32z"></path>
</symbol>
<symbol id="icon-s_times" viewBox="0 0 1024 1024">
	<title>s_times</title>
	<path class="path1" d="M800 832c-8.192 0-16.384-3.136-22.656-9.344l-576-576c-12.48-12.48-12.48-32.768 0-45.248s32.768-12.48 45.248 0l576 576c12.48 12.48 12.48 32.768 0 45.248-6.208 6.208-14.4 9.344-22.592 9.344z"></path>
	<path class="path2" d="M224 832c-8.192 0-16.384-3.136-22.656-9.344-12.48-12.48-12.48-32.768 0-45.248l576-576c12.48-12.48 32.768-12.48 45.248 0s12.48 32.768 0 45.248l-576 576c-6.208 6.208-14.4 9.344-22.592 9.344z"></path>
</symbol>
<symbol id="icon-s_trash" viewBox="0 0 1024 1024">
	<title>s_trash</title>
	<path class="path1" d="M416 864c-17.664 0-32-14.336-32-32v-320c0-17.664 14.336-32 32-32s32 14.336 32 32v320c0 17.664-14.336 32-32 32z"></path>
	<path class="path2" d="M608 864c-17.664 0-32-14.336-32-32v-320c0-17.664 14.336-32 32-32s32 14.336 32 32v320c0 17.664-14.336 32-32 32z"></path>
	<path class="path3" d="M992 384h-960c-17.664 0-32-14.336-32-32v-192c0-17.664 14.336-32 32-32h960c17.664 0 32 14.336 32 32v192c0 17.664-14.336 32-32 32zM64 320h896v-128h-896v128z"></path>
	<path class="path4" d="M864 1024h-704c-17.664 0-32-14.336-32-32v-640c0-17.664 14.336-32 32-32h704c17.664 0 32 14.336 32 32v640c0 17.664-14.336 32-32 32zM192 960h640v-576h-640v576z"></path>
	<path class="path5" d="M608 160c-17.664 0-32-14.336-32-32v-64h-128v64c0 17.664-14.336 32-32 32s-32-14.336-32-32v-96c0-17.664 14.336-32 32-32h192c17.664 0 32 14.336 32 32v96c0 17.664-14.336 32-32 32z"></path>
</symbol>
<symbol id="icon-s_underline" viewBox="0 0 1024 1024">
	<title>s_underline</title>
	<path class="path1" d="M928 1024h-832c-17.664 0-32-14.336-32-32s14.336-32 32-32h832c17.664 0 32 14.336 32 32s-14.336 32-32 32z"></path>
	<path class="path2" d="M512 832c-211.776 0-384-169.6-384-378.048v-389.952c0-17.664 14.336-32 32-32s32 14.336 32 32v389.952c0 173.184 143.552 314.048 320 314.048s320-140.864 320-314.048v-389.952c0-17.664 14.336-32 32-32s32 14.336 32 32v389.952c0 208.448-172.224 378.048-384 378.048z"></path>
	<path class="path3" d="M288 64h-256c-17.664 0-32-14.336-32-32s14.336-32 32-32h256c17.664 0 32 14.336 32 32s-14.336 32-32 32z"></path>
	<path class="path4" d="M992 64h-256c-17.664 0-32-14.336-32-32s14.336-32 32-32h256c17.664 0 32 14.336 32 32s-14.336 32-32 32z"></path>
</symbol>
<symbol id="icon-s_upload" viewBox="0 0 1024 1024">
	<title>s_upload</title>
	<path class="path1" d="M544 1024c-17.664 0-32-14.336-32-32v-960c0-17.664 14.336-32 32-32s32 14.336 32 32v960c0 17.664-14.336 32-32 32z"></path>
	<path class="path2" d="M736 256c-8.192 0-16.384-3.136-22.656-9.344l-169.344-169.408-169.344 169.408c-12.48 12.48-32.768 12.48-45.248 0s-12.48-32.768 0-45.248l192-192c12.48-12.48 32.768-12.48 45.248 0l192 192c12.48 12.48 12.48 32.768 0 45.248-6.272 6.208-14.464 9.344-22.656 9.344z"></path>
	<path class="path3" d="M544 1024c-269.184 0-480-126.528-480-288 0-130.432 139.328-241.664 346.688-276.928 17.216-2.816 33.92 8.704 36.928 26.176 2.944 17.408-8.768 33.92-26.176 36.928-172.736 29.376-293.44 117.312-293.44 213.824 0 121.408 190.528 224 416 224s416-102.592 416-224c0-96.512-120.704-184.448-293.44-213.824-17.408-2.944-29.12-19.52-26.176-36.928 3.072-17.408 19.968-28.928 36.928-26.176 207.36 35.264 346.688 146.496 346.688 276.928 0 161.472-210.816 288-480 288z"></path>
</symbol>
<symbol id="icon-s_user" viewBox="0 0 1024 1024">
	<title>s_user</title>
	<path class="path1" d="M659.264 704c-10.752 0-21.248-5.376-27.264-15.168-9.28-15.040-4.608-34.752 10.432-44.032 89.216-55.040 125.568-132.608 125.568-267.712 0-176.256-110.336-309.248-256.64-309.248-147.968 0.064-255.36 128.896-255.36 306.432 0 137.664 36.032 216.064 124.288 270.528 15.040 9.28 19.712 28.992 10.432 44.032-9.344 14.976-29.056 19.648-44.032 10.432-108.416-66.88-154.688-164.096-154.688-324.992 0-211.136 137.344-370.368 319.36-370.368 182.784 0 320.64 160.448 320.64 373.248 0 158.4-46.656 254.72-155.968 322.176-5.248 3.136-11.008 4.672-16.768 4.672z"></path>
	<path class="path2" d="M32 1024c-17.664 0-32-14.336-32-32v-160c0-105.856 86.144-192 192-192h171.52c17.664 0 32 14.336 32 32s-14.336 32-32 32h-171.52c-70.592 0-128 57.408-128 128v160c0 17.664-14.336 32-32 32z"></path>
	<path class="path3" d="M992 1024c-17.664 0-32-14.336-32-32v-160c0-70.592-57.408-128-128-128h-172.736c-17.664 0-32-14.336-32-32s14.336-32 32-32h172.736c105.856 0 192 86.144 192 192v160c0 17.664-14.336 32-32 32z"></path>
</symbol>
<symbol id="icon-s_warning" viewBox="0 0 1024 1024">
	<title>s_warning</title>
	<path class="path1" d="M672 704h-256c-16.448 0-30.208-12.416-31.808-28.8l-64-640c-0.96-9.024 1.984-17.92 8.064-24.704 6.080-6.656 14.656-10.496 23.744-10.496h384c9.088 0 17.664 3.84 23.744 10.496 6.080 6.72 9.024 15.68 8.064 24.704l-64 640c-1.6 16.384-15.36 28.8-31.808 28.8zM444.928 640h198.144l57.536-576h-313.216l57.536 576z"></path>
	<path class="path2" d="M672 1024h-256c-17.664 0-32-14.336-32-32v-192c0-17.664 14.336-32 32-32h256c17.664 0 32 14.336 32 32v192c0 17.664-14.336 32-32 32zM448 960h192v-128h-192v128z"></path>
</symbol>
</defs>
</svg>
